<?xml version="1.0" encoding="UTF-8"?>
<svg id="_レイヤー_1" data-name="レイヤー 1" xmlns="http://www.w3.org/2000/svg" viewBox="0 0 841.89 595.276">
  <defs>
    <style>
      .cls-1 {
        fill: #fa9da5;
      }

      .cls-2 {
        fill: #24a53d;
      }
    </style>
  </defs>
  <g>
    <path d="M277.27789,416.06234h-11.23072v31.64492h6.79226v-10.37458h4.43847c5.86457,0,10.63564-4.77107,10.63564-10.63517s-4.77107-10.63517-10.63564-10.63517ZM277.27789,430.54042h-4.43847v-7.68582h4.43847c2.11879,0,3.84339,1.72412,3.84339,3.84291s-1.7246,3.84291-3.84339,3.84291Z"/>
    <path d="M445.4338,416.06234h-11.22977v31.64492h6.79226v-10.37458h4.43752c5.86457,0,10.63564-4.77107,10.63564-10.63517s-4.77107-10.63517-10.63564-10.63517ZM445.4338,430.54042h-4.43752v-7.68582h4.43752c2.11879,0,3.84339,1.72412,3.84339,3.84291s-1.7246,3.84291-3.84339,3.84291Z"/>
    <polygon points="311.20563 424.95129 305.02575 436.86486 298.84539 424.95129 291.19415 424.95129 301.20037 444.23959 293.80261 458.50079 301.45361 458.50079 318.85687 424.95129 318.79764 424.95129 311.20563 424.95129"/>
    <path d="M337.55936,440.83635c-5.26698,0-9.53425-4.36214-9.37882-9.66344.14747-5.02961,4.44584-9.15427,9.47734-9.10193,2.63809.02744,5.01172,1.15592,6.70159,2.93908.05626.05937.15289.02809.16215-.05318l.87068-7.64487c-2.98432-1.6597-6.53946-2.41164-10.29726-1.84899-7.16585,1.07294-12.83192,6.98939-13.61318,14.19288-1.05427,9.72075,6.56654,17.9727,16.07751,17.9727,2.86217,0,5.54856-.75469,7.88339-2.06448l-.92009-7.61739c-.00975-.08072-.10534-.11128-.16125-.05225-1.71078,1.80662-4.12334,2.94186-6.80205,2.94186Z"/>
    <path d="M361.32846,424.91558c-7.02726,0-11.93572,4.69289-11.93572,11.41171,0,6.71929,4.90847,11.41218,11.93572,11.41218s11.93477-4.69289,11.93477-11.41218c0-6.71882-4.90752-11.41171-11.93477-11.41171ZM361.32799,441.68857c-2.9597,0-5.3594-2.39943-5.3594-5.35927s2.3997-5.35927,5.3594-5.35927,5.3594,2.39943,5.3594,5.35927-2.3997,5.35927-5.3594,5.35927Z"/>
    <path d="M389.57584,424.95129c-1.46685,0-3.26418.21806-5.00986.98323v-.98323h-6.79226v22.75591h6.79226v-12.08317c0-3.23261,1.80585-4.8509,4.03385-4.8509,2.14485,0,4.03385,1.54882,4.03385,4.8509v12.08329h6.79226v-12.9064c0-5.43106-4.41857-9.84962-9.8501-9.84962Z"/>
    <path d="M422.18302,436.8025c0,2.22444-1.80988,4.03385-4.03385,4.03385-1.56943,0-2.91784-.91009-3.58422-2.22225l-5.2169,4.46938c1.96576,2.74615,5.17379,4.54513,8.80113,4.54513,5.96976,0,10.82611-4.85635,10.82611-10.82611v-20.5282h-6.79226v20.5282Z"/>
    <path d="M510.11109,414.8646c-6.09105,0-12.59998,4.34181-12.59998,16.5277s6.50893,16.5277,12.59998,16.5277,12.59998-4.34181,12.59998-16.5277-6.50893-16.5277-12.59998-16.5277ZM510.11109,441.12773c-5.05345,0-5.80772-6.09957-5.80772-9.73544s.75427-9.73544,5.80772-9.73544,5.80772,6.09957,5.80772,9.73544-.75427,9.73544-5.80772,9.73544Z"/>
    <path d="M483.40011,414.93994c-6.77522-.63678-12.4944,4.69902-12.4944,11.34537h6.79226c0-2.97963,2.84483-5.30742,5.96174-4.40985,1.13838.32782,2.12859,1.11756,2.68192,2.16503.95514,1.80809.65621,3.86183-.55891,5.26096l-13.43992,14.16355c-1.08651,1.14501-1.69223,2.66331-1.69223,4.24178v.00053h23.0461v-6.77005h-9.59117l6.64917-7.00736.19422-.2134c1.76799-1.9426,2.74778-4.47484,2.74778-7.10152h0c0-5.9298-4.3928-11.12017-10.29657-11.67505Z"/>
    <path d="M538.3046,414.93998c-6.77541-.63705-12.49484,4.69883-12.49484,11.34533h6.79226c0-2.97349,2.83313-5.29783,5.94249-4.41533,1.14118.32389,2.1354,1.11149,2.69389,2.15805.96509,1.80849.66793,3.86838-.55067,5.27391l-13.44033,14.16354c-1.08656,1.14502-1.69229,2.66334-1.69229,4.24185h0s23.04634,0,23.04634,0v-6.77005h-9.59093l6.64917-7.00736.19034-.20891c1.77024-1.94294,2.75142-4.47673,2.75142-7.10518h0c0-5.93005-4.39284-11.12073-10.29684-11.67584Z"/>
    <g>
      <path d="M575.94917,422.20379v-6.75632h-18.39538l-3.08126,17.33546c-.01253.0705.05046.13143.11993.11408.66372-.16581,3.51224-.80194,7.26779-.55307,3.59461.2382,6.77555,2.54163,6.77555,5.2124,0,2.67124-3.04355,4.92774-6.64604,4.92774-3.53722,0-6.7231-1.27794-8.78591-2.56325l-1.24772,7.02054c2.86211,1.35394,6.34254,2.29904,10.03363,2.29904,7.38973,0,13.40237-5.24162,13.40237-11.68407,0-6.39579-5.92686-11.60819-13.24307-11.68265l.72578-3.66989h13.07435Z"/>
      <path d="M509.90234,415.22125c-6.05882,0-12.53332,4.31884-12.53332,16.44026s6.4745,16.44026,12.53332,16.44026,12.53332-4.31884,12.53332-16.44026-6.4745-16.44026-12.53332-16.44026ZM509.90234,441.34545c-5.02671,0-5.777-6.06731-5.777-9.68394s.75028-9.68394,5.777-9.68394,5.777,6.06731,5.777,9.68394-.75028,9.68394-5.777,9.68394Z"/>
      <path d="M483.33266,415.29619c-6.73938-.63341-12.4283,4.67416-12.4283,11.28535h6.75632c0-2.96386,2.82978-5.27934,5.9302-4.38652,1.13236.32608,2.11733,1.11165,2.66774,2.15358.95009,1.79853.65274,3.8414-.55595,5.23313l-13.36882,14.08862c-1.08077,1.13896-1.68327,2.64922-1.68327,4.21934v.00053h22.92418v-6.73423h-9.54043l6.614-6.97029.19319-.21227c1.75863-1.93233,2.73324-4.45116,2.73324-7.06395h0c0-5.89843-4.36956-11.06134-10.24209-11.61328Z"/>
      <path d="M537.94669,415.29623c-6.73957-.63368-12.42874,4.67397-12.42874,11.28531h6.75632c0-2.95776,2.81814-5.2698,5.91105-4.39197,1.13514.32218,2.1241,1.10561,2.67964,2.14663.95998,1.79892.6644,3.84791-.54776,5.24601l-13.36923,14.08861c-1.08081,1.13896-1.68334,2.64925-1.68334,4.21941h0s22.92442,0,22.92442,0v-6.73423h-9.5402l6.614-6.97029.18933-.2078c1.76087-1.93266,2.73687-4.45304,2.73687-7.06759h0c0-5.89868-4.3696-11.06189-10.24236-11.61408Z"/>
    </g>
  </g>
  <g>
    <path class="cls-2" d="M545.67141,215.84193v129.77411h-5.20631v-50.78848c0-16.71722-13.55199-30.26921-30.26921-30.26921h-6.34346c-16.71722,0-30.26921,13.55199-30.26921,30.26921v41.1311h-5.30061v-50.62547c0-16.71722-13.55199-30.26921-30.26921-30.26921h-33.75939c-16.71722,0-30.26921,13.55199-30.26921,30.26921v55.45416h-5.20776v-16.42412c0-16.71722-13.55199-30.26921-30.26921-30.26921h-6.34506c-16.71722,0-30.26921,13.55199-30.26921,30.26921v4.05874h-6.24357c-16.71722,0-30.26921,13.55199-30.26921,30.26921v.00006c0,16.71722,13.55199,30.26921,30.26921,30.26921h6.8123c16.71722,0,30.26921-13.55199,30.26921-30.26921v-13.0752h5.20776v27.15892c0,16.71722,13.55199,30.26921,30.26921,30.26921h6.34506c16.71722,0,30.26921-13.55199,30.26921-30.26921v-74.19507h5.20615v40.13125c0,16.71722,13.55199,30.26921,30.26921,30.26921h33.85369c16.71722,0,30.26921-13.55199,30.26921-30.26921v-44.67326h5.20631v58.37149c0,16.71722,13.55199,30.26921,30.26921,30.26921h6.34346c16.71722,0,30.26921-13.55199,30.26921-30.26921v-106.29824c0-16.71722-13.55199-30.26921-30.26921-30.26921h-.56857Z"/>
    <path class="cls-1" d="M546.96374,151.08818h-35.2967c-16.3175,0-29.54545,13.22795-29.54545,29.54545v29.54551h-5.2076v-43.85849c0-16.3175-13.22795-29.54545-29.54545-29.54545h-7.79418c-16.3175,0-29.54545,13.22795-29.54545,29.54545v53.43293h-5.20615v-18.39398c0-16.3175-13.22795-29.54545-29.54545-29.54545h-7.79257c-16.3175,0-29.54545,13.22795-29.54545,29.54545v44.78811h-5.20776v-59.95221c0-16.3175-13.22795-29.54545-29.54545-29.54545h-7.79257c-16.3175,0-29.54545,13.22795-29.54545,29.54545v108.07208c0,16.3175,13.22795,29.54545,29.54545,29.54545h1.29249v-122.42211h5.2076v57.71112c0,16.3175,13.22795,29.54545,29.54545,29.54545h7.79257c16.3175,0,29.54545-13.22795,29.54545-29.54545v-57.71112h5.20776v18.87212c0,16.3175,13.22795,29.54545,29.54545,29.54545h7.79418c16.3175,0,29.54545-13.22795,29.54545-29.54545v-53.96813h5.20615v63.59168c0,16.3175,13.22795,29.54545,29.54545,29.54545h35.21925c16.3175,0,29.54545-13.22795,29.54545-29.54545v-19.70746h6.57753c16.3175,0,29.54545-13.22795,29.54545-29.54545v-.00006c0-16.3175-13.22795-29.54545-29.54545-29.54545Z"/>
  </g>
</svg>