<svg xmlns="http://www.w3.org/2000/svg" xmlns:xlink="http://www.w3.org/1999/xlink" width="833.114" height="188.978" viewBox="0 0 220.428 50"><defs><linearGradient id="b"><stop offset="0" style="stop-color:#5a9fd4;stop-opacity:1"/><stop offset="1" style="stop-color:#306998;stop-opacity:1"/></linearGradient><linearGradient id="a"><stop offset="0" style="stop-color:#ffe873;stop-opacity:1"/><stop offset="1" style="stop-color:#ffd43b;stop-opacity:1"/></linearGradient><linearGradient xlink:href="#a" id="c" x1="207.005" x2="220.203" y1="174.4" y2="191.96" gradientUnits="userSpaceOnUse"/><linearGradient xlink:href="#b" id="d" x1="234.347" x2="215.584" y1="199.722" y2="171.772" gradientUnits="userSpaceOnUse"/></defs><g style="display:inline;fill:#0d0d0d;fill-opacity:1"><path d="M172.984 44.999c1.056.5 2.39 1.315 3 1.926l1.612-2.149c-.685-.61-2.074-1.315-3.111-1.74zm-.814 4.963c1.037.463 2.37 1.26 2.963 1.852l1.593-2.167c-.686-.592-2.038-1.277-3.075-1.666zm.296 8.964 2.445 1.464a74 74 0 0 0 2.333-5.983l-2.148-1.481a56 56 0 0 1-2.63 6m7.13-16.002c-.537 2.093-1.574 4.168-2.889 5.408.63.334 1.76 1.093 2.26 1.538l.259-.297-.26 2.241h-1.833v2.427h1.519a81 81 0 0 1-.722 4.445l2.555.166.149-.907h4.815l-.093.166c-.185.241-.37.315-.666.315-.37 0-1-.018-1.741-.074.352.593.63 1.537.648 2.167.907.037 1.778.037 2.352-.074.648-.111 1.13-.315 1.593-.963.204-.278.389-.76.518-1.537h1.593v-2.278h-1.296l.11-1.426h1.427v-2.427h-1.296l.11-2.5c.02-.296.038-1.056.038-1.056h-8.594l.556-.944h8.778v-2.39h-7.723c.167-.462.334-.944.463-1.425zm1.982 7.612h1.111l-.11 1.278h-1.149zm3.39 0h1.24l-.055 1.278h-1.278zm-3.816 3.705h1.204l-.167 1.426h-1.222zm3.5 0h1.353l-.112 1.426h-1.407z" aria-label="海" style="font-weight:900;font-size:18.5208px;line-height:0;font-family:&quot;Ten Mincho Antique&quot;;-inkscape-font-specification:&quot;Ten Mincho Antique Heavy&quot;;letter-spacing:0;fill:#0d0d0d;fill-opacity:1;stroke-width:.264583;stroke-linecap:round;stroke-linejoin:bevel" transform="matrix(1.1574 0 0 1.1574 .645 -35.073)"/><path d="M156.383 47.629v7.297h3.352c-1.463 1.333-3.463 2.482-5.463 3.185.592.538 1.444 1.593 1.852 2.26 2.037-.87 3.982-2.241 5.537-3.89v4.057h2.816V56.37c1.592 1.686 3.593 3.149 5.648 4.038.426-.722 1.278-1.796 1.927-2.352-2.038-.685-4.094-1.834-5.575-3.13h3.519v-7.297h-5.52v-.778h6.983v-2.5h-6.982v-1.408h-2.816v1.407h-6.797v2.5h6.797v.779zm2.63 4.556h2.648v.76h-2.648zm5.464 0h2.76v.76h-2.76zm-5.464-2.575h2.648v.741h-2.648zm5.464 0h2.76v.741h-2.76z" aria-label="東" style="font-weight:900;font-size:18.5208px;line-height:0;font-family:&quot;Ten Mincho Antique&quot;;-inkscape-font-specification:&quot;Ten Mincho Antique Heavy&quot;;letter-spacing:0;fill:#0d0d0d;fill-opacity:1;stroke-width:.264583;stroke-linecap:round;stroke-linejoin:bevel" transform="matrix(1.1574 0 0 1.1574 .645 -35.073)"/><path d="M145.328 58.778h3.296V48.24h-3.296zm1.648-12.001c1.093 0 1.834-.667 1.834-1.704 0-1.019-.741-1.686-1.834-1.686-1.111 0-1.833.667-1.833 1.686 0 1.037.722 1.704 1.833 1.704" aria-label="i" style="font-weight:900;font-size:18.5208px;line-height:0;font-family:&quot;Ten Mincho Antique&quot;;-inkscape-font-specification:&quot;Ten Mincho Antique Heavy&quot;;letter-spacing:0;fill:#0d0d0d;fill-opacity:1;stroke-width:.264583;stroke-linecap:round;stroke-linejoin:bevel" transform="matrix(1.1574 0 0 1.1574 .645 -35.073)"/><path d="M133.717 58.778h3.296V51.74c.63-.61 1.074-.944 1.815-.944.834 0 1.223.407 1.223 1.87v6.112h3.296v-6.52c0-2.63-.981-4.277-3.278-4.277-1.426 0-2.5.722-3.37 1.574h-.056l-.24-1.315h-2.686z" aria-label="n" style="font-weight:900;font-size:18.5208px;line-height:0;font-family:&quot;Ten Mincho Antique&quot;;-inkscape-font-specification:&quot;Ten Mincho Antique Heavy&quot;;letter-spacing:0;fill:#0d0d0d;fill-opacity:1;stroke-width:.264583;stroke-linecap:round;stroke-linejoin:bevel" transform="matrix(1.1574 0 0 1.1574 .645 -35.073)"/><path d="M128.457 58.778h3.296V48.24h-3.296zm1.648-12.001c1.093 0 1.834-.667 1.834-1.704 0-1.019-.741-1.686-1.834-1.686-1.111 0-1.833.667-1.833 1.686 0 1.037.722 1.704 1.833 1.704" aria-label="i" style="font-weight:900;font-size:18.5208px;line-height:0;font-family:&quot;Ten Mincho Antique&quot;;-inkscape-font-specification:&quot;Ten Mincho Antique Heavy&quot;;letter-spacing:0;fill:#0d0d0d;fill-opacity:1;stroke-width:.264583;stroke-linecap:round;stroke-linejoin:bevel" transform="matrix(1.1574 0 0 1.1574 .645 -35.073)"/><path d="M110.997 58.778h3.296V51.74c.611-.648 1.186-.944 1.667-.944.834 0 1.223.407 1.223 1.87v6.112h3.296V51.74c.63-.648 1.204-.944 1.686-.944.833 0 1.203.407 1.203 1.87v6.112h3.297v-6.52c0-2.63-1-4.277-3.297-4.277-1.407 0-2.389.814-3.296 1.74-.537-1.13-1.426-1.74-2.89-1.74-1.426 0-2.333.722-3.204 1.592h-.055l-.24-1.333h-2.686z" aria-label="m" style="font-weight:900;font-size:18.5208px;line-height:0;font-family:&quot;Ten Mincho Antique&quot;;-inkscape-font-specification:&quot;Ten Mincho Antique Heavy&quot;;letter-spacing:0;fill:#0d0d0d;fill-opacity:1;stroke-width:.264583;stroke-linecap:round;stroke-linejoin:bevel" transform="matrix(1.1574 0 0 1.1574 .645 -35.073)"/><path d="M95.176 58.778h3.296V51.74c.63-.61 1.074-.944 1.815-.944.834 0 1.223.407 1.223 1.87v6.112h3.296v-6.52c0-2.63-.981-4.277-3.278-4.277-1.426 0-2.5.722-3.37 1.574h-.056l-.24-1.315h-2.686z" aria-label="n" style="font-weight:900;font-size:18.5208px;line-height:0;font-family:&quot;Ten Mincho Antique&quot;;-inkscape-font-specification:&quot;Ten Mincho Antique Heavy&quot;;letter-spacing:0;fill:#0d0d0d;fill-opacity:1;stroke-width:.264583;stroke-linecap:round;stroke-linejoin:bevel" transform="matrix(1.1574 0 0 1.1574 .645 -35.073)"/><path d="M88.79 59.037c2.667 0 5.149-2.037 5.149-5.537 0-3.482-2.482-5.52-5.15-5.52-2.685 0-5.166 2.038-5.166 5.52 0 3.5 2.481 5.537 5.167 5.537m0-2.667c-1.241 0-1.797-1.11-1.797-2.87 0-1.741.556-2.852 1.797-2.852 1.222 0 1.778 1.11 1.778 2.852 0 1.76-.556 2.87-1.778 2.87" aria-label="o" style="font-weight:900;font-size:18.5208px;line-height:0;font-family:&quot;Ten Mincho Antique&quot;;-inkscape-font-specification:&quot;Ten Mincho Antique Heavy&quot;;letter-spacing:0;fill:#0d0d0d;fill-opacity:1;stroke-width:.264583;stroke-linecap:round;stroke-linejoin:bevel" transform="matrix(1.1574 0 0 1.1574 .645 -35.073)"/><path d="M79.126 59.037c1.797 0 3.334-.685 4.5-2.037l-1.74-2.074c-.648.703-1.519 1.259-2.63 1.259-1.945 0-3.204-1.593-3.204-4.334 0-2.685 1.463-4.278 3.241-4.278.982 0 1.704.444 2.408 1.074l1.722-2.111c-.944-.963-2.389-1.797-4.186-1.797-3.5 0-6.574 2.63-6.574 7.223 0 4.668 2.963 7.075 6.463 7.075" aria-label="C" style="font-weight:900;font-size:18.5208px;line-height:0;font-family:&quot;Ten Mincho Antique&quot;;-inkscape-font-specification:&quot;Ten Mincho Antique Heavy&quot;;letter-spacing:0;fill:#0d0d0d;fill-opacity:1;stroke-width:.264583;stroke-linecap:round;stroke-linejoin:bevel" transform="matrix(1.1574 0 0 1.1574 .645 -35.073)"/><path d="M63.842 63.035c2.5 0 3.648-1.334 4.667-4.038l3.63-10.557h-3.148l-1.223 4.371c-.24 1-.481 1.982-.685 2.982h-.093c-.278-1.037-.5-2.019-.815-2.982l-1.407-4.37h-3.315l4.037 10.223-.148.537c-.24.74-.76 1.26-1.76 1.26-.24 0-.518-.093-.703-.13l-.593 2.5c.445.13.87.204 1.556.204" aria-label="y" style="font-weight:900;font-size:18.5208px;line-height:0;font-family:&quot;Ten Mincho Antique&quot;;-inkscape-font-specification:&quot;Ten Mincho Antique Heavy&quot;;letter-spacing:0;fill:#0d0d0d;fill-opacity:1;stroke-width:.264583;stroke-linecap:round;stroke-linejoin:bevel" transform="matrix(1.1574 0 0 1.1574 .645 -35.073)"/><path d="M50.614 58.778h3.315v-4.574h1.611c2.926 0 5.445-1.445 5.445-4.723 0-3.408-2.5-4.5-5.519-4.5h-4.852zm3.315-7.186V47.61h1.352c1.593 0 2.482.482 2.482 1.87 0 1.353-.778 2.112-2.39 2.112z" aria-label="P" style="font-weight:900;font-size:18.5208px;line-height:0;font-family:&quot;Ten Mincho Antique&quot;;-inkscape-font-specification:&quot;Ten Mincho Antique Heavy&quot;;letter-spacing:0;fill:#0d0d0d;fill-opacity:1;stroke-width:.264583;stroke-linecap:round;stroke-linejoin:bevel" transform="matrix(1.1574 0 0 1.1574 .645 -35.073)"/></g><g style="display:inline" transform="matrix(.83198 0 0 .90402 -146.558 -133.39)"><path d="M218.38 191.307c-1.937.573-4.394.555-5.992 0-.411 1.084-1.458 2.424.423 3.836.496.44 1.153.701 1.835.77 1.356.182 2.852-.159 3.818-1.088 1.113-1.115.941-2.475.069-3.59z" style="display:inline;fill:#fff;fill-opacity:1;stroke:none;stroke-width:.230614;stroke-linecap:round;stroke-linejoin:round"/><ellipse cx="214.099" cy="193.356" rx="1.64" ry="1.488" style="display:inline;fill:#000;fill-opacity:1;stroke:none;stroke-width:.476233;stroke-linecap:round;stroke-linejoin:bevel;stroke-dasharray:none;stroke-opacity:1"/><path d="M213.732 163.205c-.736.714-1.262 1.917.148 3.28-3.39-.351-2.667 2.698-1.245 3.332.59.262 1.168.387 1.804.52-.55.29-3.704.936-3.171 2.445.729 2.065 5.945 1.04 9.025.468.722-.134 1.493-.263 2.217-.133-.802.193-2.058.475-1.712 1.363.346.886 1.487 1.267 2.235 1.922-.756.163-1.98.036-2.113.859-.07.438.908 1.477 1.417 2.896-.667-.059-1.47-.569-1.883-.005-.304.414-.369.602-.342 3.309 0 0-1.568-1.186-2.287-.946-1.377.46-1.47 2.283-2.192 3.625-3.346.52-4.48 1.225-5.363 2.41-3.154-.98-5.913-1.37-9.102.156-2.439 1.167-2.514 3.184-2.533 3.699-.1 2.798 2.581 4.06 5.85 4.678 3.88.732 6.93.37 8.163.49-.618 2.381-3.835 2.582-5.026 2.641-1.206.06-6.788.018-7.356.35-.478.28-.433.91-.03 1.293h.001c1.474 1.4 12.875.95 16.179.886 4.916-.253 10.72-.911 14.63-3.655.6-.421.921-.724 1.16-1.016-2.322.737-4.173.755-6.227.854-1.002.13-1.739.208-2.361.038s-1.052-.638-1.297-1.357c-.16-.467-.353-1.454.78-2.259.584-.414 1.264-.598 1.782-.742.1-1.314.615-3.299.584-5.502-.233.033-.461.062-.695.105-.245.045-.486-.114-.453-.348.089-.633-.028-1.065-.233-1.384-.51-.732-1.464-.974-2.358-1.03q-.51.594-1.044 1.1c-.32.301-.82-.15-.5-.451 2.872-2.71 5.385-7.644 4.947-13.26-.034-.435.668-.449.7-.045a17.2 17.2 0 0 1-.307 4.807c.347-.22.685-.348 1.01-.395 1.255-.184 2.02.71 2.335 1.193.314-.25.662-.38.972-.443-.742-.907-.808-2.334-.643-3.647.14-1.122.458-2.055.766-2.636.06-.239 0-.402-.07-.495-.5-.67-1.15-1.188-1.855-1.673 2.397-.846 8.618-2.19 7.201-5.407-.638-1.448-2.181-.955-3.748-.679.003-.232.76-1.656-.24-2.47-1.215-.993-2.692.249-3.815.983-.242-1.28-1.222-2.454-2.654-2.448-1.176.005-2.374.754-2.84 4.624-.99-2.087-6.163-3.888-8.21-1.9m11.553.106c-.237 1.052-.942 3.765-.231 6.324.118.423-.53.603-.647.18-.876-3.157.069-6.342.256-6.696.203-.377.718-.238.622.192m3.307 1.855c-.871 1.235-1.563 2.538-1.87 3.99-.092.433-.741.3-.66-.126.239-1.557 1.1-2.888 1.954-4.21.324-.406.795.036.576.346m-11.712-.478c2.43.627 3.998 1.017 5.969 4.288.227.378-.349.724-.575.346-1.793-2.976-3.3-3.397-5.562-3.984-.427-.11-.254-.76.168-.65m15.714 1.658c-.076.022-2.164.304-4.431 2.886-.29.33-.794-.114-.504-.443.238-.272 2.397-2.665 4.828-3.105.326-.097.616.515.107.662m-11.078 3.164c.366.22.01.805-.365.562-2.235-1.458-4.633-1.038-4.793-1.01-.444.08-.541-.604-.119-.66a8.1 8.1 0 0 1 5.277 1.108m-.449 1.298c.439-.03.486.64.047.67-3.661.258-3.359.17-4.92.684-.417.138-.627-.501-.21-.638 1.255-.415 1.426-.465 5.083-.716m9.408 2.406c-.386.807-.539 1.827-.582 2.166-.174 1.386.03 2.833.735 3.417 1.602 1.328 3.439.722 3.86.556 1.076-1.13 1.499-2.707 1.707-3.822.071-.598.126-1.852-.124-2.035-.592-.434-1.15-.213-1.866.82-.068-.282-.135-1.14-.644-1.202-.37-.045-1.056.111-1.378 1.02-.108-.558-.129-1.063-.728-1.27-.35-.12-.732.081-.98.35m2.977 1.533c-.492 1.958-.515 2.256-.52 3.39-.002.426-.694.425-.699.007-.015-1.198-.022-1.552.541-3.559.17-.43.777-.23.678.162zm-1.89.134c-.3 1.509-.209 2.345-.193 2.498.047.437-.622.507-.668.07-.016-.15-.156-1.128.203-2.699.117-.514.768-.423.658.131m3.882.377c-.072.365-.457 1.873-1.065 2.612-.276.336-.81-.06-.52-.43.516-.663.657-1.517.897-2.299.147-.477.76-.248.688.117m-8.813 3.61c-.757.138-1.278.715-1.352.775-.179.664-.39 1.31-.635 1.928q.527-.24 1.022-.328c.965-.167 2.299.016 2.703 1.661.708-.57 1.562-1.161 2.526-.767.569.307.852.914.99 1.578.485-.36.976-.706 1.433-.697.723.015 1.346.422 1.855.957-.176-1.312-.422-2.635-.876-3.892a5 5 0 0 1-.73.143c-.212 1.575-1.254 2.06-2.036 1.907-1.49-.29-1.474-1.419-1.19-2.616-.304-.044-.888-.046-1.279.464a.336.336 0 0 1-.554-.034c-.298-.502-1.022-1.208-1.877-1.08m4.334.937c-.13.625-.114 1.029-.026 1.246.104.254.279.356.69.416.323.047.524-.017.687-.13.164-.111.292-.29.385-.491.094-.204.148-.42.178-.585a4.36 4.36 0 0 1-1.914-.456m-4.884 2.066c-.842.025-1.32.38-1.844.627-.185.402-.368.77-.577 1.146.66-.243 1.733-.44 2.65.303.502.407.794.936.869 1.537.91-.565 1.902-.954 2.884-.311.54.425.72 1.03.84 1.549 1.123-.682 2.264-.867 3.42-.156.438.311.78.734 1.053 1.212 0-.787-.018-1.652-.081-2.541-.194-.31-.497-.734-.879-1.06-.336-.286-.714-.48-1.111-.487-.398-.008-.855.156-1.4.718a.336.336 0 0 1-.575-.197c-.076-.703-.345-1.289-.723-1.467-.635-.3-1.595.392-2.195.92-.213.187-.557.04-.556-.244 0-.999-.773-1.58-1.775-1.55m-3.072 2.863q-.39.596-.809 1.136c.872.082 1.939.422 2.488 1.278.224.35.251.865.252 1.39.264-.045.53-.063.79-.12 1.056-.916 2.379-1.175 3.308-.7.473.242.816.69.906 1.26.055.35-.16.82-.289 1.253.73-.494 1.464-.994 2.024-1.136.76-.193 1.424-.068 1.81.34.385.407.454 1.003.303 1.639-.096.403-.441.845-.72 1.278.58-.134 1.113-.157 1.527.03.115-.29.625-1.871.714-2.587-.035-.084-.407-1.884-1.479-2.645-.376-.267-1.268-.755-2.982.367-.238.155-.571.032-.625-.232-.11-.536-.315-1.261-.685-1.553-.55-.433-1.494-.04-2.423.58-.279.186-.666-.019-.632-.334.03-.28-.142-1.093-.737-1.511-.85-.596-1.767-.397-2.741.267m-7.07 4.106c.528-.792 2.322-1.826 2.305.09.257-.176 1.554-.932 2.588-.342.295.168.434.57.36.941-.262 1.31-1.248 2.002-2.243 2.367.09.198.498 1.187-.048 2.265-.581 1.147-2.556 2.146-4.818 1.607-1.24-.296-2.566-1.824-2.156-3.216l.163-.552a3.2 3.2 0 0 1-.665-.334c-.762-.515-.9-1.286-.903-1.89-.006-1.614 1.921-2.08 2.794-.485.327-.75.868-1.65 1.647-1.648.823.002.924.537.976 1.197m9.48 5.983c.837.726 1.134 1.697 1.079 2.476-.027.38-.103.718-.175.97 2.488-.114 4.596-.134 7.701-1.615.496-.236.973-.648 1.224-1.165.368-.756-.213-2.192-.958-2.53-.377-.17-.906-.185-1.746.211-.337.159-.67-.222-.43-.491.547-.613.872-1.232.994-1.742.121-.51.035-.886-.146-1.078-.835-.883-3.327 1.067-3.577 1.267-.288.227-.708-.071-.542-.385.2-.381.924-1.91-.145-2.46-.493-.254-1.76-.124-2.585.733.09 2.187-.499 4.354-.694 5.81m-10.4-6.518c-.338-.028-1.115.498-1.449 2.117-.09.438-.736.317-.66-.123.228-1.33-1.723-1.91-1.717-.526.002.532.054.962.61 1.336s1.716.676 3.943.62c1.22-.031 2.365-.19 3.215-.557.85-.366 1.435-.986 1.572-1.774.067-.383-.496-.401-.68-.398-.54.01-1.266.284-1.736.85-.233.28-.681.044-.582-.307.155-.548.16-1.054-.028-1.097-.108-.026-.673.134-1.51 1.323-.202.287-.653.112-.608-.236.015-.118.14-1.186-.37-1.228m12.1 6.187c-.225.38-.802.034-.576-.343a8.2 8.2 0 0 0 1.031-2.98c.057-.436.716-.382.659.114-.18 1.559-.99 2.971-1.114 3.21m4.703-2.945c-1.66 2.576-2.237 3.238-3.804 4.459-.348.27-.76-.262-.413-.531.181-.14 2.061-1.713 3.633-4.26.237-.383.821-.036.584.332m1.577 2.935c-2.5 2.076-4.672 2.644-4.905 2.704-.425.108-.592-.548-.166-.65.238-.058 2.108-.528 4.65-2.577.34-.274.764.238.42.523m-9.869 1.377c-.744.528-.693 1.11-.54 1.555.209.613.423.824.827.934.362.1.957.072 1.784-.026.07-.197.186-.597.227-1.072.07-.804-.219-1.473-.821-2.043-.31.032-.793.166-1.477.652m-2.339 1.362c-.016.63-1.394 1.265-2.109 1.676.593-.038 2.3-.074 2.526.736.067.243-.039.49-.196.668-.525.59-2.003 1.052-3.32 1.363-.428.1-.581-.552-.155-.652.48-.114 3.104-.893 3.012-1.204-.076-.252-1.073-.426-3.045-.255-.35.03-.507-.428-.21-.618 1.194-.764 2.707-1.42 2.632-1.582-.115-.25-2.313-.066-3.017-.039-.441.017-.463-.621-.026-.67 1.52-.167 3.932-.338 3.908.577" style="display:inline;fill:url(#c);stroke-width:.697402"/></g><g style="display:inline" transform="matrix(-.83198 0 0 -.90402 196.558 183.391)"><path d="M218.38 191.307c-1.937.573-4.394.555-5.992 0-.411 1.084-1.458 2.424.423 3.836.496.44 1.153.701 1.835.77 1.356.182 2.852-.159 3.818-1.088 1.113-1.115.941-2.475.069-3.59z" style="display:inline;fill:#fff;fill-opacity:1;stroke:none;stroke-width:.230614;stroke-linecap:round;stroke-linejoin:round"/><ellipse cx="214.099" cy="193.356" rx="1.64" ry="1.488" style="display:inline;fill:#000;fill-opacity:1;stroke:none;stroke-width:.476233;stroke-linecap:round;stroke-linejoin:bevel;stroke-dasharray:none;stroke-opacity:1"/><path d="M213.732 163.205c-.736.714-1.262 1.917.148 3.28-3.39-.351-2.667 2.698-1.245 3.332.59.262 1.168.387 1.804.52-.55.29-3.704.936-3.171 2.445.729 2.065 5.945 1.04 9.025.468.722-.134 1.493-.263 2.217-.133-.802.193-2.058.475-1.712 1.363.346.886 1.487 1.267 2.235 1.922-.756.163-1.98.036-2.113.859-.07.438.908 1.477 1.417 2.896-.667-.059-1.47-.569-1.883-.005-.304.414-.369.602-.342 3.309 0 0-1.568-1.186-2.287-.946-1.377.46-1.47 2.283-2.192 3.625-3.346.52-4.48 1.225-5.363 2.41-3.154-.98-5.913-1.37-9.102.156-2.439 1.167-2.514 3.184-2.533 3.699-.1 2.798 2.581 4.06 5.85 4.678 3.88.732 6.93.37 8.163.49-.618 2.381-3.835 2.582-5.026 2.641-1.206.06-6.788.018-7.356.35-.478.28-.433.91-.03 1.293h.001c1.474 1.4 12.875.95 16.179.886 4.916-.253 10.72-.911 14.63-3.655.6-.421.921-.724 1.16-1.016-2.322.737-4.173.755-6.227.854-1.002.13-1.739.208-2.361.038s-1.052-.638-1.297-1.357c-.16-.467-.353-1.454.78-2.259.584-.414 1.264-.598 1.782-.742.1-1.314.615-3.299.584-5.502-.233.033-.461.062-.695.105-.245.045-.486-.114-.453-.348.089-.633-.028-1.065-.233-1.384-.51-.732-1.464-.974-2.358-1.03q-.51.594-1.044 1.1c-.32.301-.82-.15-.5-.451 2.872-2.71 5.385-7.644 4.947-13.26-.034-.435.668-.449.7-.045a17.2 17.2 0 0 1-.307 4.807c.347-.22.685-.348 1.01-.395 1.255-.184 2.02.71 2.335 1.193.314-.25.662-.38.972-.443-.742-.907-.808-2.334-.643-3.647.14-1.122.458-2.055.766-2.636.06-.239 0-.402-.07-.495-.5-.67-1.15-1.188-1.855-1.673 2.397-.846 8.618-2.19 7.201-5.407-.638-1.448-2.181-.955-3.748-.679.003-.232.76-1.656-.24-2.47-1.215-.993-2.692.249-3.815.983-.242-1.28-1.222-2.454-2.654-2.448-1.176.005-2.374.754-2.84 4.624-.99-2.087-6.163-3.888-8.21-1.9m11.553.106c-.237 1.052-.942 3.765-.231 6.324.118.423-.53.603-.647.18-.876-3.157.069-6.342.256-6.696.203-.377.718-.238.622.192m3.307 1.855c-.871 1.235-1.563 2.538-1.87 3.99-.092.433-.741.3-.66-.126.239-1.557 1.1-2.888 1.954-4.21.324-.406.795.036.576.346m-11.712-.478c2.43.627 3.998 1.017 5.969 4.288.227.378-.349.724-.575.346-1.793-2.976-3.3-3.397-5.562-3.984-.427-.11-.254-.76.168-.65m15.714 1.658c-.076.022-2.164.304-4.431 2.886-.29.33-.794-.114-.504-.443.238-.272 2.397-2.665 4.828-3.105.326-.097.616.515.107.662m-11.078 3.164c.366.22.01.805-.365.562-2.235-1.458-4.633-1.038-4.793-1.01-.444.08-.541-.604-.119-.66a8.1 8.1 0 0 1 5.277 1.108m-.449 1.298c.439-.03.486.64.047.67-3.661.258-3.359.17-4.92.684-.417.138-.627-.501-.21-.638 1.255-.415 1.426-.465 5.083-.716m9.408 2.406c-.386.807-.539 1.827-.582 2.166-.174 1.386.03 2.833.735 3.417 1.602 1.328 3.439.722 3.86.556 1.076-1.13 1.499-2.707 1.707-3.822.071-.598.126-1.852-.124-2.035-.592-.434-1.15-.213-1.866.82-.068-.282-.135-1.14-.644-1.202-.37-.045-1.056.111-1.378 1.02-.108-.558-.129-1.063-.728-1.27-.35-.12-.732.081-.98.35m2.977 1.533c-.492 1.958-.515 2.256-.52 3.39-.002.426-.694.425-.699.007-.015-1.198-.022-1.552.541-3.559.17-.43.777-.23.678.162zm-1.89.134c-.3 1.509-.209 2.345-.193 2.498.047.437-.622.507-.668.07-.016-.15-.156-1.128.203-2.699.117-.514.768-.423.658.131m3.882.377c-.072.365-.457 1.873-1.065 2.612-.276.336-.81-.06-.52-.43.516-.663.657-1.517.897-2.299.147-.477.76-.248.688.117m-8.813 3.61c-.757.138-1.278.715-1.352.775-.179.664-.39 1.31-.635 1.928q.527-.24 1.022-.328c.965-.167 2.299.016 2.703 1.661.708-.57 1.562-1.161 2.526-.767.569.307.852.914.99 1.578.485-.36.976-.706 1.433-.697.723.015 1.346.422 1.855.957-.176-1.312-.422-2.635-.876-3.892a5 5 0 0 1-.73.143c-.212 1.575-1.254 2.06-2.036 1.907-1.49-.29-1.474-1.419-1.19-2.616-.304-.044-.888-.046-1.279.464a.336.336 0 0 1-.554-.034c-.298-.502-1.022-1.208-1.877-1.08m4.334.937c-.13.625-.114 1.029-.026 1.246.104.254.279.356.69.416.323.047.524-.017.687-.13.164-.111.292-.29.385-.491.094-.204.148-.42.178-.585a4.36 4.36 0 0 1-1.914-.456m-4.884 2.066c-.842.025-1.32.38-1.844.627-.185.402-.368.77-.577 1.146.66-.243 1.733-.44 2.65.303.502.407.794.936.869 1.537.91-.565 1.902-.954 2.884-.311.54.425.72 1.03.84 1.549 1.123-.682 2.264-.867 3.42-.156.438.311.78.734 1.053 1.212 0-.787-.018-1.652-.081-2.541-.194-.31-.497-.734-.879-1.06-.336-.286-.714-.48-1.111-.487-.398-.008-.855.156-1.4.718a.336.336 0 0 1-.575-.197c-.076-.703-.345-1.289-.723-1.467-.635-.3-1.595.392-2.195.92-.213.187-.557.04-.556-.244 0-.999-.773-1.58-1.775-1.55m-3.072 2.863q-.39.596-.809 1.136c.872.082 1.939.422 2.488 1.278.224.35.251.865.252 1.39.264-.045.53-.063.79-.12 1.056-.916 2.379-1.175 3.308-.7.473.242.816.69.906 1.26.055.35-.16.82-.289 1.253.73-.494 1.464-.994 2.024-1.136.76-.193 1.424-.068 1.81.34.385.407.454 1.003.303 1.639-.096.403-.441.845-.72 1.278.58-.134 1.113-.157 1.527.03.115-.29.625-1.871.714-2.587-.035-.084-.407-1.884-1.479-2.645-.376-.267-1.268-.755-2.982.367-.238.155-.571.032-.625-.232-.11-.536-.315-1.261-.685-1.553-.55-.433-1.494-.04-2.423.58-.279.186-.666-.019-.632-.334.03-.28-.142-1.093-.737-1.511-.85-.596-1.767-.397-2.741.267m-7.07 4.106c.528-.792 2.322-1.826 2.305.09.257-.176 1.554-.932 2.588-.342.295.168.434.57.36.941-.262 1.31-1.248 2.002-2.243 2.367.09.198.498 1.187-.048 2.265-.581 1.147-2.556 2.146-4.818 1.607-1.24-.296-2.566-1.824-2.156-3.216l.163-.552a3.2 3.2 0 0 1-.665-.334c-.762-.515-.9-1.286-.903-1.89-.006-1.614 1.921-2.08 2.794-.485.327-.75.868-1.65 1.647-1.648.823.002.924.537.976 1.197m9.48 5.983c.837.726 1.134 1.697 1.079 2.476-.027.38-.103.718-.175.97 2.488-.114 4.596-.134 7.701-1.615.496-.236.973-.648 1.224-1.165.368-.756-.213-2.192-.958-2.53-.377-.17-.906-.185-1.746.211-.337.159-.67-.222-.43-.491.547-.613.872-1.232.994-1.742.121-.51.035-.886-.146-1.078-.835-.883-3.327 1.067-3.577 1.267-.288.227-.708-.071-.542-.385.2-.381.924-1.91-.145-2.46-.493-.254-1.76-.124-2.585.733.09 2.187-.499 4.354-.694 5.81m-10.4-6.518c-.338-.028-1.115.498-1.449 2.117-.09.438-.736.317-.66-.123.228-1.33-1.723-1.91-1.717-.526.002.532.054.962.61 1.336s1.716.676 3.943.62c1.22-.031 2.365-.19 3.215-.557.85-.366 1.435-.986 1.572-1.774.067-.383-.496-.401-.68-.398-.54.01-1.266.284-1.736.85-.233.28-.681.044-.582-.307.155-.548.16-1.054-.028-1.097-.108-.026-.673.134-1.51 1.323-.202.287-.653.112-.608-.236.015-.118.14-1.186-.37-1.228m12.1 6.187c-.225.38-.802.034-.576-.343a8.2 8.2 0 0 0 1.031-2.98c.057-.436.716-.382.659.114-.18 1.559-.99 2.971-1.114 3.21m4.703-2.945c-1.66 2.576-2.237 3.238-3.804 4.459-.348.27-.76-.262-.413-.531.181-.14 2.061-1.713 3.633-4.26.237-.383.821-.036.584.332m1.577 2.935c-2.5 2.076-4.672 2.644-4.905 2.704-.425.108-.592-.548-.166-.65.238-.058 2.108-.528 4.65-2.577.34-.274.764.238.42.523m-9.869 1.377c-.744.528-.693 1.11-.54 1.555.209.613.423.824.827.934.362.1.957.072 1.784-.026.07-.197.186-.597.227-1.072.07-.804-.219-1.473-.821-2.043-.31.032-.793.166-1.477.652m-2.339 1.362c-.016.63-1.394 1.265-2.109 1.676.593-.038 2.3-.074 2.526.736.067.243-.039.49-.196.668-.525.59-2.003 1.052-3.32 1.363-.428.1-.581-.552-.155-.652.48-.114 3.104-.893 3.012-1.204-.076-.252-1.073-.426-3.045-.255-.35.03-.507-.428-.21-.618 1.194-.764 2.707-1.42 2.632-1.582-.115-.25-2.313-.066-3.017-.039-.441.017-.463-.621-.026-.67 1.52-.167 3.932-.338 3.908.577" style="display:inline;fill:url(#d);stroke-width:.697402"/></g></svg>