<svg version="1.1" viewBox="0.0 0.0 600.0 371.0" fill="none" stroke="none" stroke-linecap="square" stroke-miterlimit="10" width="600" height="371" xmlns:xlink="http://www.w3.org/1999/xlink" xmlns="http://www.w3.org/2000/svg"><path fill="#ffffff" d="M0 0L600.0 0L600.0 371.0L0 371.0L0 0Z" fill-rule="nonzero"/><path stroke="#333333" stroke-width="1.0" stroke-linecap="butt" d="M84.5 300.5L581.5 300.5" fill-rule="nonzero"/><path stroke="#cccccc" stroke-width="1.0" stroke-linecap="butt" d="M84.5 245.5L581.5 245.5" fill-rule="nonzero"/><path stroke="#cccccc" stroke-width="1.0" stroke-linecap="butt" d="M84.5 190.5L581.5 190.5" fill-rule="nonzero"/><path stroke="#cccccc" stroke-width="1.0" stroke-linecap="butt" d="M84.5 135.5L581.5 135.5" fill-rule="nonzero"/><path stroke="#cccccc" stroke-width="1.0" stroke-linecap="butt" d="M84.5 80.5L581.5 80.5" fill-rule="nonzero"/><path stroke="#cccccc" stroke-width="1.0" stroke-linecap="butt" d="M84.5 25.5L581.5 25.5" fill-rule="nonzero"/><clipPath id="id_0"><path d="M84.55 25.55L581.45 25.55L581.45 300.45L84.55 300.45L84.55 25.55Z" clip-rule="nonzero"/></clipPath><path stroke="#000000" stroke-width="2.0" stroke-linecap="butt" stroke-opacity="0.0" clip-path="url(#id_0)" d="M133.0 300.0L102.0 300.0L102.0 273.0C102.0 271.89542 102.89543 271.0 104.0 271.0L131.0 271.0C132.10457 271.0 133.0 271.89542 133.0 273.0Z" fill-rule="nonzero"/><path fill="#4285f4" clip-path="url(#id_0)" d="M133.0 300.0L102.0 300.0L102.0 273.0C102.0 271.89542 102.89543 271.0 104.0 271.0L131.0 271.0C132.10457 271.0 133.0 271.89542 133.0 273.0Z" fill-rule="nonzero"/><path stroke="#000000" stroke-width="2.0" stroke-linecap="butt" stroke-opacity="0.0" clip-path="url(#id_0)" d="M181.0 300.0L150.0 300.0L150.0 248.0C150.0 246.89543 150.89543 246.0 152.0 246.0L179.0 246.0C180.10457 246.0 181.0 246.89543 181.0 248.0Z" fill-rule="nonzero"/><path fill="#4285f4" clip-path="url(#id_0)" d="M181.0 300.0L150.0 300.0L150.0 248.0C150.0 246.89543 150.89543 246.0 152.0 246.0L179.0 246.0C180.10457 246.0 181.0 246.89543 181.0 248.0Z" fill-rule="nonzero"/><path stroke="#000000" stroke-width="2.0" stroke-linecap="butt" stroke-opacity="0.0" clip-path="url(#id_0)" d="M229.0 300.0L198.0 300.0L198.0 197.0C198.0 195.89543 198.89543 195.0 200.0 195.0L227.0 195.0C228.10457 195.0 229.0 195.89543 229.0 197.0Z" fill-rule="nonzero"/><path fill="#4285f4" clip-path="url(#id_0)" d="M229.0 300.0L198.0 300.0L198.0 197.0C198.0 195.89543 198.89543 195.0 200.0 195.0L227.0 195.0C228.10457 195.0 229.0 195.89543 229.0 197.0Z" fill-rule="nonzero"/><path stroke="#000000" stroke-width="2.0" stroke-linecap="butt" stroke-opacity="0.0" clip-path="url(#id_0)" d="M277.0 300.0L246.0 300.0L246.0 189.0C246.0 187.89543 246.89543 187.0 248.0 187.0L275.0 187.0C276.10458 187.0 277.0 187.89543 277.0 189.0Z" fill-rule="nonzero"/><path fill="#4285f4" clip-path="url(#id_0)" d="M277.0 300.0L246.0 300.0L246.0 189.0C246.0 187.89543 246.89543 187.0 248.0 187.0L275.0 187.0C276.10458 187.0 277.0 187.89543 277.0 189.0Z" fill-rule="nonzero"/><path stroke="#000000" stroke-width="2.0" stroke-linecap="butt" stroke-opacity="0.0" clip-path="url(#id_0)" d="M325.0 300.0L294.0 300.0L294.0 183.0C294.0 181.89543 294.89542 181.0 296.0 181.0L323.0 181.0C324.10458 181.0 325.0 181.89543 325.0 183.0Z" fill-rule="nonzero"/><path fill="#4285f4" clip-path="url(#id_0)" d="M325.0 300.0L294.0 300.0L294.0 183.0C294.0 181.89543 294.89542 181.0 296.0 181.0L323.0 181.0C324.10458 181.0 325.0 181.89543 325.0 183.0Z" fill-rule="nonzero"/><path stroke="#000000" stroke-width="2.0" stroke-linecap="butt" stroke-opacity="0.0" clip-path="url(#id_0)" d="M373.0 300.0L342.0 300.0L342.0 170.0C342.0 168.89543 342.89542 168.0 344.0 168.0L371.0 168.0C372.10458 168.0 373.0 168.89543 373.0 170.0Z" fill-rule="nonzero"/><path fill="#4285f4" clip-path="url(#id_0)" d="M373.0 300.0L342.0 300.0L342.0 170.0C342.0 168.89543 342.89542 168.0 344.0 168.0L371.0 168.0C372.10458 168.0 373.0 168.89543 373.0 170.0Z" fill-rule="nonzero"/><path stroke="#000000" stroke-width="2.0" stroke-linecap="butt" stroke-opacity="0.0" clip-path="url(#id_0)" d="M421.0 300.0L390.0 300.0L390.0 144.0C390.0 142.89543 390.89542 142.0 392.0 142.0L419.0 142.0C420.10458 142.0 421.0 142.89543 421.0 144.0Z" fill-rule="nonzero"/><path fill="#4285f4" clip-path="url(#id_0)" d="M421.0 300.0L390.0 300.0L390.0 144.0C390.0 142.89543 390.89542 142.0 392.0 142.0L419.0 142.0C420.10458 142.0 421.0 142.89543 421.0 144.0Z" fill-rule="nonzero"/><path stroke="#000000" stroke-width="2.0" stroke-linecap="butt" stroke-opacity="0.0" clip-path="url(#id_0)" d="M469.0 300.0L438.0 300.0L438.0 150.0C438.0 148.89543 438.89542 148.0 440.0 148.0L467.0 148.0C468.10458 148.0 469.0 148.89543 469.0 150.0Z" fill-rule="nonzero"/><path fill="#4285f4" clip-path="url(#id_0)" d="M469.0 300.0L438.0 300.0L438.0 150.0C438.0 148.89543 438.89542 148.0 440.0 148.0L467.0 148.0C468.10458 148.0 469.0 148.89543 469.0 150.0Z" fill-rule="nonzero"/><path stroke="#000000" stroke-width="2.0" stroke-linecap="butt" stroke-opacity="0.0" clip-path="url(#id_0)" d="M517.0 300.0L486.0 300.0L486.0 50.0C486.0 48.89543 486.89542 48.0 488.0 48.0L515.0 48.0C516.10455 48.0 517.0 48.89543 517.0 50.0Z" fill-rule="nonzero"/><path fill="#4285f4" clip-path="url(#id_0)" d="M517.0 300.0L486.0 300.0L486.0 50.0C486.0 48.89543 486.89542 48.0 488.0 48.0L515.0 48.0C516.10455 48.0 517.0 48.89543 517.0 50.0Z" fill-rule="nonzero"/><path stroke="#000000" stroke-width="2.0" stroke-linecap="butt" stroke-opacity="0.0" clip-path="url(#id_0)" d="M565.0 300.0L534.0 300.0L534.0 47.0C534.0 45.89543 534.89545 45.0 536.0 45.0L563.0 45.0C564.10455 45.0 565.0 45.89543 565.0 47.0Z" fill-rule="nonzero"/><path fill="#4285f4" clip-path="url(#id_0)" d="M565.0 300.0L534.0 300.0L534.0 47.0C534.0 45.89543 534.89545 45.0 536.0 45.0L563.0 45.0C564.10455 45.0 565.0 45.89543 565.0 47.0Z" fill-rule="nonzero"/><path fill="#000000" d="M322.25 351.84064L322.125 350.85626Q322.46875 350.95 322.73438 350.95Q323.07812 350.95 323.28125 350.825Q323.5 350.71564 323.64062 350.5125Q323.73438 350.34064 323.96875 349.71564Q323.98438 349.6375 324.0625 349.46564L321.6875 343.23126L322.82812 343.23126L324.125 346.825Q324.375 347.5125 324.57812 348.27814Q324.76562 347.54376 325.01562 346.85626L326.34375 343.23126L327.39062 343.23126L325.03125 349.5594Q324.64062 350.575 324.4375 350.96564Q324.15625 351.4969 323.78125 351.73126Q323.42188 351.98126 322.92188 351.98126Q322.625 351.98126 322.25 351.84064ZM331.54688 347.45L332.64062 347.575Q332.39062 348.52814 331.6875 349.0594Q330.98438 349.59064 329.90625 349.59064Q328.54688 349.59064 327.73438 348.7469Q326.9375 347.90314 326.9375 346.3875Q326.9375 344.825 327.75 343.96564Q328.5625 343.09064 329.84375 343.09064Q331.09375 343.09064 331.875 343.9344Q332.67188 344.77814 332.67188 346.325Q332.67188 346.41876 332.67188 346.60626L328.03125 346.60626Q328.09375 347.6375 328.60938 348.1844Q329.125 348.71564 329.90625 348.71564Q330.48438 348.71564 330.89062 348.41876Q331.3125 348.10626 331.54688 347.45ZM328.09375 345.7469L331.5625 345.7469Q331.5 344.95 331.17188 344.5594Q330.65625 343.95 329.85938 343.95Q329.125 343.95 328.625 344.4344Q328.14062 344.91876 328.09375 345.7469ZM338.35938 348.6844Q337.76562 349.1844 337.21875 349.3875Q336.6875 349.59064 336.0625 349.59064Q335.03125 349.59064 334.48438 349.09064Q333.9375 348.59064 333.9375 347.8094Q333.9375 347.35626 334.14062 346.98126Q334.34375 346.59064 334.6875 346.3719Q335.03125 346.1375 335.45312 346.02814Q335.75 345.9344 336.39062 345.85626Q337.65625 345.71564 338.26562 345.4969Q338.26562 345.27814 338.26562 345.23126Q338.26562 344.575 337.96875 344.3094Q337.5625 343.96564 336.76562 343.96564Q336.03125 343.96564 335.67188 344.23126Q335.3125 344.48126 335.14062 345.1375L334.10938 344.9969Q334.25 344.34064 334.57812 343.9344Q334.90625 343.52814 335.51562 343.3094Q336.125 343.09064 336.92188 343.09064Q337.71875 343.09064 338.21875 343.27814Q338.71875 343.46564 338.95312 343.7469Q339.1875 344.02814 339.28125 344.46564Q339.32812 344.73126 339.32812 345.4344L339.32812 346.84064Q339.32812 348.3094 339.39062 348.7Q339.46875 349.09064 339.67188 349.45L338.5625 349.45Q338.40625 349.1219 338.35938 348.6844ZM338.26562 346.325Q337.6875 346.5594 336.54688 346.73126Q335.89062 346.825 335.625 346.95Q335.35938 347.0594 335.20312 347.27814Q335.0625 347.4969 335.0625 347.77814Q335.0625 348.2 335.375 348.48126Q335.70312 348.7625 336.3125 348.7625Q336.92188 348.7625 337.39062 348.4969Q337.875 348.23126 338.09375 347.7625Q338.26562 347.40314 338.26562 346.71564L338.26562 346.325ZM341.28125 349.45L341.28125 343.23126L342.23438 343.23126L342.23438 344.16876Q342.59375 343.5125 342.89062 343.3094Q343.20312 343.09064 343.57812 343.09064Q344.10938 343.09064 344.65625 343.41876L344.29688 344.40314Q343.90625 344.16876 343.53125 344.16876Q343.17188 344.16876 342.89062 344.3875Q342.625 344.59064 342.51562 344.96564Q342.32812 345.52814 342.32812 346.1844L342.32812 349.45L341.28125 349.45Z" fill-rule="nonzero"/><path fill="#000000" d="M31.940638 200.70312L23.331263 200.70312L23.331263 199.75L24.128138 199.75Q23.659388 199.40625 23.425013 198.98438Q23.190638 198.54688 23.190638 197.9375Q23.190638 197.14062 23.596888 196.53125Q24.003138 195.92188 24.753138 195.625Q25.503138 195.3125 26.393763 195.3125Q27.346888 195.3125 28.112513 195.65625Q28.878138 195.98438 29.284388 196.64062Q29.690638 197.29688 29.690638 198.01562Q29.690638 198.54688 29.471888 198.96875Q29.237513 199.39062 28.909388 199.65625L31.940638 199.65625L31.940638 200.70312ZM26.471888 199.75Q27.675013 199.75 28.253138 199.26562Q28.815638 198.78125 28.815638 198.09375Q28.815638 197.39062 28.221888 196.89062Q27.628138 196.39062 26.378138 196.39062Q25.190638 196.39062 24.612513 196.875Q24.018763 197.35938 24.018763 198.04688Q24.018763 198.71875 24.643763 199.23438Q25.268763 199.75 26.471888 199.75ZM28.784388 189.64062Q29.284388 190.23438 29.487513 190.78125Q29.690638 191.3125 29.690638 191.9375Q29.690638 192.96875 29.190638 193.51562Q28.690638 194.0625 27.909388 194.0625Q27.456263 194.0625 27.081263 193.85938Q26.690638 193.65625 26.471888 193.3125Q26.237513 192.96875 26.128138 192.54688Q26.034388 192.25 25.956263 191.60938Q25.815638 190.34375 25.596888 189.73438Q25.378138 189.73438 25.331263 189.73438Q24.675013 189.73438 24.409388 190.03125Q24.065638 190.4375 24.065638 191.23438Q24.065638 191.96875 24.331263 192.32812Q24.581263 192.6875 25.237513 192.85938L25.096888 193.89062Q24.440638 193.75 24.034388 193.42188Q23.628138 193.09375 23.409388 192.48438Q23.190638 191.875 23.190638 191.07812Q23.190638 190.28125 23.378138 189.78125Q23.565638 189.28125 23.846888 189.04688Q24.128138 188.8125 24.565638 188.71875Q24.831263 188.67188 25.534388 188.67188L26.940638 188.67188Q28.409388 188.67188 28.800013 188.60938Q29.190638 188.53125 29.550013 188.32812L29.550013 189.4375Q29.221888 189.59375 28.784388 189.64062ZM26.425013 189.73438Q26.659388 190.3125 26.831263 191.45312Q26.925013 192.10938 27.050013 192.375Q27.159388 192.64062 27.378138 192.79688Q27.596888 192.9375 27.878138 192.9375Q28.300013 192.9375 28.581263 192.625Q28.862513 192.29688 28.862513 191.6875Q28.862513 191.07812 28.596888 190.60938Q28.331263 190.125 27.862513 189.90625Q27.503138 189.73438 26.815638 189.73438L26.425013 189.73438ZM29.550013 186.71875L23.331263 186.71875L23.331263 185.76562L24.268763 185.76562Q23.612513 185.40625 23.409388 185.10938Q23.190638 184.79688 23.190638 184.42188Q23.190638 183.89062 23.518763 183.34375L24.503138 183.70312Q24.268763 184.09375 24.268763 184.46875Q24.268763 184.82812 24.487513 185.10938Q24.690638 185.375 25.065638 185.48438Q25.628138 185.67188 26.284388 185.67188L29.550013 185.67188L29.550013 186.71875ZM28.612513 180.40625L29.534388 180.25Q29.628138 180.70312 29.628138 181.04688Q29.628138 181.625 29.456263 181.9375Q29.268763 182.25 28.971888 182.39062Q28.675013 182.51562 27.721888 182.51562L24.143763 182.51562L24.143763 183.28125L23.331263 183.28125L23.331263 182.51562L21.784388 182.51562L21.159388 181.46875L23.331263 181.46875L23.331263 180.40625L24.143763 180.40625L24.143763 181.46875L27.784388 181.46875Q28.237513 181.46875 28.362513 181.42188Q28.487513 181.35938 28.565638 181.23438Q28.643763 181.10938 28.643763 180.875Q28.643763 180.6875 28.612513 180.40625ZM22.175013 179.70312L20.956263 179.70312L20.956263 178.64062L22.175013 178.64062L22.175013 179.70312ZM29.550013 179.70312L23.331263 179.70312L23.331263 178.64062L29.550013 178.64062L29.550013 179.70312ZM27.268763 172.64062L27.409388 171.60938Q28.471888 171.78125 29.081263 172.48438Q29.690638 173.1875 29.690638 174.20312Q29.690638 175.48438 28.862513 176.26562Q28.018763 177.03125 26.456263 177.03125Q25.456263 177.03125 24.706263 176.70312Q23.940638 176.35938 23.565638 175.6875Q23.190638 175.0 23.190638 174.1875Q23.190638 173.1875 23.706263 172.54688Q24.206263 171.89062 25.159388 171.70312L25.315638 172.73438Q24.690638 172.875 24.378138 173.25Q24.050013 173.625 24.050013 174.15625Q24.050013 174.95312 24.628138 175.45312Q25.190638 175.95312 26.425013 175.95312Q27.690638 175.95312 28.253138 175.46875Q28.815638 174.98438 28.815638 174.21875Q28.815638 173.59375 28.440638 173.1875Q28.065638 172.76562 27.268763 172.64062ZM22.175013 170.70312L20.956263 170.70312L20.956263 169.64062L22.175013 169.64062L22.175013 170.70312ZM29.550013 170.70312L23.331263 170.70312L23.331263 169.64062L29.550013 169.64062L29.550013 170.70312ZM31.940638 167.70312L23.331263 167.70312L23.331263 166.75L24.128138 166.75Q23.659388 166.40625 23.425013 165.98438Q23.190638 165.54688 23.190638 164.9375Q23.190638 164.14062 23.596888 163.53125Q24.003138 162.92188 24.753138 162.625Q25.503138 162.3125 26.393763 162.3125Q27.346888 162.3125 28.112513 162.65625Q28.878138 162.98438 29.284388 163.64062Q29.690638 164.29688 29.690638 165.01562Q29.690638 165.54688 29.471888 165.96875Q29.237513 166.39062 28.909388 166.65625L31.940638 166.65625L31.940638 167.70312ZM26.471888 166.75Q27.675013 166.75 28.253138 166.26562Q28.815638 165.78125 28.815638 165.09375Q28.815638 164.39062 28.221888 163.89062Q27.628138 163.39062 26.378138 163.39062Q25.190638 163.39062 24.612513 163.875Q24.018763 164.35938 24.018763 165.04688Q24.018763 165.71875 24.643763 166.23438Q25.268763 166.75 26.471888 166.75ZM28.784388 156.64062Q29.284388 157.23438 29.487513 157.78125Q29.690638 158.3125 29.690638 158.9375Q29.690638 159.96875 29.190638 160.51562Q28.690638 161.0625 27.909388 161.0625Q27.456263 161.0625 27.081263 160.85938Q26.690638 160.65625 26.471888 160.3125Q26.237513 159.96875 26.128138 159.54688Q26.034388 159.25 25.956263 158.60938Q25.815638 157.34375 25.596888 156.73438Q25.378138 156.73438 25.331263 156.73438Q24.675013 156.73438 24.409388 157.03125Q24.065638 157.4375 24.065638 158.23438Q24.065638 158.96875 24.331263 159.32812Q24.581263 159.6875 25.237513 159.85938L25.096888 160.89062Q24.440638 160.75 24.034388 160.42188Q23.628138 160.09375 23.409388 159.48438Q23.190638 158.875 23.190638 158.07812Q23.190638 157.28125 23.378138 156.78125Q23.565638 156.28125 23.846888 156.04688Q24.128138 155.8125 24.565638 155.71875Q24.831263 155.67188 25.534388 155.67188L26.940638 155.67188Q28.409388 155.67188 28.800013 155.60938Q29.190638 155.53125 29.550013 155.32812L29.550013 156.4375Q29.221888 156.59375 28.784388 156.64062ZM26.425013 156.73438Q26.659388 157.3125 26.831263 158.45312Q26.925013 159.10938 27.050013 159.375Q27.159388 159.64062 27.378138 159.79688Q27.596888 159.9375 27.878138 159.9375Q28.300013 159.9375 28.581263 159.625Q28.862513 159.29688 28.862513 158.6875Q28.862513 158.07812 28.596888 157.60938Q28.331263 157.125 27.862513 156.90625Q27.503138 156.73438 26.815638 156.73438L26.425013 156.73438ZM29.550013 153.70312L23.331263 153.70312L23.331263 152.76562L24.206263 152.76562Q23.190638 152.07812 23.190638 150.78125Q23.190638 150.21875 23.393763 149.75Q23.596888 149.26562 23.925013 149.03125Q24.253138 148.79688 24.690638 148.70312Q24.987513 148.65625 25.721888 148.65625L29.550013 148.65625L29.550013 149.70312L25.768763 149.70312Q25.112513 149.70312 24.800013 149.82812Q24.487513 149.95312 24.300013 150.26562Q24.096888 150.57812 24.096888 151.0Q24.096888 151.67188 24.534388 152.17188Q24.956263 152.65625 26.143763 152.65625L29.550013 152.65625L29.550013 153.70312ZM28.612513 144.40625L29.534388 144.25Q29.628138 144.70312 29.628138 145.04688Q29.628138 145.625 29.456263 145.9375Q29.268763 146.25 28.971888 146.39062Q28.675013 146.51562 27.721888 146.51562L24.143763 146.51562L24.143763 147.28125L23.331263 147.28125L23.331263 146.51562L21.784388 146.51562L21.159388 145.46875L23.331263 145.46875L23.331263 144.40625L24.143763 144.40625L24.143763 145.46875L27.784388 145.46875Q28.237513 145.46875 28.362513 145.42188Q28.487513 145.35938 28.565638 145.23438Q28.643763 145.10938 28.643763 144.875Q28.643763 144.6875 28.612513 144.40625ZM27.690638 144.125L27.534388 143.09375Q28.159388 143.0 28.487513 142.60938Q28.815638 142.20312 28.815638 141.46875Q28.815638 140.75 28.534388 140.40625Q28.237513 140.04688 27.831263 140.04688Q27.471888 140.04688 27.268763 140.35938Q27.128138 140.57812 26.909388 141.4375Q26.612513 142.59375 26.409388 143.04688Q26.190638 143.48438 25.815638 143.71875Q25.440638 143.95312 24.971888 143.95312Q24.565638 143.95312 24.206263 143.76562Q23.846888 143.57812 23.612513 143.25Q23.440638 143.0 23.315638 142.57812Q23.190638 142.15625 23.190638 141.65625Q23.190638 140.9375 23.409388 140.39062Q23.612513 139.82812 23.971888 139.5625Q24.331263 139.29688 24.925013 139.20312L25.065638 140.23438Q24.596888 140.29688 24.331263 140.64062Q24.050013 140.96875 24.050013 141.59375Q24.050013 142.3125 24.300013 142.625Q24.534388 142.9375 24.862513 142.9375Q25.065638 142.9375 25.221888 142.8125Q25.393763 142.67188 25.503138 142.40625Q25.565638 142.25 25.768763 141.46875Q26.081263 140.34375 26.268763 139.90625Q26.456263 139.46875 26.815638 139.21875Q27.175013 138.96875 27.721888 138.96875Q28.253138 138.96875 28.721888 139.28125Q29.175013 139.57812 29.440638 140.15625Q29.690638 140.73438 29.690638 141.46875Q29.690638 142.6875 29.190638 143.32812Q28.675013 143.95312 27.690638 144.125Z" fill-rule="nonzero"/><path fill="#000000" d="M72.05 300.21564Q72.05 298.6844 72.3625 297.7625Q72.675 296.825 73.28438 296.325Q73.90938 295.825 74.84688 295.825Q75.53438 295.825 76.05 296.10626Q76.58125 296.3875 76.925 296.91876Q77.26875 297.4344 77.45625 298.1844Q77.64375 298.9344 77.64375 300.21564Q77.64375 301.73126 77.33125 302.65314Q77.03438 303.575 76.40938 304.09064Q75.8 304.59064 74.84688 304.59064Q73.6125 304.59064 72.89375 303.7Q72.05 302.6375 72.05 300.21564ZM73.12813 300.21564Q73.12813 302.325 73.62813 303.02814Q74.12813 303.73126 74.84688 303.73126Q75.58125 303.73126 76.06563 303.02814Q76.56563 302.325 76.56563 300.21564Q76.56563 298.09064 76.06563 297.40314Q75.58125 296.7 74.83125 296.7Q74.1125 296.7 73.675 297.3094Q73.12813 298.09064 73.12813 300.21564Z" fill-rule="nonzero"/><path fill="#000000" d="M63.596874 248.45438L63.596874 249.47L57.909374 249.47Q57.909374 249.095 58.034374 248.73563Q58.253124 248.1575 58.721874 247.595Q59.20625 247.0325 60.1125 246.29813Q61.51875 245.14188 62.003124 244.47Q62.503124 243.79813 62.503124 243.20438Q62.503124 242.57938 62.05 242.1575Q61.596874 241.72 60.878124 241.72Q60.1125 241.72 59.659374 242.17313Q59.20625 242.62625 59.190624 243.43875L58.1125 243.32938Q58.221874 242.11063 58.940624 241.48563Q59.675 240.845 60.909374 240.845Q62.14375 240.845 62.8625 241.5325Q63.58125 242.22 63.58125 243.23563Q63.58125 243.75125 63.3625 244.25125Q63.159374 244.73563 62.659374 245.29813Q62.175 245.845 61.05 246.79813Q60.096874 247.595 59.815624 247.89188Q59.55 248.17313 59.378124 248.45438L63.596874 248.45438ZM65.05 247.22L66.15938 247.12625Q66.28438 247.93875 66.72188 248.345Q67.175 248.75125 67.81563 248.75125Q68.56563 248.75125 69.09688 248.17313Q69.62813 247.595 69.62813 246.6575Q69.62813 245.75125 69.1125 245.23563Q68.6125 244.70438 67.78438 244.70438Q67.28438 244.70438 66.8625 244.93875Q66.45625 245.17313 66.22188 245.5325L65.2375 245.4075L66.06563 241.00125L70.34688 241.00125L70.34688 242.00125L66.90938 242.00125L66.45625 244.31375Q67.22188 243.76688 68.06563 243.76688Q69.19063 243.76688 69.95625 244.54813Q70.7375 245.32938 70.7375 246.56375Q70.7375 247.72 70.06563 248.57938Q69.2375 249.61063 67.81563 249.61063Q66.64375 249.61063 65.89375 248.95438Q65.15938 248.29813 65.05 247.22ZM72.05 245.23563Q72.05 243.70438 72.3625 242.7825Q72.675 241.845 73.28438 241.345Q73.90938 240.845 74.84688 240.845Q75.53438 240.845 76.05 241.12625Q76.58125 241.4075 76.925 241.93875Q77.26875 242.45438 77.45625 243.20438Q77.64375 243.95438 77.64375 245.23563Q77.64375 246.75125 77.33125 247.67313Q77.03438 248.595 76.40938 249.11063Q75.8 249.61063 74.84688 249.61063Q73.6125 249.61063 72.89375 248.72Q72.05 247.6575 72.05 245.23563ZM73.12813 245.23563Q73.12813 247.345 73.62813 248.04813Q74.12813 248.75125 74.84688 248.75125Q75.58125 248.75125 76.06563 248.04813Q76.56563 247.345 76.56563 245.23563Q76.56563 243.11063 76.06563 242.42313Q75.58125 241.72 74.83125 241.72Q74.1125 241.72 73.675 242.32938Q73.12813 243.11063 73.12813 245.23563Z" fill-rule="nonzero"/><path fill="#000000" d="M58.05 192.24L59.159374 192.14626Q59.284374 192.95876 59.721874 193.365Q60.175 193.77126 60.815624 193.77126Q61.565624 193.77126 62.096874 193.19313Q62.628124 192.615 62.628124 191.6775Q62.628124 190.77126 62.1125 190.25563Q61.6125 189.72438 60.784374 189.72438Q60.284374 189.72438 59.8625 189.95876Q59.45625 190.19313 59.221874 190.5525L58.2375 190.4275L59.065624 186.02126L63.346874 186.02126L63.346874 187.02126L59.909374 187.02126L59.45625 189.33376Q60.221874 188.78688 61.065624 188.78688Q62.190624 188.78688 62.95625 189.56813Q63.7375 190.34938 63.7375 191.58376Q63.7375 192.74 63.065624 193.59938Q62.2375 194.63063 60.815624 194.63063Q59.64375 194.63063 58.89375 193.97438Q58.159374 193.31813 58.05 192.24ZM65.05 190.25563Q65.05 188.72438 65.3625 187.8025Q65.675 186.865 66.28438 186.365Q66.90938 185.865 67.84688 185.865Q68.53438 185.865 69.05 186.14626Q69.58125 186.4275 69.925 186.95876Q70.26875 187.47438 70.45625 188.22438Q70.64375 188.97438 70.64375 190.25563Q70.64375 191.77126 70.33125 192.69313Q70.03438 193.615 69.40938 194.13063Q68.8 194.63063 67.84688 194.63063Q66.6125 194.63063 65.89375 193.74Q65.05 192.6775 65.05 190.25563ZM66.12813 190.25563Q66.12813 192.365 66.62813 193.06813Q67.12813 193.77126 67.84688 193.77126Q68.58125 193.77126 69.06563 193.06813Q69.56563 192.365 69.56563 190.25563Q69.56563 188.13063 69.06563 187.44313Q68.58125 186.74 67.83125 186.74Q67.1125 186.74 66.675 187.34938Q66.12813 188.13063 66.12813 190.25563ZM72.05 190.25563Q72.05 188.72438 72.3625 187.8025Q72.675 186.865 73.28438 186.365Q73.90938 185.865 74.84688 185.865Q75.53438 185.865 76.05 186.14626Q76.58125 186.4275 76.925 186.95876Q77.26875 187.47438 77.45625 188.22438Q77.64375 188.97438 77.64375 190.25563Q77.64375 191.77126 77.33125 192.69313Q77.03438 193.615 76.40938 194.13063Q75.8 194.63063 74.84688 194.63063Q73.6125 194.63063 72.89375 193.74Q72.05 192.6775 72.05 190.25563ZM73.12813 190.25563Q73.12813 192.365 73.62813 193.06813Q74.12813 193.77126 74.84688 193.77126Q75.58125 193.77126 76.06563 193.06813Q76.56563 192.365 76.56563 190.25563Q76.56563 188.13063 76.06563 187.44313Q75.58125 186.74 74.83125 186.74Q74.1125 186.74 73.675 187.34938Q73.12813 188.13063 73.12813 190.25563Z" fill-rule="nonzero"/><path fill="#000000" d="M58.1125 132.04124L58.1125 131.02562L63.675 131.02562L63.675 131.85374Q62.8625 132.72874 62.05 134.18187Q61.253124 135.61937 60.815624 137.15062Q60.4875 138.22874 60.409374 139.51L59.315624 139.51Q59.33125 138.49437 59.70625 137.05687Q60.096874 135.61937 60.8 134.29124Q61.51875 132.96312 62.33125 132.04124L58.1125 132.04124ZM65.05 137.26L66.15938 137.16624Q66.28438 137.97874 66.72188 138.385Q67.175 138.79124 67.81563 138.79124Q68.56563 138.79124 69.09688 138.21312Q69.62813 137.635 69.62813 136.6975Q69.62813 135.79124 69.1125 135.27562Q68.6125 134.74437 67.78438 134.74437Q67.28438 134.74437 66.8625 134.97874Q66.45625 135.21312 66.22188 135.5725L65.2375 135.4475L66.06563 131.04124L70.34688 131.04124L70.34688 132.04124L66.90938 132.04124L66.45625 134.35374Q67.22188 133.80687 68.06563 133.80687Q69.19063 133.80687 69.95625 134.58812Q70.7375 135.36937 70.7375 136.60374Q70.7375 137.76 70.06563 138.61937Q69.2375 139.65062 67.81563 139.65062Q66.64375 139.65062 65.89375 138.99437Q65.15938 138.33812 65.05 137.26ZM72.05 135.27562Q72.05 133.74437 72.3625 132.8225Q72.675 131.885 73.28438 131.385Q73.90938 130.885 74.84688 130.885Q75.53438 130.885 76.05 131.16624Q76.58125 131.4475 76.925 131.97874Q77.26875 132.49437 77.45625 133.24437Q77.64375 133.99437 77.64375 135.27562Q77.64375 136.79124 77.33125 137.71312Q77.03438 138.635 76.40938 139.15062Q75.8 139.65062 74.84688 139.65062Q73.6125 139.65062 72.89375 138.76Q72.05 137.6975 72.05 135.27562ZM73.12813 135.27562Q73.12813 137.385 73.62813 138.08812Q74.12813 138.79124 74.84688 138.79124Q75.58125 138.79124 76.06563 138.08812Q76.56563 137.385 76.56563 135.27562Q76.56563 133.15062 76.06563 132.46312Q75.58125 131.76 74.83125 131.76Q74.1125 131.76 73.675 132.36937Q73.12813 133.15062 73.12813 135.27562Z" fill-rule="nonzero"/><path fill="#000000" d="M55.01875 84.53L53.971874 84.53L53.971874 77.81125Q53.58125 78.17062 52.95625 78.54562Q52.346874 78.905 51.8625 79.07687L51.8625 78.06125Q52.7375 77.63937 53.39375 77.06125Q54.065624 76.4675 54.346874 75.905L55.01875 75.905L55.01875 84.53ZM58.05 80.29562Q58.05 78.76437 58.3625 77.8425Q58.675 76.905 59.284374 76.405Q59.909374 75.905 60.846874 75.905Q61.534374 75.905 62.05 76.18625Q62.58125 76.4675 62.925 76.99875Q63.26875 77.51437 63.45625 78.26437Q63.64375 79.01437 63.64375 80.29562Q63.64375 81.81125 63.33125 82.73312Q63.034374 83.655 62.409374 84.17062Q61.8 84.67062 60.846874 84.67062Q59.6125 84.67062 58.89375 83.78Q58.05 82.7175 58.05 80.29562ZM59.128124 80.29562Q59.128124 82.405 59.628124 83.10812Q60.128124 83.81125 60.846874 83.81125Q61.58125 83.81125 62.065624 83.10812Q62.565624 82.405 62.565624 80.29562Q62.565624 78.17062 62.065624 77.48312Q61.58125 76.78 60.83125 76.78Q60.1125 76.78 59.675 77.38937Q59.128124 78.17062 59.128124 80.29562ZM65.05 80.29562Q65.05 78.76437 65.3625 77.8425Q65.675 76.905 66.28438 76.405Q66.90938 75.905 67.84688 75.905Q68.53438 75.905 69.05 76.18625Q69.58125 76.4675 69.925 76.99875Q70.26875 77.51437 70.45625 78.26437Q70.64375 79.01437 70.64375 80.29562Q70.64375 81.81125 70.33125 82.73312Q70.03438 83.655 69.40938 84.17062Q68.8 84.67062 67.84688 84.67062Q66.6125 84.67062 65.89375 83.78Q65.05 82.7175 65.05 80.29562ZM66.12813 80.29562Q66.12813 82.405 66.62813 83.10812Q67.12813 83.81125 67.84688 83.81125Q68.58125 83.81125 69.06563 83.10812Q69.56563 82.405 69.56563 80.29562Q69.56563 78.17062 69.06563 77.48312Q68.58125 76.78 67.83125 76.78Q67.1125 76.78 66.675 77.38937Q66.12813 78.17062 66.12813 80.29562ZM72.05 80.29562Q72.05 78.76437 72.3625 77.8425Q72.675 76.905 73.28438 76.405Q73.90938 75.905 74.84688 75.905Q75.53438 75.905 76.05 76.18625Q76.58125 76.4675 76.925 76.99875Q77.26875 77.51437 77.45625 78.26437Q77.64375 79.01437 77.64375 80.29562Q77.64375 81.81125 77.33125 82.73312Q77.03438 83.655 76.40938 84.17062Q75.8 84.67062 74.84688 84.67062Q73.6125 84.67062 72.89375 83.78Q72.05 82.7175 72.05 80.29562ZM73.12813 80.29562Q73.12813 82.405 73.62813 83.10812Q74.12813 83.81125 74.84688 83.81125Q75.58125 83.81125 76.06563 83.10812Q76.56563 82.405 76.56563 80.29562Q76.56563 78.17062 76.06563 77.48312Q75.58125 76.78 74.83125 76.78Q74.1125 76.78 73.675 77.38937Q73.12813 78.17062 73.12813 80.29562Z" fill-rule="nonzero"/><path fill="#000000" d="M55.01875 29.55L53.971874 29.55L53.971874 22.83125Q53.58125 23.190624 52.95625 23.565624Q52.346874 23.925 51.8625 24.096874L51.8625 23.08125Q52.7375 22.659374 53.39375 22.08125Q54.065624 21.4875 54.346874 20.925L55.01875 20.925L55.01875 29.55ZM63.596874 28.534374L63.596874 29.55L57.909374 29.55Q57.909374 29.175 58.034374 28.815624Q58.253124 28.2375 58.721874 27.675Q59.20625 27.1125 60.1125 26.378124Q61.51875 25.221874 62.003124 24.55Q62.503124 23.878124 62.503124 23.284374Q62.503124 22.659374 62.05 22.2375Q61.596874 21.8 60.878124 21.8Q60.1125 21.8 59.659374 22.253124Q59.20625 22.70625 59.190624 23.51875L58.1125 23.409374Q58.221874 22.190624 58.940624 21.565624Q59.675 20.925 60.909374 20.925Q62.14375 20.925 62.8625 21.6125Q63.58125 22.3 63.58125 23.315624Q63.58125 23.83125 63.3625 24.33125Q63.159374 24.815624 62.659374 25.378124Q62.175 25.925 61.05 26.878124Q60.096874 27.675 59.815624 27.971874Q59.55 28.253124 59.378124 28.534374L63.596874 28.534374ZM65.05 27.3L66.15938 27.20625Q66.28438 28.01875 66.72188 28.425Q67.175 28.83125 67.81563 28.83125Q68.56563 28.83125 69.09688 28.253124Q69.62813 27.675 69.62813 26.7375Q69.62813 25.83125 69.1125 25.315624Q68.6125 24.784374 67.78438 24.784374Q67.28438 24.784374 66.8625 25.01875Q66.45625 25.253124 66.22188 25.6125L65.2375 25.4875L66.06563 21.08125L70.34688 21.08125L70.34688 22.08125L66.90938 22.08125L66.45625 24.39375Q67.22188 23.846874 68.06563 23.846874Q69.19063 23.846874 69.95625 24.628124Q70.7375 25.409374 70.7375 26.64375Q70.7375 27.8 70.06563 28.659374Q69.2375 29.690624 67.81563 29.690624Q66.64375 29.690624 65.89375 29.034374Q65.15938 28.378124 65.05 27.3ZM72.05 25.315624Q72.05 23.784374 72.3625 22.8625Q72.675 21.925 73.28438 21.425Q73.90938 20.925 74.84688 20.925Q75.53438 20.925 76.05 21.20625Q76.58125 21.4875 76.925 22.01875Q77.26875 22.534374 77.45625 23.284374Q77.64375 24.034374 77.64375 25.315624Q77.64375 26.83125 77.33125 27.753124Q77.03438 28.675 76.40938 29.190624Q75.8 29.690624 74.84688 29.690624Q73.6125 29.690624 72.89375 28.8Q72.05 27.7375 72.05 25.315624ZM73.12813 25.315624Q73.12813 27.425 73.62813 28.128124Q74.12813 28.83125 74.84688 28.83125Q75.58125 28.83125 76.06563 28.128124Q76.56563 27.425 76.56563 25.315624Q76.56563 23.190624 76.06563 22.503124Q75.58125 21.8 74.83125 21.8Q74.1125 21.8 73.675 22.409374Q73.12813 23.190624 73.12813 25.315624Z" fill-rule="nonzero"/><path fill="#000000" d="M104.003395 316.4344L104.003395 317.45L98.315895 317.45Q98.315895 317.075 98.440895 316.71564Q98.659645 316.1375 99.128395 315.575Q99.61277 315.0125 100.51902 314.27814Q101.92527 313.1219 102.409645 312.45Q102.909645 311.77814 102.909645 311.1844Q102.909645 310.5594 102.45652 310.1375Q102.003395 309.7 101.284645 309.7Q100.51902 309.7 100.065895 310.15314Q99.61277 310.60626 99.597145 311.41876L98.51902 311.3094Q98.628395 310.09064 99.347145 309.46564Q100.08152 308.825 101.315895 308.825Q102.55027 308.825 103.26902 309.5125Q103.98777 310.2 103.98777 311.21564Q103.98777 311.73126 103.76902 312.23126Q103.565895 312.71564 103.065895 313.27814Q102.58152 313.825 101.45652 314.77814Q100.503395 315.575 100.222145 315.8719Q99.95652 316.15314 99.784645 316.4344L104.003395 316.4344ZM105.45652 313.21564Q105.45652 311.6844 105.76902 310.7625Q106.08152 309.825 106.690895 309.325Q107.315895 308.825 108.253395 308.825Q108.940895 308.825 109.45652 309.10626Q109.98777 309.3875 110.33152 309.91876Q110.67527 310.4344 110.86277 311.1844Q111.05027 311.9344 111.05027 313.21564Q111.05027 314.73126 110.73777 315.65314Q110.440895 316.575 109.815895 317.09064Q109.20652 317.59064 108.253395 317.59064Q107.01902 317.59064 106.30027 316.7Q105.45652 315.6375 105.45652 313.21564ZM106.534645 313.21564Q106.534645 315.325 107.034645 316.02814Q107.534645 316.73126 108.253395 316.73126Q108.98777 316.73126 109.472145 316.02814Q109.972145 315.325 109.972145 313.21564Q109.972145 311.09064 109.472145 310.40314Q108.98777 309.7 108.23777 309.7Q107.51902 309.7 107.08152 310.3094Q106.534645 311.09064 106.534645 313.21564ZM116.42527 317.45L115.378395 317.45L115.378395 310.73126Q114.98777 311.09064 114.36277 311.46564Q113.753395 311.825 113.26902 311.9969L113.26902 310.98126Q114.14402 310.5594 114.80027 309.98126Q115.472145 309.3875 115.753395 308.825L116.42527 308.825L116.42527 317.45ZM123.42527 317.45L122.378395 317.45L122.378395 310.73126Q121.98777 311.09064 121.36277 311.46564Q120.753395 311.825 120.26902 311.9969L120.26902 310.98126Q121.14402 310.5594 121.80027 309.98126Q122.472145 309.3875 122.753395 308.825L123.42527 308.825L123.42527 317.45ZM127.05027 317.45L127.05027 316.2469L128.25339 316.2469L128.25339 317.45L127.05027 317.45ZM133.42526 317.45L132.37839 317.45L132.37839 310.73126Q131.98776 311.09064 131.36276 311.46564Q130.75339 311.825 130.26901 311.9969L130.26901 310.98126Q131.14401 310.5594 131.80026 309.98126Q132.47214 309.3875 132.75339 308.825L133.42526 308.825L133.42526 317.45Z" fill-rule="nonzero"/><path fill="#000000" d="M152.01306 316.4344L152.01306 317.45L146.32556 317.45Q146.32556 317.075 146.45056 316.71564Q146.66931 316.1375 147.13806 315.575Q147.62244 315.0125 148.52869 314.27814Q149.93494 313.1219 150.41931 312.45Q150.91931 311.77814 150.91931 311.1844Q150.91931 310.5594 150.46619 310.1375Q150.01306 309.7 149.29431 309.7Q148.52869 309.7 148.07556 310.15314Q147.62244 310.60626 147.60681 311.41876L146.52869 311.3094Q146.63806 310.09064 147.35681 309.46564Q148.09119 308.825 149.32556 308.825Q150.55994 308.825 151.27869 309.5125Q151.99744 310.2 151.99744 311.21564Q151.99744 311.73126 151.77869 312.23126Q151.57556 312.71564 151.07556 313.27814Q150.59119 313.825 149.46619 314.77814Q148.51306 315.575 148.23181 315.8719Q147.96619 316.15314 147.79431 316.4344L152.01306 316.4344ZM153.46619 313.21564Q153.46619 311.6844 153.77869 310.7625Q154.09119 309.825 154.70056 309.325Q155.32556 308.825 156.26306 308.825Q156.95056 308.825 157.46619 309.10626Q157.99744 309.3875 158.34119 309.91876Q158.68494 310.4344 158.87244 311.1844Q159.05994 311.9344 159.05994 313.21564Q159.05994 314.73126 158.74744 315.65314Q158.45056 316.575 157.82556 317.09064Q157.21619 317.59064 156.26306 317.59064Q155.02869 317.59064 154.30994 316.7Q153.46619 315.6375 153.46619 313.21564ZM154.54431 313.21564Q154.54431 315.325 155.04431 316.02814Q155.54431 316.73126 156.26306 316.73126Q156.99744 316.73126 157.48181 316.02814Q157.98181 315.325 157.98181 313.21564Q157.98181 311.09064 157.48181 310.40314Q156.99744 309.7 156.24744 309.7Q155.52869 309.7 155.09119 310.3094Q154.54431 311.09064 154.54431 313.21564ZM164.43494 317.45L163.38806 317.45L163.38806 310.73126Q162.99744 311.09064 162.37244 311.46564Q161.76306 311.825 161.27869 311.9969L161.27869 310.98126Q162.15369 310.5594 162.80994 309.98126Q163.48181 309.3875 163.76306 308.825L164.43494 308.825L164.43494 317.45ZM171.43494 317.45L170.38806 317.45L170.38806 310.73126Q169.99744 311.09064 169.37244 311.46564Q168.76306 311.825 168.27869 311.9969L168.27869 310.98126Q169.15369 310.5594 169.80994 309.98126Q170.48181 309.3875 170.76306 308.825L171.43494 308.825L171.43494 317.45ZM175.05994 317.45L175.05994 316.2469L176.26306 316.2469L176.26306 317.45L175.05994 317.45ZM179.09119 312.79376Q178.43494 312.54376 178.10681 312.10626Q177.79431 311.65314 177.79431 311.04376Q177.79431 310.10626 178.46619 309.46564Q179.15369 308.825 180.26306 308.825Q181.38806 308.825 182.07556 309.48126Q182.76306 310.1375 182.76306 311.075Q182.76306 311.66876 182.45056 312.10626Q182.13806 312.54376 181.49744 312.79376Q182.29431 313.04376 182.70056 313.6219Q183.10681 314.2 183.10681 314.9969Q183.10681 316.09064 182.32556 316.84064Q181.55994 317.59064 180.27869 317.59064Q179.01306 317.59064 178.23181 316.84064Q177.45056 316.09064 177.45056 314.96564Q177.45056 314.1219 177.87244 313.5594Q178.30994 312.9969 179.09119 312.79376ZM178.87244 310.9969Q178.87244 311.60626 179.26306 311.9969Q179.66931 312.3875 180.29431 312.3875Q180.90369 312.3875 181.29431 312.0125Q181.68494 311.6219 181.68494 311.0594Q181.68494 310.48126 181.27869 310.09064Q180.87244 309.6844 180.27869 309.6844Q179.66931 309.6844 179.26306 310.075Q178.87244 310.46564 178.87244 310.9969ZM178.54431 314.96564Q178.54431 315.41876 178.74744 315.84064Q178.96619 316.2625 179.38806 316.4969Q179.80994 316.73126 180.29431 316.73126Q181.04431 316.73126 181.52869 316.2469Q182.02869 315.7625 182.02869 315.0125Q182.02869 314.2469 181.52869 313.7469Q181.02869 313.2469 180.26306 313.2469Q179.51306 313.2469 179.02869 313.7469Q178.54431 314.23126 178.54431 314.96564Z" fill-rule="nonzero"/><path fill="#000000" d="M205.02272 316.4344L205.02272 317.45L199.33522 317.45Q199.33522 317.075 199.46022 316.71564Q199.67897 316.1375 200.14772 315.575Q200.6321 315.0125 201.53835 314.27814Q202.9446 313.1219 203.42897 312.45Q203.92897 311.77814 203.92897 311.1844Q203.92897 310.5594 203.47585 310.1375Q203.02272 309.7 202.30397 309.7Q201.53835 309.7 201.08522 310.15314Q200.6321 310.60626 200.61647 311.41876L199.53835 311.3094Q199.64772 310.09064 200.36647 309.46564Q201.10085 308.825 202.33522 308.825Q203.5696 308.825 204.28835 309.5125Q205.0071 310.2 205.0071 311.21564Q205.0071 311.73126 204.78835 312.23126Q204.58522 312.71564 204.08522 313.27814Q203.60085 313.825 202.47585 314.77814Q201.52272 315.575 201.24147 315.8719Q200.97585 316.15314 200.80397 316.4344L205.02272 316.4344ZM206.47585 313.21564Q206.47585 311.6844 206.78835 310.7625Q207.10085 309.825 207.71022 309.325Q208.33522 308.825 209.27272 308.825Q209.96022 308.825 210.47585 309.10626Q211.0071 309.3875 211.35085 309.91876Q211.6946 310.4344 211.8821 311.1844Q212.0696 311.9344 212.0696 313.21564Q212.0696 314.73126 211.7571 315.65314Q211.46022 316.575 210.83522 317.09064Q210.22585 317.59064 209.27272 317.59064Q208.03835 317.59064 207.3196 316.7Q206.47585 315.6375 206.47585 313.21564ZM207.55397 313.21564Q207.55397 315.325 208.05397 316.02814Q208.55397 316.73126 209.27272 316.73126Q210.0071 316.73126 210.49147 316.02814Q210.99147 315.325 210.99147 313.21564Q210.99147 311.09064 210.49147 310.40314Q210.0071 309.7 209.2571 309.7Q208.53835 309.7 208.10085 310.3094Q207.55397 311.09064 207.55397 313.21564ZM217.4446 317.45L216.39772 317.45L216.39772 310.73126Q216.0071 311.09064 215.3821 311.46564Q214.77272 311.825 214.28835 311.9969L214.28835 310.98126Q215.16335 310.5594 215.8196 309.98126Q216.49147 309.3875 216.77272 308.825L217.4446 308.825L217.4446 317.45ZM226.02272 316.4344L226.02272 317.45L220.33522 317.45Q220.33522 317.075 220.46022 316.71564Q220.67897 316.1375 221.14772 315.575Q221.6321 315.0125 222.53835 314.27814Q223.9446 313.1219 224.42897 312.45Q224.92897 311.77814 224.92897 311.1844Q224.92897 310.5594 224.47585 310.1375Q224.02272 309.7 223.30397 309.7Q222.53835 309.7 222.08522 310.15314Q221.6321 310.60626 221.61647 311.41876L220.53835 311.3094Q220.64772 310.09064 221.36647 309.46564Q222.10085 308.825 223.33522 308.825Q224.5696 308.825 225.28835 309.5125Q226.0071 310.2 226.0071 311.21564Q226.0071 311.73126 225.78835 312.23126Q225.58522 312.71564 225.08522 313.27814Q224.60085 313.825 223.47585 314.77814Q222.52272 315.575 222.24147 315.8719Q221.97585 316.15314 221.80397 316.4344L226.02272 316.4344Z" fill-rule="nonzero"/><path fill="#000000" d="M253.03238 316.4344L253.03238 317.45L247.34488 317.45Q247.34488 317.075 247.46988 316.71564Q247.68863 316.1375 248.15738 315.575Q248.64175 315.0125 249.548 314.27814Q250.95425 313.1219 251.43863 312.45Q251.93863 311.77814 251.93863 311.1844Q251.93863 310.5594 251.4855 310.1375Q251.03238 309.7 250.31363 309.7Q249.548 309.7 249.09488 310.15314Q248.64175 310.60626 248.62613 311.41876L247.548 311.3094Q247.65738 310.09064 248.37613 309.46564Q249.1105 308.825 250.34488 308.825Q251.57925 308.825 252.298 309.5125Q253.01675 310.2 253.01675 311.21564Q253.01675 311.73126 252.798 312.23126Q252.59488 312.71564 252.09488 313.27814Q251.6105 313.825 250.4855 314.77814Q249.53238 315.575 249.25113 315.8719Q248.9855 316.15314 248.81363 316.4344L253.03238 316.4344ZM254.4855 313.21564Q254.4855 311.6844 254.798 310.7625Q255.1105 309.825 255.71988 309.325Q256.34488 308.825 257.28238 308.825Q257.96988 308.825 258.4855 309.10626Q259.01675 309.3875 259.3605 309.91876Q259.70425 310.4344 259.89175 311.1844Q260.07925 311.9344 260.07925 313.21564Q260.07925 314.73126 259.76675 315.65314Q259.46988 316.575 258.84488 317.09064Q258.2355 317.59064 257.28238 317.59064Q256.048 317.59064 255.32925 316.7Q254.4855 315.6375 254.4855 313.21564ZM255.56363 313.21564Q255.56363 315.325 256.06363 316.02814Q256.56363 316.73126 257.28238 316.73126Q258.01675 316.73126 258.50113 316.02814Q259.00113 315.325 259.00113 313.21564Q259.00113 311.09064 258.50113 310.40314Q258.01675 309.7 257.26675 309.7Q256.548 309.7 256.1105 310.3094Q255.56363 311.09064 255.56363 313.21564ZM265.45425 317.45L264.40738 317.45L264.40738 310.73126Q264.01675 311.09064 263.39175 311.46564Q262.78238 311.825 262.298 311.9969L262.298 310.98126Q263.173 310.5594 263.82925 309.98126Q264.50113 309.3875 264.78238 308.825L265.45425 308.825L265.45425 317.45ZM268.4855 315.1844L269.548 315.04376Q269.71988 315.9344 270.15738 316.34064Q270.59488 316.73126 271.21988 316.73126Q271.96988 316.73126 272.4855 316.21564Q273.00113 315.7 273.00113 314.9344Q273.00113 314.21564 272.51675 313.7469Q272.048 313.2625 271.31363 313.2625Q271.01675 313.2625 270.56363 313.3875L270.68863 312.45Q270.798 312.46564 270.8605 312.46564Q271.53238 312.46564 272.06363 312.1219Q272.6105 311.7625 272.6105 311.02814Q272.6105 310.45 272.21988 310.075Q271.82925 309.6844 271.20425 309.6844Q270.59488 309.6844 270.173 310.075Q269.76675 310.46564 269.65738 311.23126L268.59488 311.04376Q268.78238 309.9969 269.46988 309.41876Q270.15738 308.825 271.173 308.825Q271.87613 308.825 272.46988 309.1375Q273.06363 309.4344 273.37613 309.95Q273.68863 310.46564 273.68863 311.0594Q273.68863 311.60626 273.39175 312.075Q273.09488 312.52814 272.51675 312.79376Q273.26675 312.96564 273.68863 313.52814Q274.1105 314.075 274.1105 314.91876Q274.1105 316.04376 273.28238 316.825Q272.46988 317.60626 271.21988 317.60626Q270.09488 317.60626 269.34488 316.9344Q268.59488 316.2469 268.4855 315.1844Z" fill-rule="nonzero"/><path fill="#000000" d="M301.04205 316.4344L301.04205 317.45L295.35455 317.45Q295.35455 317.075 295.47955 316.71564Q295.6983 316.1375 296.16705 315.575Q296.65143 315.0125 297.55768 314.27814Q298.96393 313.1219 299.4483 312.45Q299.9483 311.77814 299.9483 311.1844Q299.9483 310.5594 299.49518 310.1375Q299.04205 309.7 298.3233 309.7Q297.55768 309.7 297.10455 310.15314Q296.65143 310.60626 296.6358 311.41876L295.55768 311.3094Q295.66705 310.09064 296.3858 309.46564Q297.12018 308.825 298.35455 308.825Q299.58893 308.825 300.30768 309.5125Q301.02643 310.2 301.02643 311.21564Q301.02643 311.73126 300.80768 312.23126Q300.60455 312.71564 300.10455 313.27814Q299.62018 313.825 298.49518 314.77814Q297.54205 315.575 297.2608 315.8719Q296.99518 316.15314 296.8233 316.4344L301.04205 316.4344ZM302.49518 313.21564Q302.49518 311.6844 302.80768 310.7625Q303.12018 309.825 303.72955 309.325Q304.35455 308.825 305.29205 308.825Q305.97955 308.825 306.49518 309.10626Q307.02643 309.3875 307.37018 309.91876Q307.71393 310.4344 307.90143 311.1844Q308.08893 311.9344 308.08893 313.21564Q308.08893 314.73126 307.77643 315.65314Q307.47955 316.575 306.85455 317.09064Q306.24518 317.59064 305.29205 317.59064Q304.05768 317.59064 303.33893 316.7Q302.49518 315.6375 302.49518 313.21564ZM303.5733 313.21564Q303.5733 315.325 304.0733 316.02814Q304.5733 316.73126 305.29205 316.73126Q306.02643 316.73126 306.5108 316.02814Q307.0108 315.325 307.0108 313.21564Q307.0108 311.09064 306.5108 310.40314Q306.02643 309.7 305.27643 309.7Q304.55768 309.7 304.12018 310.3094Q303.5733 311.09064 303.5733 313.21564ZM313.46393 317.45L312.41705 317.45L312.41705 310.73126Q312.02643 311.09064 311.40143 311.46564Q310.79205 311.825 310.30768 311.9969L310.30768 310.98126Q311.18268 310.5594 311.83893 309.98126Q312.5108 309.3875 312.79205 308.825L313.46393 308.825L313.46393 317.45ZM319.87018 317.45L319.87018 315.3875L316.15143 315.3875L316.15143 314.41876L320.0733 308.85626L320.93268 308.85626L320.93268 314.41876L322.08893 314.41876L322.08893 315.3875L320.93268 315.3875L320.93268 317.45L319.87018 317.45ZM319.87018 314.41876L319.87018 310.5594L317.18268 314.41876L319.87018 314.41876Z" fill-rule="nonzero"/><path fill="#000000" d="M349.0517 316.4344L349.0517 317.45L343.3642 317.45Q343.3642 317.075 343.4892 316.71564Q343.70795 316.1375 344.1767 315.575Q344.66107 315.0125 345.56732 314.27814Q346.97357 313.1219 347.45795 312.45Q347.95795 311.77814 347.95795 311.1844Q347.95795 310.5594 347.50482 310.1375Q347.0517 309.7 346.33295 309.7Q345.56732 309.7 345.1142 310.15314Q344.66107 310.60626 344.64545 311.41876L343.56732 311.3094Q343.6767 310.09064 344.39545 309.46564Q345.12982 308.825 346.3642 308.825Q347.59857 308.825 348.31732 309.5125Q349.03607 310.2 349.03607 311.21564Q349.03607 311.73126 348.81732 312.23126Q348.6142 312.71564 348.1142 313.27814Q347.62982 313.825 346.50482 314.77814Q345.5517 315.575 345.27045 315.8719Q345.00482 316.15314 344.83295 316.4344L349.0517 316.4344ZM350.50482 313.21564Q350.50482 311.6844 350.81732 310.7625Q351.12982 309.825 351.7392 309.325Q352.3642 308.825 353.3017 308.825Q353.9892 308.825 354.50482 309.10626Q355.03607 309.3875 355.37982 309.91876Q355.72357 310.4344 355.91107 311.1844Q356.09857 311.9344 356.09857 313.21564Q356.09857 314.73126 355.78607 315.65314Q355.4892 316.575 354.8642 317.09064Q354.25482 317.59064 353.3017 317.59064Q352.06732 317.59064 351.34857 316.7Q350.50482 315.6375 350.50482 313.21564ZM351.58295 313.21564Q351.58295 315.325 352.08295 316.02814Q352.58295 316.73126 353.3017 316.73126Q354.03607 316.73126 354.52045 316.02814Q355.02045 315.325 355.02045 313.21564Q355.02045 311.09064 354.52045 310.40314Q354.03607 309.7 353.28607 309.7Q352.56732 309.7 352.12982 310.3094Q351.58295 311.09064 351.58295 313.21564ZM361.47357 317.45L360.4267 317.45L360.4267 310.73126Q360.03607 311.09064 359.41107 311.46564Q358.8017 311.825 358.31732 311.9969L358.31732 310.98126Q359.19232 310.5594 359.84857 309.98126Q360.52045 309.3875 360.8017 308.825L361.47357 308.825L361.47357 317.45ZM364.50482 315.2L365.6142 315.10626Q365.7392 315.91876 366.1767 316.325Q366.62982 316.73126 367.27045 316.73126Q368.02045 316.73126 368.5517 316.15314Q369.08295 315.575 369.08295 314.6375Q369.08295 313.73126 368.56732 313.21564Q368.06732 312.6844 367.2392 312.6844Q366.7392 312.6844 366.31732 312.91876Q365.91107 313.15314 365.6767 313.5125L364.69232 313.3875L365.52045 308.98126L369.8017 308.98126L369.8017 309.98126L366.3642 309.98126L365.91107 312.29376Q366.6767 311.7469 367.52045 311.7469Q368.64545 311.7469 369.41107 312.52814Q370.19232 313.3094 370.19232 314.54376Q370.19232 315.7 369.52045 316.5594Q368.69232 317.59064 367.27045 317.59064Q366.09857 317.59064 365.34857 316.9344Q364.6142 316.27814 364.50482 315.2Z" fill-rule="nonzero"/><path fill="#000000" d="M397.06137 316.4344L397.06137 317.45L391.37387 317.45Q391.37387 317.075 391.49887 316.71564Q391.71762 316.1375 392.18637 315.575Q392.67075 315.0125 393.577 314.27814Q394.98325 313.1219 395.46762 312.45Q395.96762 311.77814 395.96762 311.1844Q395.96762 310.5594 395.5145 310.1375Q395.06137 309.7 394.34262 309.7Q393.577 309.7 393.12387 310.15314Q392.67075 310.60626 392.65512 311.41876L391.577 311.3094Q391.68637 310.09064 392.40512 309.46564Q393.1395 308.825 394.37387 308.825Q395.60825 308.825 396.327 309.5125Q397.04575 310.2 397.04575 311.21564Q397.04575 311.73126 396.827 312.23126Q396.62387 312.71564 396.12387 313.27814Q395.6395 313.825 394.5145 314.77814Q393.56137 315.575 393.28012 315.8719Q393.0145 316.15314 392.84262 316.4344L397.06137 316.4344ZM398.5145 313.21564Q398.5145 311.6844 398.827 310.7625Q399.1395 309.825 399.74887 309.325Q400.37387 308.825 401.31137 308.825Q401.99887 308.825 402.5145 309.10626Q403.04575 309.3875 403.3895 309.91876Q403.73325 310.4344 403.92075 311.1844Q404.10825 311.9344 404.10825 313.21564Q404.10825 314.73126 403.79575 315.65314Q403.49887 316.575 402.87387 317.09064Q402.2645 317.59064 401.31137 317.59064Q400.077 317.59064 399.35825 316.7Q398.5145 315.6375 398.5145 313.21564ZM399.59262 313.21564Q399.59262 315.325 400.09262 316.02814Q400.59262 316.73126 401.31137 316.73126Q402.04575 316.73126 402.53012 316.02814Q403.03012 315.325 403.03012 313.21564Q403.03012 311.09064 402.53012 310.40314Q402.04575 309.7 401.29575 309.7Q400.577 309.7 400.1395 310.3094Q399.59262 311.09064 399.59262 313.21564ZM409.48325 317.45L408.43637 317.45L408.43637 310.73126Q408.04575 311.09064 407.42075 311.46564Q406.81137 311.825 406.327 311.9969L406.327 310.98126Q407.202 310.5594 407.85825 309.98126Q408.53012 309.3875 408.81137 308.825L409.48325 308.825L409.48325 317.45ZM417.98325 310.96564L416.93637 311.04376Q416.79575 310.41876 416.54575 310.1375Q416.10825 309.6844 415.48325 309.6844Q414.98325 309.6844 414.59262 309.96564Q414.10825 310.34064 413.81137 311.04376Q413.53012 311.73126 413.5145 313.0125Q413.8895 312.4344 414.43637 312.15314Q414.99887 311.8719 415.60825 311.8719Q416.65512 311.8719 417.3895 312.65314Q418.1395 313.4344 418.1395 314.65314Q418.1395 315.46564 417.78012 316.16876Q417.43637 316.85626 416.827 317.23126Q416.21762 317.59064 415.452 317.59064Q414.12387 317.59064 413.29575 316.6219Q412.46762 315.65314 412.46762 313.4344Q412.46762 310.9344 413.3895 309.8094Q414.18637 308.825 415.54575 308.825Q416.56137 308.825 417.202 309.40314Q417.85825 309.96564 417.98325 310.96564ZM413.68637 314.66876Q413.68637 315.21564 413.90512 315.71564Q414.1395 316.2 414.54575 316.46564Q414.96762 316.73126 415.43637 316.73126Q416.09262 316.73126 416.577 316.2Q417.06137 315.65314 417.06137 314.73126Q417.06137 313.84064 416.577 313.325Q416.10825 312.8094 415.3895 312.8094Q414.67075 312.8094 414.17075 313.325Q413.68637 313.84064 413.68637 314.66876Z" fill-rule="nonzero"/><path fill="#000000" d="M445.071 316.4344L445.071 317.45L439.3835 317.45Q439.3835 317.075 439.5085 316.71564Q439.72726 316.1375 440.196 315.575Q440.6804 315.0125 441.58664 314.27814Q442.9929 313.1219 443.47726 312.45Q443.97726 311.77814 443.97726 311.1844Q443.97726 310.5594 443.52414 310.1375Q443.071 309.7 442.35226 309.7Q441.58664 309.7 441.1335 310.15314Q440.6804 310.60626 440.66476 311.41876L439.58664 311.3094Q439.696 310.09064 440.41476 309.46564Q441.14914 308.825 442.3835 308.825Q443.6179 308.825 444.33664 309.5125Q445.0554 310.2 445.0554 311.21564Q445.0554 311.73126 444.83664 312.23126Q444.6335 312.71564 444.1335 313.27814Q443.64914 313.825 442.52414 314.77814Q441.571 315.575 441.28976 315.8719Q441.02414 316.15314 440.85226 316.4344L445.071 316.4344ZM446.52414 313.21564Q446.52414 311.6844 446.83664 310.7625Q447.14914 309.825 447.7585 309.325Q448.3835 308.825 449.321 308.825Q450.0085 308.825 450.52414 309.10626Q451.0554 309.3875 451.39914 309.91876Q451.7429 310.4344 451.9304 311.1844Q452.1179 311.9344 452.1179 313.21564Q452.1179 314.73126 451.8054 315.65314Q451.5085 316.575 450.8835 317.09064Q450.27414 317.59064 449.321 317.59064Q448.08664 317.59064 447.3679 316.7Q446.52414 315.6375 446.52414 313.21564ZM447.60226 313.21564Q447.60226 315.325 448.10226 316.02814Q448.60226 316.73126 449.321 316.73126Q450.0554 316.73126 450.53976 316.02814Q451.03976 315.325 451.03976 313.21564Q451.03976 311.09064 450.53976 310.40314Q450.0554 309.7 449.3054 309.7Q448.58664 309.7 448.14914 310.3094Q447.60226 311.09064 447.60226 313.21564ZM457.4929 317.45L456.446 317.45L456.446 310.73126Q456.0554 311.09064 455.4304 311.46564Q454.821 311.825 454.33664 311.9969L454.33664 310.98126Q455.21164 310.5594 455.8679 309.98126Q456.53976 309.3875 456.821 308.825L457.4929 308.825L457.4929 317.45ZM460.58664 309.98126L460.58664 308.96564L466.14914 308.96564L466.14914 309.79376Q465.33664 310.66876 464.52414 312.1219Q463.72726 313.5594 463.28976 315.09064Q462.96164 316.16876 462.8835 317.45L461.78976 317.45Q461.8054 316.4344 462.1804 314.9969Q462.571 313.5594 463.27414 312.23126Q463.9929 310.90314 464.8054 309.98126L460.58664 309.98126Z" fill-rule="nonzero"/><path fill="#000000" d="M493.0807 316.4344L493.0807 317.45L487.3932 317.45Q487.3932 317.075 487.5182 316.71564Q487.73694 316.1375 488.2057 315.575Q488.69006 315.0125 489.5963 314.27814Q491.00256 313.1219 491.48694 312.45Q491.98694 311.77814 491.98694 311.1844Q491.98694 310.5594 491.5338 310.1375Q491.0807 309.7 490.36194 309.7Q489.5963 309.7 489.1432 310.15314Q488.69006 310.60626 488.67444 311.41876L487.5963 311.3094Q487.7057 310.09064 488.42444 309.46564Q489.1588 308.825 490.3932 308.825Q491.62756 308.825 492.3463 309.5125Q493.06506 310.2 493.06506 311.21564Q493.06506 311.73126 492.8463 312.23126Q492.6432 312.71564 492.1432 313.27814Q491.6588 313.825 490.5338 314.77814Q489.5807 315.575 489.29944 315.8719Q489.0338 316.15314 488.86194 316.4344L493.0807 316.4344ZM494.5338 313.21564Q494.5338 311.6844 494.8463 310.7625Q495.1588 309.825 495.7682 309.325Q496.3932 308.825 497.3307 308.825Q498.0182 308.825 498.5338 309.10626Q499.06506 309.3875 499.4088 309.91876Q499.75256 310.4344 499.94006 311.1844Q500.12756 311.9344 500.12756 313.21564Q500.12756 314.73126 499.81506 315.65314Q499.5182 316.575 498.8932 317.09064Q498.2838 317.59064 497.3307 317.59064Q496.0963 317.59064 495.37756 316.7Q494.5338 315.6375 494.5338 313.21564ZM495.61194 313.21564Q495.61194 315.325 496.11194 316.02814Q496.61194 316.73126 497.3307 316.73126Q498.06506 316.73126 498.54944 316.02814Q499.04944 315.325 499.04944 313.21564Q499.04944 311.09064 498.54944 310.40314Q498.06506 309.7 497.31506 309.7Q496.5963 309.7 496.1588 310.3094Q495.61194 311.09064 495.61194 313.21564ZM505.50256 317.45L504.4557 317.45L504.4557 310.73126Q504.06506 311.09064 503.44006 311.46564Q502.8307 311.825 502.3463 311.9969L502.3463 310.98126Q503.2213 310.5594 503.87756 309.98126Q504.54944 309.3875 504.8307 308.825L505.50256 308.825L505.50256 317.45ZM510.1588 312.79376Q509.50256 312.54376 509.17444 312.10626Q508.86194 311.65314 508.86194 311.04376Q508.86194 310.10626 509.5338 309.46564Q510.2213 308.825 511.3307 308.825Q512.4557 308.825 513.1432 309.48126Q513.8307 310.1375 513.8307 311.075Q513.8307 311.66876 513.5182 312.10626Q513.2057 312.54376 512.56506 312.79376Q513.36194 313.04376 513.7682 313.6219Q514.17444 314.2 514.17444 314.9969Q514.17444 316.09064 513.3932 316.84064Q512.62756 317.59064 511.3463 317.59064Q510.0807 317.59064 509.29944 316.84064Q508.5182 316.09064 508.5182 314.96564Q508.5182 314.1219 508.94006 313.5594Q509.37756 312.9969 510.1588 312.79376ZM509.94006 310.9969Q509.94006 311.60626 510.3307 311.9969Q510.73694 312.3875 511.36194 312.3875Q511.9713 312.3875 512.36194 312.0125Q512.75256 311.6219 512.75256 311.0594Q512.75256 310.48126 512.3463 310.09064Q511.94006 309.6844 511.3463 309.6844Q510.73694 309.6844 510.3307 310.075Q509.94006 310.46564 509.94006 310.9969ZM509.61194 314.96564Q509.61194 315.41876 509.81506 315.84064Q510.0338 316.2625 510.4557 316.4969Q510.87756 316.73126 511.36194 316.73126Q512.11194 316.73126 512.5963 316.2469Q513.0963 315.7625 513.0963 315.0125Q513.0963 314.2469 512.5963 313.7469Q512.0963 313.2469 511.3307 313.2469Q510.5807 313.2469 510.0963 313.7469Q509.61194 314.23126 509.61194 314.96564Z" fill-rule="nonzero"/><path fill="#000000" d="M541.09033 316.4344L541.09033 317.45L535.40283 317.45Q535.40283 317.075 535.52783 316.71564Q535.7466 316.1375 536.21533 315.575Q536.6997 315.0125 537.60596 314.27814Q539.0122 313.1219 539.4966 312.45Q539.9966 311.77814 539.9966 311.1844Q539.9966 310.5594 539.54346 310.1375Q539.09033 309.7 538.3716 309.7Q537.60596 309.7 537.15283 310.15314Q536.6997 310.60626 536.6841 311.41876L535.60596 311.3094Q535.71533 310.09064 536.4341 309.46564Q537.16846 308.825 538.40283 308.825Q539.6372 308.825 540.35596 309.5125Q541.0747 310.2 541.0747 311.21564Q541.0747 311.73126 540.85596 312.23126Q540.65283 312.71564 540.15283 313.27814Q539.66846 313.825 538.54346 314.77814Q537.59033 315.575 537.3091 315.8719Q537.04346 316.15314 536.8716 316.4344L541.09033 316.4344ZM542.54346 313.21564Q542.54346 311.6844 542.85596 310.7625Q543.16846 309.825 543.77783 309.325Q544.40283 308.825 545.34033 308.825Q546.02783 308.825 546.54346 309.10626Q547.0747 309.3875 547.41846 309.91876Q547.7622 310.4344 547.9497 311.1844Q548.1372 311.9344 548.1372 313.21564Q548.1372 314.73126 547.8247 315.65314Q547.52783 316.575 546.90283 317.09064Q546.29346 317.59064 545.34033 317.59064Q544.10596 317.59064 543.3872 316.7Q542.54346 315.6375 542.54346 313.21564ZM543.6216 313.21564Q543.6216 315.325 544.1216 316.02814Q544.6216 316.73126 545.34033 316.73126Q546.0747 316.73126 546.5591 316.02814Q547.0591 315.325 547.0591 313.21564Q547.0591 311.09064 546.5591 310.40314Q546.0747 309.7 545.3247 309.7Q544.60596 309.7 544.16846 310.3094Q543.6216 311.09064 543.6216 313.21564ZM553.5122 317.45L552.46533 317.45L552.46533 310.73126Q552.0747 311.09064 551.4497 311.46564Q550.84033 311.825 550.35596 311.9969L550.35596 310.98126Q551.23096 310.5594 551.8872 309.98126Q552.5591 309.3875 552.84033 308.825L553.5122 308.825L553.5122 317.45ZM556.6997 315.46564L557.71533 315.3719Q557.84033 316.09064 558.1997 316.41876Q558.5747 316.73126 559.1372 316.73126Q559.6216 316.73126 559.98096 316.5125Q560.35596 316.27814 560.59033 315.91876Q560.8247 315.54376 560.98096 314.91876Q561.1372 314.27814 561.1372 313.6219Q561.1372 313.54376 561.1372 313.40314Q560.8247 313.90314 560.27783 314.23126Q559.73096 314.54376 559.09033 314.54376Q558.0122 314.54376 557.27783 313.77814Q556.54346 312.9969 556.54346 311.73126Q556.54346 310.41876 557.3091 309.6219Q558.09033 308.825 559.2466 308.825Q560.0747 308.825 560.7622 309.27814Q561.46533 309.73126 561.8247 310.575Q562.1841 311.40314 562.1841 312.98126Q562.1841 314.6219 561.8247 315.60626Q561.48096 316.575 560.7622 317.09064Q560.0591 317.59064 559.1216 317.59064Q558.10596 317.59064 557.46533 317.04376Q556.8247 316.48126 556.6997 315.46564ZM561.0122 311.66876Q561.0122 310.7625 560.52783 310.23126Q560.0591 309.7 559.3716 309.7Q558.66846 309.7 558.1372 310.27814Q557.6216 310.84064 557.6216 311.7625Q557.6216 312.575 558.1216 313.09064Q558.6216 313.60626 559.34033 313.60626Q560.0747 313.60626 560.54346 313.09064Q561.0122 312.575 561.0122 311.66876Z" fill-rule="nonzero"/></svg>