<?xml version="1.0" encoding="UTF-8"?><svg id="_レイヤー_1" xmlns="http://www.w3.org/2000/svg" viewBox="0 0 470 70"><defs><style>.cls-1{fill:#64736e;}.cls-1,.cls-2,.cls-3{stroke-width:0px;}.cls-2{fill:#7fccbe;}.cls-3{fill:#f16786;}</style></defs><polygon class="cls-1" points="172.5 15.94 172.5 21.93 158.75 21.93 158.75 54.06 151.57 54.06 151.57 21.93 137.81 21.93 137.81 15.94 172.5 15.94"/><path class="cls-1" d="M187.38,54.06V15.94h19.7c1.92,0,3.64.28,5.17.84,1.53.56,2.84,1.35,3.91,2.37s1.9,2.25,2.47,3.7.86,3.05.86,4.83c0,1.36-.19,2.63-.59,3.79-.4,1.17-.96,2.22-1.68,3.14-.72.93-1.59,1.72-2.59,2.4-1,.67-2.09,1.19-3.29,1.56l8.82,15.5h-7.9l-8.33-14.7h-9.36v14.7h-7.19ZM194.57,21.93v11.43h12.52c.91,0,1.69-.16,2.34-.48.65-.32,1.2-.74,1.63-1.26.44-.52.76-1.13.96-1.81.2-.69.31-1.4.31-2.15s-.1-1.46-.31-2.15c-.2-.7-.52-1.31-.96-1.83-.44-.52-.98-.95-1.63-1.26-.66-.32-1.44-.48-2.34-.48h-12.52Z"/><path class="cls-1" d="M261.91,44.69h-16.8l-4.18,9.37h-7.47l17.05-38.12h5.85l17.31,38.12h-7.47l-4.28-9.37h0ZM247.81,38.7h11.32l-5.72-12.52-5.61,12.52Z"/><path class="cls-1" d="M291.21,35c0,1.97.3,3.79.91,5.46.59,1.67,1.43,3.1,2.5,4.31,1.08,1.21,2.36,2.16,3.85,2.82,1.49.68,3.12,1.02,4.89,1.02.85,0,1.63-.07,2.35-.18.71-.13,1.36-.3,1.96-.51.61-.21,1.15-.45,1.64-.73.48-.27.92-.55,1.29-.83.86-.66,1.59-1.41,2.16-2.27h7.84c-.85,1.96-2.03,3.72-3.56,5.26-.66.66-1.43,1.3-2.3,1.92-.87.62-1.87,1.19-2.98,1.68-1.12.49-2.38.89-3.77,1.19-1.38.3-2.93.45-4.61.45-2.71,0-5.25-.49-7.59-1.46-2.34-.98-4.39-2.35-6.12-4.09-1.75-1.75-3.12-3.82-4.11-6.2-1.01-2.4-1.5-5.01-1.5-7.85s.5-5.46,1.5-7.85c.99-2.39,2.37-4.47,4.11-6.21,1.73-1.74,3.78-3.1,6.13-4.09,2.35-.97,4.88-1.46,7.6-1.46,1.68,0,3.22.15,4.61.45,1.39.3,2.65.7,3.77,1.19,1.11.5,2.11,1.06,2.99,1.69.87.63,1.65,1.27,2.3,1.92,1.52,1.54,2.71,3.3,3.56,5.26h-7.84c-.56-.84-1.29-1.59-2.15-2.26-.37-.28-.81-.56-1.29-.83-.49-.26-1.03-.5-1.64-.72-.6-.21-1.25-.38-1.97-.52-.71-.14-1.49-.2-2.34-.2-1.77,0-3.4.33-4.89,1.02-1.49.67-2.77,1.61-3.85,2.82-1.07,1.21-1.9,2.64-2.5,4.31-.61,1.68-.91,3.5-.91,5.47Z"/><polygon class="cls-1" points="362.1 31.63 362.1 37.61 342.62 37.61 342.62 48.07 364.98 48.07 364.98 54.06 335.43 54.06 335.43 15.94 364.72 15.94 364.72 21.93 342.62 21.93 342.62 31.63 362.1 31.63"/><rect class="cls-3" x="51.48" y="6.86" width="15.52" height="15.52" transform="translate(7.01 46.18) rotate(-45.01)"/><rect class="cls-3" x="31.1" y="27.25" width="15.52" height="15.52" transform="translate(-13.37 37.73) rotate(-45)"/><rect class="cls-3" x="71.85" y="27.23" width="15.52" height="15.52" transform="translate(-1.44 66.52) rotate(-44.98)"/><rect class="cls-2" x="51.48" y="47.61" width="15.53" height="15.52" transform="translate(-21.8 58.12) rotate(-45.01)"/><rect class="cls-2" x="10.72" y="47.61" width="15.52" height="15.52" transform="translate(-33.75 29.3) rotate(-45.01)"/><rect class="cls-2" x="92.23" y="47.61" width="15.52" height="15.53" transform="translate(-9.87 86.91) rotate(-44.99)"/><rect class="cls-2" x="24.68" y="53.74" width="70.18" height="3.37"/><rect class="cls-3" x="40.67" y="33.25" width="39" height="3.38"/><polygon class="cls-1" points="443.5 31.6 454.07 15.94 462.49 15.94 447.09 38.64 447.09 54.06 439.91 54.06 439.91 38.64 424.48 15.94 432.94 15.94 443.5 31.6"/><path class="cls-1" d="M381.64,54.06V15.94h19.7c1.92,0,3.64.28,5.17.84,1.53.56,2.84,1.35,3.91,2.37s1.9,2.25,2.47,3.7.86,3.05.86,4.83c0,1.36-.19,2.63-.59,3.79-.4,1.17-.96,2.22-1.68,3.14-.72.93-1.59,1.72-2.59,2.4-1,.67-2.09,1.19-3.29,1.56l8.82,15.5h-7.9l-8.33-14.7h-9.36v14.7h-7.19ZM388.83,21.93v11.43h12.52c.91,0,1.69-.16,2.34-.48.65-.32,1.2-.74,1.63-1.26.44-.52.76-1.13.96-1.81.2-.69.31-1.4.31-2.15s-.1-1.46-.31-2.15c-.2-.7-.52-1.31-.96-1.83-.44-.52-.98-.95-1.63-1.26-.66-.32-1.44-.48-2.34-.48h-12.52Z"/></svg>