<svg fill="none" height="331" viewBox="0 0 398 331" width="398" xmlns="http://www.w3.org/2000/svg" xmlns:xlink="http://www.w3.org/1999/xlink"><filter id="a" color-interpolation-filters="sRGB" filterUnits="userSpaceOnUse" height="16.0625" width="16.0625" x="281" y="236"><feFlood flood-opacity="0" result="BackgroundImageFix"/><feColorMatrix in="SourceAlpha" result="hardAlpha" type="matrix" values="0 0 0 0 0 0 0 0 0 0 0 0 0 0 0 0 0 0 127 0"/><feOffset/><feComposite in2="hardAlpha" operator="out"/><feColorMatrix type="matrix" values="0 0 0 0 0 0 0 0 0 0 0 0 0 0 0 0 0 0 0.25 0"/><feBlend in2="BackgroundImageFix" mode="normal" result="effect1_dropShadow_2001_4590"/><feBlend in="SourceGraphic" in2="effect1_dropShadow_2001_4590" mode="normal" result="shape"/></filter><linearGradient id="b"><stop offset=".120192" stop-color="#ffd778"/><stop offset=".379808" stop-color="#ff4a2a"/><stop offset=".586538" stop-color="#ff1ea1"/><stop offset=".822115" stop-color="#a622b2"/></linearGradient><linearGradient id="c" gradientUnits="userSpaceOnUse" x1="193.203" x2="193.203" xlink:href="#b" y1="-.001078" y2="251.468"/><linearGradient id="d" gradientUnits="userSpaceOnUse" x1="193.203" x2="193.203" xlink:href="#b" y1=".000625" y2="251.47"/><linearGradient id="e" gradientUnits="userSpaceOnUse" x1="193.203" x2="193.203" xlink:href="#b" y1="-.001378" y2="251.468"/><linearGradient id="f" gradientUnits="userSpaceOnUse" x1="193.203" x2="193.203" xlink:href="#b" y1="-.0009" y2="251.468"/><linearGradient id="g" gradientUnits="userSpaceOnUse" x1="193.203" x2="193.203" xlink:href="#b" y1="-.001915" y2="251.467"/><linearGradient id="h" gradientUnits="userSpaceOnUse" x1="193.203" x2="193.203" xlink:href="#b" y1="0" y2="251.469"/><clipPath id="i"><path d="m0 0h398v331h-398z"/></clipPath><g clip-path="url(#i)"><path d="m288.962 161.922c-2.291 2.936-4.742 5.742-7.34 8.407h-146.513c-2.598-2.665-5.049-5.471-7.339-8.407z" fill="url(#c)"/><path d="m299.107 146.059c-1.605 3.122-3.37 6.149-5.284 9.073h-170.914c-1.914-2.924-3.679-5.951-5.284-9.073z" fill="url(#d)"/><path d="m305.179 131.516c-1.119 3.422-2.419 6.763-3.888 10.013h-185.851c-1.469-3.25-2.769-6.591-3.888-10.013z" fill="url(#e)"/><path d="m308.69 117.285c-.672 3.964-1.578 7.85-2.704 11.643h-195.24c-1.126-3.793-2.033-7.679-2.704-11.643z" fill="url(#f)"/><path d="m310.032 103.953c-.133 3.967-.498 7.876-1.083 11.714h-201.167c-.585-3.838-.95-7.747-1.083-11.714z" fill="url(#g)"/><path d="m208.366 0c56.181.0001 101.725 45.023 101.725 100.561 0 .485-.005.97-.012 1.453h-203.427c-.007-.483-.012-.968-.012-1.453 0-55.538 45.544-100.561 101.726-100.561z" fill="url(#h)"/><g fill="#680579"><path d="m186.781 51.9785c.255-.285-4.933 14.059-3.257 39.75 1.649 25.1465 9.327 61.1165 26.808 84.0785 0 0 6.41 1.249 10.504-2.374 0 0-8.118-6.921-16.094-23.27-4.185-8.556-10.454-28.574-10.844-31.179-1.188-7.809-3.887-15.27-5.151-33.8145-1.281-18.538.464-23.58 1.438-31.256 0 0 .697-5.542-3.397-1.919z"/><path d="m201.003 76.5181c1.146 6.992.625 13.861-1.248 20.229 7.088-5.541 11.014-14.673 9.469-24.193-1.806-11.101-10.538-19.345-21.056-21.058 6.581 6.552 11.236 15.148 12.835 25.022z"/><path d="m211.593 54.9356c5.674 2.027 10.612 5.152 14.656 9.005-1.38-7.083-6.68-13.458-14.396-16.232-9.01-3.23-18.589-.565-23.991 5.953 7.474-1.877 15.736-1.591 23.731 1.274z"/><path d="m173.54 61.9683c5.087-4.752 10.984-8.093 17.205-10.058-8.411-2.752-18.024-.958-24.93 5.5-8.071 7.55-10.033 19.184-5.67 28.706 1.755-8.951 6.235-17.457 13.395-24.163z"/><path d="m171.572 52.0149c5.951-1.526 11.943-1.561 17.611-.331-5.408-5.963-13.64-8.83-21.736-6.754-9.443 2.416-15.826 10.841-16.408 20.41 5.106-6.374 12.141-11.163 20.533-13.31z"/><path d="m199.869 42.6306c-4.449 3.195-7.934 7.227-10.39 11.729-.837-6.9 2.019-14.0379 8.06-18.3954 7.068-5.0687 16.348-4.8008 23.023.0261-7.172-.0226-14.428 2.1374-20.708 6.6393z"/><path d="m179.395 40.3768c4.442 3.9312 7.663 8.7771 9.639 14.0971 2.126-7.884.156-16.2577-5.879-21.6085-7.057-6.2476-17.532-6.4849-25.87-1.3421 8.068.4017 15.842 3.3083 22.11 8.8535z"/><path d="m238.861 89.6483c.284-.116-8.002 7.792-14.245 24.9177-6.104 16.766-10.664 42.184-3.713 61.807 0 0 4.658 2.542 8.933 1.296 0 0-4.329-6.684-5.773-19.448-.764-6.684.209-21.368.669-23.164 1.366-5.389 1.444-10.96 5.908-23.337 4.449-12.3767 7.299-15.1787 10.32-19.8967 0 0 2.177-3.408-2.098-2.163z"/><path d="m242.696 111.319c-.996 5.227-3.183 9.881-6.232 13.786 6.662-1.798 11.945-7.036 13.312-14.149 1.59-8.296-2.657-16.6232-9.932-20.9052 3.112 6.513 4.272 13.8912 2.852 21.2682z"/><path d="m256.145 99.3264c3.635 3.0806 6.44 6.7146 8.398 10.5956.848-5.36-1.369-11.3736-6.308-15.5756-5.769-4.901-13.504-5.845-19.185-2.868 5.983.878 11.976 3.5 17.095 7.848z"/><path d="m226.351 93.0908c4.984-1.833 10.194-2.442 15.279-1.993-5.454-4.391-12.986-5.954-19.756-3.461-7.911 2.917-12.409 10.48-11.706 18.4212 3.64-5.747 9.166-10.3852 16.187-12.9772z"/><path d="m227.521 85.5513c4.771.677 9.181 2.409 13.021 4.931-2.405-5.757-7.697-10.177-14.19-11.097-7.57-1.079-14.472 2.945-17.413 9.469 5.424-2.964 11.85-4.251 18.578-3.293z"/><path d="m250.767 87.2795c-4.107.931-7.726 2.73-10.713 5.159 1.198-5.072 5.171-9.228 10.754-10.506 6.523-1.474 13.268 1.434 16.902 6.768-5.262-2.119-11.159-2.735-16.954-1.426z"/><path d="m236.325 79.6988c2.229 4.052 3.321 8.3871 3.375 12.6881 3.633-4.893 4.386-11.3281 1.36-16.8411-3.542-6.439-11.173-9.6759-18.648-8.5229 5.82 2.647 10.766 6.9589 13.913 12.6759z"/></g><path d="m163.586 140.272c4.939-1.452 10.516-2.344 15.223-.511 2.693 1.049 5.089 3.001 6.492 5.917 1.318 2.739 1.399 5.572 1.072 7.911-.629 4.488-3.051 9.251-6.11 13.824-3.254 4.865-7.448 10.54-11.323 15.877-2.411 3.322-4.7 6.516-6.688 9.445 9.463-4.941 20.182-12.058 30.437-18.597 6.326-4.033 12.552-7.885 17.768-10.408 2.588-1.252 5.321-2.375 7.939-2.951 2.26-.498 6.083-.967 9.636 1.095l.342.207.304.198c3.094 2.074 4.703 5.127 5.212 8.201.469 2.829.007 5.554-.523 7.63-1.033 4.046-3.219 8.701-4.591 11.88-.227.526-.44 1.026-.637 1.502 1.137-.557 2.508-1.329 4.142-2.385 4.253-2.746 8.843-6.39 14.275-10.509 5.228-3.964 11.082-8.238 17.166-11.513 6.055-3.258 12.961-5.876 20.276-5.876h31.466c4.365 0 7.904 3.539 7.904 7.904s-3.539 7.904-7.904 7.904h-31.466c-3.618 0-7.841 1.328-12.784 3.988-4.914 2.644-9.927 6.261-15.107 10.189-4.976 3.773-10.337 8.02-15.251 11.193-4.689 3.028-10.576 6.196-16.696 6.196-2.878 0-6.419-.554-9.319-2.982-3.16-2.648-4.041-6.21-4.093-8.959-.049-2.572.586-5.052 1.208-6.983.65-2.019 1.508-4.084 2.307-5.935.887-2.054 1.679-3.826 2.328-5.393-4.15 2.083-9.37 5.29-15.403 9.137-12.303 7.844-27.904 18.347-40.687 23.526-3.162 1.281-6.444 2.308-9.462 2.348-1.577.021-3.705-.215-5.779-1.4-2.295-1.311-3.802-3.376-4.493-5.654-1.125-3.712.103-7.33.822-9.182.901-2.319 2.237-4.795 3.684-7.2 2.911-4.84 6.949-10.495 10.874-15.902 4.023-5.542 7.943-10.844 10.976-15.38.908-1.357 1.6-2.527 2.123-3.514-.369.094-.77.201-1.201.328-3.915 1.151-9.282 3.417-16.193 7.137-15.925 8.573-15.723 8.766-23.853 13.206-6.359 3.473-20.28 13.087-36.1272 13.75l-.165.008h-18.2276c-4.3652 0-7.9039-3.539-7.904-7.904 0-4.365 3.5388-7.904 7.904-7.904h17.8636c11.0482-.512 20.4992-7.139 29.0802-11.825 6.843-3.737 8.639-5.015 23.936-13.25 7.439-4.004 13.872-6.809 19.227-8.384z" fill="#ffd779"/><path d="m163.586 137.272c4.939-1.452 10.516-2.344 15.223-.511 2.693 1.049 5.089 3.001 6.492 5.917 1.318 2.739 1.399 5.572 1.072 7.911-.629 4.488-3.051 9.251-6.11 13.824-3.254 4.865-7.448 10.54-11.323 15.877-2.411 3.322-4.7 6.516-6.688 9.445 9.463-4.941 20.182-12.058 30.437-18.597 6.326-4.033 12.552-7.885 17.768-10.408 2.588-1.252 5.321-2.375 7.939-2.951 2.26-.498 6.083-.967 9.636 1.095l.342.207.304.198c3.094 2.074 4.703 5.127 5.212 8.201.469 2.829.007 5.554-.523 7.63-1.033 4.046-3.219 8.701-4.591 11.88-.227.526-.44 1.026-.637 1.502 1.137-.557 2.508-1.329 4.142-2.385 4.253-2.746 8.843-6.39 14.275-10.509 5.228-3.964 11.082-8.238 17.166-11.513 6.055-3.258 12.961-5.876 20.276-5.876h31.466c4.365 0 7.904 3.539 7.904 7.904s-3.539 7.904-7.904 7.904h-31.466c-3.618 0-7.841 1.328-12.784 3.988-4.914 2.644-9.927 6.261-15.107 10.189-4.976 3.773-10.337 8.02-15.251 11.193-4.689 3.028-10.576 6.196-16.696 6.196-2.878 0-6.419-.554-9.319-2.982-3.16-2.648-4.041-6.21-4.093-8.959-.049-2.572.586-5.052 1.208-6.983.65-2.019 1.508-4.084 2.307-5.935.887-2.054 1.679-3.826 2.328-5.393-4.15 2.083-9.37 5.29-15.403 9.137-12.303 7.844-27.904 18.347-40.687 23.526-3.162 1.281-6.444 2.308-9.462 2.348-1.577.021-3.705-.215-5.779-1.4-2.295-1.311-3.802-3.376-4.493-5.654-1.125-3.712.103-7.33.822-9.182.901-2.319 2.237-4.795 3.684-7.2 2.911-4.84 6.949-10.495 10.874-15.902 4.023-5.542 7.943-10.844 10.976-15.38.908-1.357 1.6-2.527 2.123-3.514-.369.094-.77.201-1.201.328-3.915 1.151-9.282 3.417-16.193 7.137-15.925 8.573-15.723 8.766-23.853 13.206-6.359 3.473-20.28 13.087-36.1272 13.75l-.165.008h-18.2276c-4.3652 0-7.9039-3.539-7.904-7.904 0-4.365 3.5388-7.904 7.904-7.904h17.8636c11.0482-.512 20.4992-7.139 29.0802-11.825 6.843-3.737 8.639-5.015 23.936-13.25 7.439-4.004 13.872-6.809 19.227-8.384z" fill="#dd04d2"/><path d="m163.586 132.272c4.939-1.452 10.516-2.344 15.223-.511 2.693 1.049 5.089 3.001 6.492 5.917 1.318 2.739 1.399 5.572 1.072 7.911-.629 4.488-3.051 9.251-6.11 13.824-3.254 4.865-7.448 10.54-11.323 15.877-2.411 3.322-4.7 6.516-6.688 9.445 9.463-4.941 20.182-12.058 30.437-18.597 6.326-4.033 12.552-7.885 17.768-10.408 2.588-1.252 5.321-2.375 7.939-2.951 2.26-.498 6.083-.967 9.636 1.095l.342.207.304.198c3.094 2.074 4.703 5.127 5.212 8.201.469 2.829.007 5.554-.523 7.63-1.033 4.046-3.219 8.701-4.591 11.88-.227.526-.44 1.026-.637 1.502 1.137-.557 2.508-1.329 4.142-2.385 4.253-2.746 8.843-6.39 14.275-10.509 5.228-3.964 11.082-8.238 17.166-11.513 6.055-3.258 12.961-5.876 20.276-5.876h31.466c4.365 0 7.904 3.539 7.904 7.904s-3.539 7.904-7.904 7.904h-31.466c-3.618 0-7.841 1.328-12.784 3.988-4.914 2.644-9.927 6.261-15.107 10.189-4.976 3.773-10.337 8.02-15.251 11.193-4.689 3.028-10.576 6.196-16.696 6.196-2.878 0-6.419-.554-9.319-2.982-3.16-2.648-4.041-6.21-4.093-8.959-.049-2.572.586-5.052 1.208-6.983.65-2.019 1.508-4.084 2.307-5.935.887-2.054 1.679-3.826 2.328-5.393-4.15 2.083-9.37 5.29-15.403 9.137-12.303 7.844-27.904 18.347-40.687 23.526-3.162 1.281-6.444 2.308-9.462 2.348-1.577.021-3.705-.215-5.779-1.4-2.295-1.311-3.802-3.376-4.493-5.654-1.125-3.712.103-7.33.822-9.182.901-2.319 2.237-4.795 3.684-7.2 2.911-4.84 6.949-10.495 10.874-15.902 4.023-5.542 7.943-10.844 10.976-15.38.908-1.357 1.6-2.527 2.123-3.514-.369.094-.77.201-1.201.328-3.915 1.151-9.282 3.417-16.193 7.137-15.925 8.573-15.723 8.766-23.853 13.206-6.359 3.473-20.28 13.087-36.1272 13.75l-.165.008h-18.2276c-4.3652 0-7.9039-3.539-7.904-7.904 0-4.365 3.5388-7.904 7.904-7.904h17.8636c11.0482-.512 20.4992-7.139 29.0802-11.825 6.843-3.737 8.639-5.015 23.936-13.25 7.439-4.004 13.872-6.809 19.227-8.384z" fill="#25c8eb"/><path d="m313.062 160.407c1.347 0 2.439-.99 2.439-2.211s-1.092-2.212-2.439-2.212c-1.348 0-2.44.991-2.44 2.212s1.092 2.211 2.44 2.211z" fill="#000"/><path d="m312.25 158.197c.3 0 .542-.33.542-.737s-.242-.737-.542-.737c-.299 0-.542.33-.542.737s.243.737.542.737z" fill="#fff"/><path d="m76.9658 173.314c1.3473 0 2.4395-.99 2.4395-2.212 0-1.221-1.0922-2.211-2.4395-2.211-1.3472 0-2.4394.99-2.4394 2.211 0 1.222 1.0922 2.212 2.4394 2.212z" fill="#000"/><path d="m77.7784 171.47c.2994 0 .5421-.33.5421-.737s-.2427-.737-.5421-.737-.5421.33-.5421.737.2427.737.5421.737z" fill="#fff"/><path d="m286.673 88.8226c-.103-.361-.102-.652.005-.872.118-.214.295-.37.531-.469s.497-.163.785-.193c.29-.019.563-.023.82-.012l3.156.176c.279.016.524.004.734-.035.224-.032.385-.115.484-.249.102-.124.113-.323.035-.596-.094-.332-.347-.662-.757-.988-.407-.317-.936-.615-1.586-.894s-1.396-.526-2.239-.739c-.83-.207-1.725-.363-2.685-.469l1.298-.45c1.014.112 1.933.277 2.756.496.833.217 1.563.483 2.193.8.629.317 1.137.673 1.525 1.07.4.403.669.844.805 1.322.129.45.115.828-.04 1.137-.145.305-.428.534-.849.686-.422.152-.98.211-1.677.177l-3.492-.191c-.202-.005-.349 0-.439.015-.088.025-.141.061-.16.109-.018.047-.02.095-.006.144.028.098.085.187.172.268.099.088.224.174.374.258.163.09.348.18.553.27.12.05.196.113.228.188.042.073.039.174-.009.303-.053.185-.124.305-.213.362-.087.067-.187.085-.302.055-.171-.046-.397-.135-.678-.266-.277-.122-.544-.299-.801-.532-.247-.236-.42-.529-.521-.881zm-1.694-5.933c-.044-.156-.052-.312-.023-.468.03-.157.145-.232.348-.226l12.459.466c1.246.035 2.19.199 2.833.49.646.302 1.058.765 1.237 1.39.092.322.097.617.014.883-.079.276-.233.516-.46.718-.215.209-.489.361-.821.456-.263.075-.558.117-.883.125-.315.006-.66-.017-1.033-.069-.362-.045-.754-.123-1.176-.234-.411-.105-.842-.246-1.294-.423-.439-.171-.897-.367-1.372-.591-.466-.226-.952-.483-1.457-.772-.492-.282-.998-.592-1.517-.93l-6.277-.235c-.138-.003-.251-.045-.337-.126-.096-.078-.177-.229-.241-.454zm8.665.885c.412.22.823.42 1.233.599.413.188.819.352 1.218.491.401.15.787.278 1.155.384.378.103.736.175 1.075.215.342.051.66.071.952.061.306-.003.581-.039.825-.108.137-.04.248-.093.335-.159.086-.067.143-.147.169-.239.037-.095.038-.201.005-.318-.045-.156-.157-.288-.335-.396-.169-.11-.451-.193-.848-.249-.396-.056-.952-.098-1.667-.126z" fill="#25c8eb"/><path d="m286.673 88.8226c-.103-.361-.102-.652.005-.872.118-.214.295-.37.531-.469s.497-.163.785-.193c.29-.019.563-.023.82-.012l3.156.176c.279.016.524.004.734-.035.224-.032.385-.115.484-.249.102-.124.113-.323.035-.596-.094-.332-.347-.662-.757-.988-.407-.317-.936-.615-1.586-.894s-1.396-.526-2.239-.739c-.83-.207-1.725-.363-2.685-.469l1.298-.45c1.014.112 1.933.277 2.756.496.833.217 1.563.483 2.193.8.629.317 1.137.673 1.525 1.07.4.403.669.844.805 1.322.129.45.115.828-.04 1.137-.145.305-.428.534-.849.686-.422.152-.98.211-1.677.177l-3.492-.191c-.202-.005-.349 0-.439.015-.088.025-.141.061-.16.109-.018.047-.02.095-.006.144.028.098.085.187.172.268.099.088.224.174.374.258.163.09.348.18.553.27.12.05.196.113.228.188.042.073.039.174-.009.303-.053.185-.124.305-.213.362-.087.067-.187.085-.302.055-.171-.046-.397-.135-.678-.266-.277-.122-.544-.299-.801-.532-.247-.236-.42-.529-.521-.881zm-1.694-5.933c-.044-.156-.052-.312-.023-.468.03-.157.145-.232.348-.226l12.459.466c1.246.035 2.19.199 2.833.49.646.302 1.058.765 1.237 1.39.092.322.097.617.014.883-.079.276-.233.516-.46.718-.215.209-.489.361-.821.456-.263.075-.558.117-.883.125-.315.006-.66-.017-1.033-.069-.362-.045-.754-.123-1.176-.234-.411-.105-.842-.246-1.294-.423-.439-.171-.897-.367-1.372-.591-.466-.226-.952-.483-1.457-.772-.492-.282-.998-.592-1.517-.93l-6.277-.235c-.138-.003-.251-.045-.337-.126-.096-.078-.177-.229-.241-.454zm8.665.885c.412.22.823.42 1.233.599.413.188.819.352 1.218.491.401.15.787.278 1.155.384.378.103.736.175 1.075.215.342.051.66.071.952.061.306-.003.581-.039.825-.108.137-.04.248-.093.335-.159.086-.067.143-.147.169-.239.037-.095.038-.201.005-.318-.045-.156-.157-.288-.335-.396-.169-.11-.451-.193-.848-.249-.396-.056-.952-.098-1.667-.126z" fill="#680579"/><path d="m283.288 78.3152c-.052-.132-.03-.244.065-.336.082-.097.197-.165.346-.201.155-.05.301-.053.439-.009.147.041.246.127.298.26.26.662.75 1.271 1.47 1.829.73.553 1.615 1.03 2.656 1.429 1.053.405 2.193.711 3.419.917.234.039.354.123.361.251.01.138-.051.26-.184.367-.119.112-.278.153-.476.121-1.079-.166-2.08-.395-3.002-.688-.919-.283-1.744-.619-2.475-1.009-.725-.403-1.337-.85-1.835-1.342-.499-.492-.859-1.021-1.082-1.589z" fill="#25c8eb"/><path d="m283.288 78.3152c-.052-.132-.03-.244.065-.336.082-.097.197-.165.346-.201.155-.05.301-.053.439-.009.147.041.246.127.298.26.26.662.75 1.271 1.47 1.829.73.553 1.615 1.03 2.656 1.429 1.053.405 2.193.711 3.419.917.234.039.354.123.361.251.01.138-.051.26-.184.367-.119.112-.278.153-.476.121-1.079-.166-2.08-.395-3.002-.688-.919-.283-1.744-.619-2.475-1.009-.725-.403-1.337-.85-1.835-1.342-.499-.492-.859-1.021-1.082-1.589z" fill="#680579"/><path d="m283.343 78.4888c-.377-.965-.392-1.799-.045-2.502.356-.706.965-1.227 1.826-1.563.501-.196 1.057-.31 1.666-.341.623-.025 1.241.05 1.854.225.614.174 1.171.469 1.671.884.504.425.891.983 1.16 1.673.218.558.316 1.06.294 1.505-.019.454-.138.888-.359 1.301-.115.209-.243.313-.384.314-.128.006-.267-.027-.415-.1-.143-.086-.248-.186-.315-.302-.057-.119-.041-.273.049-.461.129-.257.193-.539.194-.844 0-.306-.082-.671-.249-1.097-.185-.473-.465-.843-.842-1.11s-.803-.45-1.277-.548c-.462-.092-.925-.119-1.389-.079-.451.045-.856.138-1.216.279-.303.118-.569.288-.799.508-.226.23-.373.511-.44.843-.057.327-.002.704.164 1.13.052.132.03.244-.065.336-.082.097-.202.166-.361.206-.149.037-.293.033-.43-.012-.143-.031-.24-.113-.292-.245z" fill="#25c8eb"/><path d="m283.343 78.4888c-.377-.965-.392-1.799-.045-2.502.356-.706.965-1.227 1.826-1.563.501-.196 1.057-.31 1.666-.341.623-.025 1.241.05 1.854.225.614.174 1.171.469 1.671.884.504.425.891.983 1.16 1.673.218.558.316 1.06.294 1.505-.019.454-.138.888-.359 1.301-.115.209-.243.313-.384.314-.128.006-.267-.027-.415-.1-.143-.086-.248-.186-.315-.302-.057-.119-.041-.273.049-.461.129-.257.193-.539.194-.844 0-.306-.082-.671-.249-1.097-.185-.473-.465-.843-.842-1.11s-.803-.45-1.277-.548c-.462-.092-.925-.119-1.389-.079-.451.045-.856.138-1.216.279-.303.118-.569.288-.799.508-.226.23-.373.511-.44.843-.057.327-.002.704.164 1.13.052.132.03.244-.065.336-.082.097-.202.166-.361.206-.149.037-.293.033-.43-.012-.143-.031-.24-.113-.292-.245z" fill="#680579"/><path d="m280.91 72.81c-.064-.127-.058-.25.019-.368.067-.114.169-.194.305-.24.141-.06.286-.066.436-.016.159.044.287.162.384.352.119.235.331.441.636.616.306.176.684.326 1.134.451.446.116.95.213 1.514.292.564.078 1.166.143 1.806.194.155.013.255.087.301.223.047.137.04.271-.018.403-.049.127-.151.184-.306.172-.876-.046-1.663-.114-2.358-.206-.691-.083-1.291-.2-1.801-.351-.505-.166-.926-.368-1.263-.607-.342-.248-.605-.553-.789-.915z" fill="#25c8eb"/><path d="m280.91 72.81c-.064-.127-.058-.25.019-.368.067-.114.169-.194.305-.24.141-.06.286-.066.436-.016.159.044.287.162.384.352.119.235.331.441.636.616.306.176.684.326 1.134.451.446.116.95.213 1.514.292.564.078 1.166.143 1.806.194.155.013.255.087.301.223.047.137.04.271-.018.403-.049.127-.151.184-.306.172-.876-.046-1.663-.114-2.358-.206-.691-.083-1.291-.2-1.801-.351-.505-.166-.926-.368-1.263-.607-.342-.248-.605-.553-.789-.915z" fill="#680579"/><path d="m278.898 68.7748c-.154-.309-.206-.618-.155-.926.05-.309.194-.602.431-.879.236-.276.559-.516.968-.72.418-.208.9-.369 1.445-.481.546-.113 1.113-.157 1.704-.134.59.024 1.167.123 1.73.296.563.174 1.076.44 1.538.8.477.364.857.833 1.142 1.405.172.346.294.75.366 1.214.081.459.092.901.032 1.328l-1.063.223c.014-.563-.032-1.033-.141-1.41-.099-.382-.221-.718-.366-1.009-.195-.391-.464-.705-.809-.942-.34-.227-.724-.394-1.151-.499-.413-.101-.844-.147-1.294-.139-.441.004-.861.049-1.261.135-.399.085-.745.2-1.036.345-.227.113-.413.24-.559.381-.146.14-.239.283-.28.429-.037.154-.021.299.047.436.167.336.539.627 1.116.874.585.241 1.357.424 2.315.549.963.133 2.085.199 3.366.196l-.254.756c-1.512.016-2.814-.068-3.903-.252-1.076-.179-1.941-.435-2.595-.767-.653-.333-1.098-.736-1.333-1.209zm2.091 4.201c-.203-.409-.278-.752-.223-1.029.051-.264.176-.479.376-.647.214-.163.459-.285.736-.367.287-.085.559-.142.818-.169l5.329-.747c.214-.027.368-.013.464.042.099.064.192.182.278.355.141.282.183.481.129.599-.041.123-.169.198-.382.225l-5.207.72c-.549.081-.913.171-1.09.27-.164.105-.194.261-.09.47.064.128.057.25-.021.368-.068.114-.175.195-.32.245-.132.054-.273.056-.423.006-.154-.036-.279-.15-.374-.341z" fill="#25c8eb"/><path d="m278.898 68.7748c-.154-.309-.206-.618-.155-.926.05-.309.194-.602.431-.879.236-.276.559-.516.968-.72.418-.208.9-.369 1.445-.481.546-.113 1.113-.157 1.704-.134.59.024 1.167.123 1.73.296.563.174 1.076.44 1.538.8.477.364.857.833 1.142 1.405.172.346.294.75.366 1.214.081.459.092.901.032 1.328l-1.063.223c.014-.563-.032-1.033-.141-1.41-.099-.382-.221-.718-.366-1.009-.195-.391-.464-.705-.809-.942-.34-.227-.724-.394-1.151-.499-.413-.101-.844-.147-1.294-.139-.441.004-.861.049-1.261.135-.399.085-.745.2-1.036.345-.227.113-.413.24-.559.381-.146.14-.239.283-.28.429-.037.154-.021.299.047.436.167.336.539.627 1.116.874.585.241 1.357.424 2.315.549.963.133 2.085.199 3.366.196l-.254.756c-1.512.016-2.814-.068-3.903-.252-1.076-.179-1.941-.435-2.595-.767-.653-.333-1.098-.736-1.333-1.209zm2.091 4.201c-.203-.409-.278-.752-.223-1.029.051-.264.176-.479.376-.647.214-.163.459-.285.736-.367.287-.085.559-.142.818-.169l5.329-.747c.214-.027.368-.013.464.042.099.064.192.182.278.355.141.282.183.481.129.599-.041.123-.169.198-.382.225l-5.207.72c-.549.081-.913.171-1.09.27-.164.105-.194.261-.09.47.064.128.057.25-.021.368-.068.114-.175.195-.32.245-.132.054-.273.056-.423.006-.154-.036-.279-.15-.374-.341z" fill="#680579"/><path d="m276.158 63.6926c-.163-.293-.258-.577-.285-.853-.04-.28-.023-.552.051-.814.078-.277.203-.532.374-.768.166-.244.367-.467.603-.669.245-.207.518-.394.82-.563.434-.243.936-.448 1.506-.616.569-.167 1.148-.246 1.735-.237.59-.005 1.142.118 1.653.367.516.235.932.636 1.25 1.203.069.125.061.234-.026.329-.086.095-.208.169-.365.222-.161.043-.32.051-.476.022-.161-.038-.276-.119-.346-.243-.168-.302-.432-.492-.79-.571-.354-.092-.748-.111-1.182-.054-.434.056-.859.16-1.275.311-.412.138-.764.288-1.057.452-.248.139-.466.29-.654.453-.179.158-.316.329-.413.51-.096.182-.141.382-.135.6.014.213.088.439.222.679.218.39.581.716 1.089.979.517.258 1.232.486 2.146.685.914.198 2.073.388 3.477.568.087.01.134.082.14.219.011.145-.005.282-.049.411-.035.125-.089.184-.162.178-1.241-.097-2.311-.22-3.209-.369-.885-.146-1.632-.327-2.242-.544-.601-.222-1.094-.488-1.476-.798-.383-.31-.691-.673-.924-1.089z" fill="#25c8eb"/><path d="m276.158 63.6926c-.163-.293-.258-.577-.285-.853-.04-.28-.023-.552.051-.814.078-.277.203-.532.374-.768.166-.244.367-.467.603-.669.245-.207.518-.394.82-.563.434-.243.936-.448 1.506-.616.569-.167 1.148-.246 1.735-.237.59-.005 1.142.118 1.653.367.516.235.932.636 1.25 1.203.069.125.061.234-.026.329-.086.095-.208.169-.365.222-.161.043-.32.051-.476.022-.161-.038-.276-.119-.346-.243-.168-.302-.432-.492-.79-.571-.354-.092-.748-.111-1.182-.054-.434.056-.859.16-1.275.311-.412.138-.764.288-1.057.452-.248.139-.466.29-.654.453-.179.158-.316.329-.413.51-.096.182-.141.382-.135.6.014.213.088.439.222.679.218.39.581.716 1.089.979.517.258 1.232.486 2.146.685.914.198 2.073.388 3.477.568.087.01.134.082.14.219.011.145-.005.282-.049.411-.035.125-.089.184-.162.178-1.241-.097-2.311-.22-3.209-.369-.885-.146-1.632-.327-2.242-.544-.601-.222-1.094-.488-1.476-.798-.383-.31-.691-.673-.924-1.089z" fill="#680579"/><path d="m273.422 59.2828c-.074-.121-.077-.244-.01-.368.058-.119.153-.207.285-.263.136-.071.28-.088.434-.05.162.032.298.139.409.321.17.277.455.579.856.906.404.312.877.619 1.417.92.546.31 1.109.579 1.689.808.524.216 1.032.388 1.526.515s.944.192 1.35.194c.411.011.742-.06.994-.213.199-.122.329-.26.389-.416.06-.155.037-.319-.069-.493-.074-.121-.077-.244-.01-.368.072-.116.183-.207.332-.274s.305-.085.467-.053c.168.04.307.152.418.334.159.26.248.533.267.818.028.281-.025.545-.159.793-.12.252-.323.465-.609.639-.391.238-.879.364-1.466.376-.573.017-1.196-.05-1.87-.198-.664-.154-1.332-.371-2.003-.652-.679-.276-1.333-.597-1.961-.964-.614-.363-1.154-.742-1.62-1.135-.471-.403-.823-.795-1.056-1.177z" fill="#25c8eb"/><path d="m273.422 59.2828c-.074-.121-.077-.244-.01-.368.058-.119.153-.207.285-.263.136-.071.28-.088.434-.05.162.032.298.139.409.321.17.277.455.579.856.906.404.312.877.619 1.417.92.546.31 1.109.579 1.689.808.524.216 1.032.388 1.526.515s.944.192 1.35.194c.411.011.742-.06.994-.213.199-.122.329-.26.389-.416.06-.155.037-.319-.069-.493-.074-.121-.077-.244-.01-.368.072-.116.183-.207.332-.274s.305-.085.467-.053c.168.04.307.152.418.334.159.26.248.533.267.818.028.281-.025.545-.159.793-.12.252-.323.465-.609.639-.391.238-.879.364-1.466.376-.573.017-1.196-.05-1.87-.198-.664-.154-1.332-.371-2.003-.652-.679-.276-1.333-.597-1.961-.964-.614-.363-1.154-.742-1.62-1.135-.471-.403-.823-.795-1.056-1.177z" fill="#680579"/><path d="m270.994 56.6144c-.339-.432-.633-.905-.881-1.419-.243-.507-.418-1.002-.526-1.485-.043-.186-.014-.338.087-.456.109-.125.289-.208.541-.25.186-.042.335-.024.449.054.113.079.184.211.212.395.07.385.205.795.405 1.232.215.438.466.841.755 1.208.351.448.744.81 1.181 1.087.451.279.921.459 1.411.54.489.08.972.063 1.449-.053.491-.114.949-.338 1.372-.67.4-.313.688-.662.865-1.046.184-.39.265-.821.243-1.294-.016-.465-.147-.969-.393-1.512-.186-.073-.365-.178-.537-.315-.165-.128-.298-.256-.398-.384-.157-.2-.229-.408-.218-.623.012-.216.093-.383.245-.502.136-.107.287-.161.454-.163.181.001.352.047.515.139.177.093.334.228.472.404.094.12.178.26.253.421.089.163.155.33.2.502.338.25.689.459 1.052.626.37.175.734.302 1.094.382.367.073.725.102 1.074.086.364-.014.705-.081 1.023-.202.325-.113.623-.275.894-.489.248-.194.423-.415.526-.663.11-.254.135-.526.076-.815-.052-.282-.201-.578-.446-.89-.269-.343-.631-.64-1.085-.891-.449-.242-.969-.428-1.561-.557s-1.238-.197-1.939-.202-1.439.051-2.212.167c-.76.118-1.536.313-2.328.587l-7.257 2.671c-.136.056-.271.058-.402.006s-.268-.17-.413-.354c-.138-.176-.213-.33-.226-.461-.013-.132.06-.228.219-.289l11.965-4.37c-.357-.043-.714-.104-1.074-.184-.359-.079-.728-.171-1.106-.275-.364-.101-.748-.213-1.153-.334-.244-.08-.389-.192-.437-.335s-.034-.315.041-.516c.065-.18.16-.306.284-.378.132-.078.302-.076.509.007.666.24 1.307.44 1.924.602.631.163 1.246.28 1.845.353.607.066 1.192.079 1.754.038.211-.011.371.005.482.048.111.042.235.151.373.327.144.184.22.337.226.461.013.132-.063.224-.228.276l-2.407.881c.599.008 1.161.057 1.685.15.531.1 1.017.235 1.46.404.456.171.858.379 1.205.623.361.246.663.525.908.837.395.503.638 1.003.73 1.499.106.497.067.973-.118 1.428-.171.457-.484.864-.94 1.221-.407.32-.859.551-1.353.694-.487.137-.993.191-1.517.164-.517-.033-1.028-.149-1.532-.348-.498-.19-.961-.459-1.389-.808l-.042-.005c.213.568.309 1.119.288 1.652-.014.54-.144 1.042-.388 1.504-.236.457-.577.86-1.025 1.211-.551.433-1.147.719-1.786.859-.639.139-1.287.144-1.944.014s-1.288-.383-1.893-.76c-.592-.375-1.122-.863-1.592-1.462z" fill="#25c8eb"/><path d="m270.994 56.6144c-.339-.432-.633-.905-.881-1.419-.243-.507-.418-1.002-.526-1.485-.043-.186-.014-.338.087-.456.109-.125.289-.208.541-.25.186-.042.335-.024.449.054.113.079.184.211.212.395.07.385.205.795.405 1.232.215.438.466.841.755 1.208.351.448.744.81 1.181 1.087.451.279.921.459 1.411.54.489.08.972.063 1.449-.053.491-.114.949-.338 1.372-.67.4-.313.688-.662.865-1.046.184-.39.265-.821.243-1.294-.016-.465-.147-.969-.393-1.512-.186-.073-.365-.178-.537-.315-.165-.128-.298-.256-.398-.384-.157-.2-.229-.408-.218-.623.012-.216.093-.383.245-.502.136-.107.287-.161.454-.163.181.001.352.047.515.139.177.093.334.228.472.404.094.12.178.26.253.421.089.163.155.33.2.502.338.25.689.459 1.052.626.37.175.734.302 1.094.382.367.073.725.102 1.074.086.364-.014.705-.081 1.023-.202.325-.113.623-.275.894-.489.248-.194.423-.415.526-.663.11-.254.135-.526.076-.815-.052-.282-.201-.578-.446-.89-.269-.343-.631-.64-1.085-.891-.449-.242-.969-.428-1.561-.557s-1.238-.197-1.939-.202-1.439.051-2.212.167c-.76.118-1.536.313-2.328.587l-7.257 2.671c-.136.056-.271.058-.402.006s-.268-.17-.413-.354c-.138-.176-.213-.33-.226-.461-.013-.132.06-.228.219-.289l11.965-4.37c-.357-.043-.714-.104-1.074-.184-.359-.079-.728-.171-1.106-.275-.364-.101-.748-.213-1.153-.334-.244-.08-.389-.192-.437-.335s-.034-.315.041-.516c.065-.18.16-.306.284-.378.132-.078.302-.076.509.007.666.24 1.307.44 1.924.602.631.163 1.246.28 1.845.353.607.066 1.192.079 1.754.038.211-.011.371.005.482.048.111.042.235.151.373.327.144.184.22.337.226.461.013.132-.063.224-.228.276l-2.407.881c.599.008 1.161.057 1.685.15.531.1 1.017.235 1.46.404.456.171.858.379 1.205.623.361.246.663.525.908.837.395.503.638 1.003.73 1.499.106.497.067.973-.118 1.428-.171.457-.484.864-.94 1.221-.407.32-.859.551-1.353.694-.487.137-.993.191-1.517.164-.517-.033-1.028-.149-1.532-.348-.498-.19-.961-.459-1.389-.808l-.042-.005c.213.568.309 1.119.288 1.652-.014.54-.144 1.042-.388 1.504-.236.457-.577.86-1.025 1.211-.551.433-1.147.719-1.786.859-.639.139-1.287.144-1.944.014s-1.288-.383-1.893-.76c-.592-.375-1.122-.863-1.592-1.462z" fill="#680579"/><path d="m260.141 44.0809c.247.026.487.06.72.102.24.034.473.069.698.104.226.035.433.074.624.119.204.043.391.085.559.124.161.046.253.126.275.24.023.114-.005.238-.082.373-.063.134-.156.241-.28.321-.11.08-.22.105-.33.077-.227-.064-.469-.119-.724-.167-.255-.047-.521-.097-.798-.15-.277-.039-.557-.081-.841-.126-.29-.038-.581-.076-.871-.114zm-8.63 3.106c-.406-.354-.639-.759-.699-1.216-.059-.442.068-.843.382-1.203.234-.268.521-.489.862-.663.326-.174.706-.308 1.138-.402.433-.094.922-.153 1.468-.176.546-.008 1.152.008 1.817.049.326.028.633.054.923.077.297.03.594.06.891.09.291.038.592.078.905.122l2.551-1.535c-.736.18-1.402.279-1.998.299-.589.025-1.099-.015-1.531-.123-.426-.114-.772-.289-1.04-.522-.26-.227-.426-.493-.497-.798-.072-.3044-.051-.6297.062-.9758.114-.346.32-.6913.621-1.0357.307-.3521.691-.6843 1.152-.9966.461-.3122.969-.5701 1.523-.7735.555-.2035 1.126-.3325 1.712-.387.587-.0545 1.162-.0039 1.727.1519.58.1547 1.11.4424 1.593.8629.153.1335.296.2857.43.4564.141.1632.272.345.394.5454s.226.4057.312.6157l.094-.0388c.119-.0585.23-.0697.333-.0335.11.0284.226.0961.348.2029.238.2069.354.3753.348.5053.009.129-.08.2466-.267.353l-9.991 5.9624c-.664.391-1.262.699-1.794.922-.532.224-1.015.361-1.451.412-.442.059-.855.023-1.238-.109-.376-.126-.736-.339-1.08-.639zm.943-.734c.229.2.51.311.843.331.332.021.734-.061 1.203-.244.471-.169 1.017-.448 1.638-.836l1.557-.927c-.168-.024-.338-.045-.512-.062s-.348-.034-.522-.05c-.174-.017-.351-.03-.531-.04-.52-.022-.988-.019-1.404.01-.407.035-.764.088-1.068.159-.297.078-.554.171-.769.28-.215.122-.393.264-.533.425-.08.092-.134.192-.163.302-.028.11-.021.218.022.323.044.119.124.229.239.329zm5.86-5.097c.268.233.694.362 1.279.387.599.024 1.327-.062 2.185-.257.865-.189 1.841-.4967 2.928-.9237l.549-.3291c-.166-.3341-.351-.6166-.554-.8475-.195-.2242-.389-.4197-.58-.5866-.329-.287-.698-.4741-1.107-.5614-.402-.0805-.82-.0879-1.254-.0222-.421.0647-.837.1867-1.25.3661-.405.1717-.777.3734-1.114.6052-.336.2318-.612.4702-.825.7151-.167.1914-.291.3798-.372.5653s-.113.3532-.095.5032c.025.1566.095.2846.21.3856z" fill="#25c8eb"/><path d="m260.141 44.0809c.247.026.487.06.72.102.24.034.473.069.698.104.226.035.433.074.624.119.204.043.391.085.559.124.161.046.253.126.275.24.023.114-.005.238-.082.373-.063.134-.156.241-.28.321-.11.08-.22.105-.33.077-.227-.064-.469-.119-.724-.167-.255-.047-.521-.097-.798-.15-.277-.039-.557-.081-.841-.126-.29-.038-.581-.076-.871-.114zm-8.63 3.106c-.406-.354-.639-.759-.699-1.216-.059-.442.068-.843.382-1.203.234-.268.521-.489.862-.663.326-.174.706-.308 1.138-.402.433-.094.922-.153 1.468-.176.546-.008 1.152.008 1.817.049.326.028.633.054.923.077.297.03.594.06.891.09.291.038.592.078.905.122l2.551-1.535c-.736.18-1.402.279-1.998.299-.589.025-1.099-.015-1.531-.123-.426-.114-.772-.289-1.04-.522-.26-.227-.426-.493-.497-.798-.072-.3044-.051-.6297.062-.9758.114-.346.32-.6913.621-1.0357.307-.3521.691-.6843 1.152-.9966.461-.3122.969-.5701 1.523-.7735.555-.2035 1.126-.3325 1.712-.387.587-.0545 1.162-.0039 1.727.1519.58.1547 1.11.4424 1.593.8629.153.1335.296.2857.43.4564.141.1632.272.345.394.5454s.226.4057.312.6157l.094-.0388c.119-.0585.23-.0697.333-.0335.11.0284.226.0961.348.2029.238.2069.354.3753.348.5053.009.129-.08.2466-.267.353l-9.991 5.9624c-.664.391-1.262.699-1.794.922-.532.224-1.015.361-1.451.412-.442.059-.855.023-1.238-.109-.376-.126-.736-.339-1.08-.639zm.943-.734c.229.2.51.311.843.331.332.021.734-.061 1.203-.244.471-.169 1.017-.448 1.638-.836l1.557-.927c-.168-.024-.338-.045-.512-.062s-.348-.034-.522-.05c-.174-.017-.351-.03-.531-.04-.52-.022-.988-.019-1.404.01-.407.035-.764.088-1.068.159-.297.078-.554.171-.769.28-.215.122-.393.264-.533.425-.08.092-.134.192-.163.302-.028.11-.021.218.022.323.044.119.124.229.239.329zm5.86-5.097c.268.233.694.362 1.279.387.599.024 1.327-.062 2.185-.257.865-.189 1.841-.4967 2.928-.9237l.549-.3291c-.166-.3341-.351-.6166-.554-.8475-.195-.2242-.389-.4197-.58-.5866-.329-.287-.698-.4741-1.107-.5614-.402-.0805-.82-.0879-1.254-.0222-.421.0647-.837.1867-1.25.3661-.405.1717-.777.3734-1.114.6052-.336.2318-.612.4702-.825.7151-.167.1914-.291.3798-.372.5653s-.113.3532-.095.5032c.025.1566.095.2846.21.3856z" fill="#680579"/><path d="m253.617 39.1718c-.117-.0819-.169-.1931-.157-.3337.007-.1323.059-.2507.157-.3553.096-.1187.222-.1916.378-.2186.161-.0353.329.0084.504.1312.216.152.5.2339.851.2457.352.0118.756-.0328 1.213-.1339.448-.1069.939-.2579 1.474-.4527.534-.1949 1.097-.4201 1.686-.6756.143-.0611.266-.0425.371.056.104.0984.162.2197.172.3636.017.1357-.046.2341-.189.2953-.795.3714-1.522.6797-2.179.925-.649.2512-1.234.4293-1.755.5343-.524.0909-.99.11-1.4.0573-.419-.0585-.794-.2048-1.126-.4386z" fill="#25c8eb"/><path d="m253.617 39.1718c-.117-.0819-.169-.1931-.157-.3337.007-.1323.059-.2507.157-.3553.096-.1187.222-.1916.378-.2186.161-.0353.329.0084.504.1312.216.152.5.2339.851.2457.352.0118.756-.0328 1.213-.1339.448-.1069.939-.2579 1.474-.4527.534-.1949 1.097-.4201 1.686-.6756.143-.0611.266-.0425.371.056.104.0984.162.2197.172.3636.017.1357-.046.2341-.189.2953-.795.3714-1.522.6797-2.179.925-.649.2512-1.234.4293-1.755.5343-.524.0909-.99.11-1.4.0573-.419-.0585-.794-.2048-1.126-.4386z" fill="#680579"/><path d="m253.774 39.3112c-.367-.2552-.593-.5174-.678-.7868-.082-.2552-.072-.5015.032-.7389.109-.2458.266-.4709.47-.6753.21-.2128.417-.396.623-.5497l2.556-1.8595c.226-.1646.408-.3286.546-.4921.153-.166.225-.3322.217-.4986.001-.1606-.116-.322-.349-.4844-.275-.1915-.668-.2852-1.178-.2812-.502.0098-1.083.1067-1.743.2908-.651.19-1.361.4633-2.129.8199-.762.3484-1.542.7766-2.341 1.2848l-.472.3583c-.109.0852-.227.1209-.353.1071-.124.0004-.282-.0662-.474-.1996-.133-.0928-.238-.2089-.314-.3485-.068-.1338-.022-.2624.139-.3861l5.123-3.8962c.083-.066.128-.1397.135-.2213.016-.0758-.026-.1484-.126-.218s-.139-.1648-.117-.2855c.036-.1233.107-.2345.213-.3339.112-.1076.246-.1754.402-.2033.161-.0362.317-.0022.467.1022.308.2146.493.4296.553.6449.075.2128.065.4225-.029.6291-.089.1983-.219.3859-.392.5628-.172.1769-.342.3313-.508.4632l-.772.5764c.537-.2204 1.043-.3879 1.519-.5024.49-.1171.945-.1841 1.365-.2011.426-.0254.818.0063 1.177.0952.359.0888.68.2318.963.429.384.2668.613.5686.688.9054.081.3284.006.6847-.224 1.0689-.23.3843-.625.7835-1.186 1.1978l-2.234 1.6377c-.452.3291-.731.58-.839.7525-.094.17-.04.3246.16.4638.117.0812.165.1893.146.3241-.006.1323-.06.2552-.164.3686-.09.111-.212.1804-.368.2083-.161.0362-.329-.0066-.504-.1284z" fill="#25c8eb"/><path d="m253.774 39.3112c-.367-.2552-.593-.5174-.678-.7868-.082-.2552-.072-.5015.032-.7389.109-.2458.266-.4709.47-.6753.21-.2128.417-.396.623-.5497l2.556-1.8595c.226-.1646.408-.3286.546-.4921.153-.166.225-.3322.217-.4986.001-.1606-.116-.322-.349-.4844-.275-.1915-.668-.2852-1.178-.2812-.502.0098-1.083.1067-1.743.2908-.651.19-1.361.4633-2.129.8199-.762.3484-1.542.7766-2.341 1.2848l-.472.3583c-.109.0852-.227.1209-.353.1071-.124.0004-.282-.0662-.474-.1996-.133-.0928-.238-.2089-.314-.3485-.068-.1338-.022-.2624.139-.3861l5.123-3.8962c.083-.066.128-.1397.135-.2213.016-.0758-.026-.1484-.126-.218s-.139-.1648-.117-.2855c.036-.1233.107-.2345.213-.3339.112-.1076.246-.1754.402-.2033.161-.0362.317-.0022.467.1022.308.2146.493.4296.553.6449.075.2128.065.4225-.029.6291-.089.1983-.219.3859-.392.5628-.172.1769-.342.3313-.508.4632l-.772.5764c.537-.2204 1.043-.3879 1.519-.5024.49-.1171.945-.1841 1.365-.2011.426-.0254.818.0063 1.177.0952.359.0888.68.2318.963.429.384.2668.613.5686.688.9054.081.3284.006.6847-.224 1.0689-.23.3843-.625.7835-1.186 1.1978l-2.234 1.6377c-.452.3291-.731.58-.839.7525-.094.17-.04.3246.16.4638.117.0812.165.1893.146.3241-.006.1323-.06.2552-.164.3686-.09.111-.212.1804-.368.2083-.161.0362-.329-.0066-.504-.1284z" fill="#680579"/><path d="m250.36 29.6918c-.143-.0973-.297-.2399-.464-.4277-.167-.1877-.314-.3866-.442-.5964-.13-.224-.226-.4251-.289-.6033-.035-.1102-.023-.2185.038-.3249.066-.1148.151-.204.256-.2676.111-.072.222-.1004.335-.085.112.0153.196.0909.251.2267.134.3254.289.5849.465.7784.181.1851.359.3378.535.4581.252.1718.511.2873.778.3466.281.0567.556.0963.823.119s.522.0551.764.0972c.256.0394.48.125.673.2567.109.0745.154.1792.136.3142-.004.1324-.058.2557-.161.3701-.088.1117-.217.1835-.387.2155-.163.0235-.346-.0335-.547-.1709-.126-.0859-.297-.1413-.514-.1663-.202-.0276-.433-.0498-.692-.0668-.25-.0112-.513-.0493-.789-.1144-.261-.0676-.517-.1874-.769-.3592z" fill="#25c8eb"/><path d="m250.36 29.6918c-.143-.0973-.297-.2399-.464-.4277-.167-.1877-.314-.3866-.442-.5964-.13-.224-.226-.4251-.289-.6033-.035-.1102-.023-.2185.038-.3249.066-.1148.151-.204.256-.2676.111-.072.222-.1004.335-.085.112.0153.196.0909.251.2267.134.3254.289.5849.465.7784.181.1851.359.3378.535.4581.252.1718.511.2873.778.3466.281.0567.556.0963.823.119s.522.0551.764.0972c.256.0394.48.125.673.2567.109.0745.154.1792.136.3142-.004.1324-.058.2557-.161.3701-.088.1117-.217.1835-.387.2155-.163.0235-.346-.0335-.547-.1709-.126-.0859-.297-.1413-.514-.1663-.202-.0276-.433-.0498-.692-.0668-.25-.0112-.513-.0493-.789-.1144-.261-.0676-.517-.1874-.769-.3592z" fill="#680579"/><path d="m243.379 32.7402c-.553-.3021-.959-.6693-1.221-1.1016-.261-.4323-.383-.8981-.364-1.3974.032-.5033.184-1.0045.457-1.5035.258-.4723.616-.925 1.073-1.3582.461-.4421.984-.8047 1.567-1.0878.597-.2871 1.225-.4413 1.885-.4625.669-.0163 1.337.1582 2.005.5237.553.3021.958.6624 1.215 1.0809.271.4145.396.8645.373 1.35-.008.4814-.149.9717-.422 1.4707-.195.3564-.463.7193-.804 1.0885-.327.3653-.712.6988-1.154 1.0007-.429.2978-.897.5284-1.403.6916s-1.033.2279-1.582.1941c-.54-.0289-1.081-.192-1.625-.4892zm.718-.9963c.437.2388.884.3324 1.34.281s.893-.1944 1.311-.429c.423-.2436.799-.5297 1.129-.8584.335-.3377.595-.6758.781-1.0145.19-.3475.29-.6688.301-.9638s-.059-.5589-.21-.7917c-.145-.2417-.365-.443-.659-.6038-.446-.2436-.901-.3421-1.366-.2956-.461.0376-.904.1713-1.331.4011-.418.2346-.792.5163-1.122.845-.33.3288-.585.658-.766.9877-.19.3475-.295.6777-.316.9906-.006.3088.067.5865.222.8331.155.2465.383.4526.686.6183z" fill="#25c8eb"/><path d="m243.379 32.7402c-.553-.3021-.959-.6693-1.221-1.1016-.261-.4323-.383-.8981-.364-1.3974.032-.5033.184-1.0045.457-1.5035.258-.4723.616-.925 1.073-1.3582.461-.4421.984-.8047 1.567-1.0878.597-.2871 1.225-.4413 1.885-.4625.669-.0163 1.337.1582 2.005.5237.553.3021.958.6624 1.215 1.0809.271.4145.396.8645.373 1.35-.008.4814-.149.9717-.422 1.4707-.195.3564-.463.7193-.804 1.0885-.327.3653-.712.6988-1.154 1.0007-.429.2978-.897.5284-1.403.6916s-1.033.2279-1.582.1941c-.54-.0289-1.081-.192-1.625-.4892zm.718-.9963c.437.2388.884.3324 1.34.281s.893-.1944 1.311-.429c.423-.2436.799-.5297 1.129-.8584.335-.3377.595-.6758.781-1.0145.19-.3475.29-.6688.301-.9638s-.059-.5589-.21-.7917c-.145-.2417-.365-.443-.659-.6038-.446-.2436-.901-.3421-1.366-.2956-.461.0376-.904.1713-1.331.4011-.418.2346-.792.5163-1.122.845-.33.3288-.585.658-.766.9877-.19.3475-.295.6777-.316.9906-.006.3088.067.5865.222.8331.155.2465.383.4526.686.6183z" fill="#680579"/><path clip-rule="evenodd" d="m243.701 15.8822c.611-.0523 1.195.0322 1.752.2535.453.18.819.4289 1.097.747.291.3123.473.6637.548 1.0538.083.394.045.7942-.116 1.2001-.207.5191-.516.9538-.928 1.3036-.399.3441-.877.5966-1.433.7581-.543.1559-1.133.2113-1.77.1656-.634-.0552-1.286-.2161-1.956-.4823-.6-.2383-1.148-.4937-1.645-.7656-.129.1442-.261.293-.393.4476l-3.986 4.7111c-.068.0811-.137.1593-.205.2356.064.0556.128.1111.191.1686.395.3537.78.7196 1.155 1.0978.374.3782.73.7332 1.068 1.0644.352.3254.685.6157.998.8715.23.1759.45.3168.658.4246.253.0625.743.2505 1.198.1934.35-.0437.742-.1513 1.177-.3229.425-.1761.887-.4028 1.384-.6794s1.017-.5873 1.559-.9323c.131-.0829.256-.0839.375-.0031.119.0807.195.1912.227.3316.038.1314-.009.2389-.14.3217-.727.492-1.396.9109-2.006 1.2566-.601.3501-1.151.6181-1.649.8039-.503.1723-.961.2646-1.374.2771-.362.0069-.845-.037-1.185-.1723-.33-.1313-.664-.3239-1-.5777s-.68-.5431-1.031-.8685c-.339-.3311-.683-.6758-1.032-1.0333-.341-.3538-.691-.6955-1.052-1.0247-.129-.1222-.261-.2385-.393-.3521-.175.1434-.348.2717-.521.3825-.514.3311-1.013.5268-1.495.5864-.47.0538-.931-.0092-1.384-.1891-.34-.135-.613-.3148-.819-.5387-.21-.2145-.342-.4587-.398-.7321-.055-.2732-.027-.5513.086-.8343.15-.3775.385-.6666.705-.8673.334-.2063.712-.3186 1.134-.3366.436-.0236.88.055 1.333.235.423.1682.835.3913 1.236.6701.004-.0038.007-.0074.01-.0112l4.154-4.9231c.105-.1264.211-.2498.316-.3701-.279-.201-.546-.4145-.8-.6416-.471-.4383-.926-.9421-1.367-1.5106-.108-.1411-.145-.2814-.111-.4209.043-.1359.15-.2688.321-.3974.145-.1172.278-.1625.399-.1364.134.0205.255.1012.363.2424.361.4386.754.8516 1.179 1.2392.276.2434.573.4745.891.6936.283-.2802.565-.5381.846-.7736.672-.5635 1.325-.9979 1.96-1.303.639-.3145 1.262-.4933 1.869-.5362zm-12.367 9.1346c-.183-.0071-.347.0205-.492.0831-.136.0663-.23.1655-.282.2976-.049.1227-.047.2548.006.3961.067.1354.175.2332.326.2932.226.09.488.1068.784.0496.296-.0573.614-.1989.955-.424.053-.036.105-.0749.158-.1153-.285-.1807-.58-.3314-.884-.4519-.188-.075-.379-.1175-.571-.1284zm13.598-7.6946c-.415-.165-.854-.2139-1.318-.1469-.46.0576-.948.2244-1.462.5008-.51.2671-1.041.6411-1.593 1.1214-.133.1191-.268.2445-.405.3763.376.1953.781.3794 1.216.5523.482.1913.95.3067 1.404.3453.455.0385.874.0138 1.259-.0738.388-.097.719-.2555.992-.4748.286-.2251.499-.5124.638-.8617.074-.1886.096-.366.063-.5318-.028-.1752-.115-.3296-.258-.4631-.14-.143-.319-.2578-.536-.344z" fill="#25c8eb" fill-rule="evenodd"/><path clip-rule="evenodd" d="m243.701 15.8822c.611-.0523 1.195.0322 1.752.2535.453.18.819.4289 1.097.747.291.3123.473.6637.548 1.0538.083.394.045.7942-.116 1.2001-.207.5191-.516.9538-.928 1.3036-.399.3441-.877.5966-1.433.7581-.543.1559-1.133.2113-1.77.1656-.634-.0552-1.286-.2161-1.956-.4823-.6-.2383-1.148-.4937-1.645-.7656-.129.1442-.261.293-.393.4476l-3.986 4.7111c-.068.0811-.137.1593-.205.2356.064.0556.128.1111.191.1686.395.3537.78.7196 1.155 1.0978.374.3782.73.7332 1.068 1.0644.352.3254.685.6157.998.8715.23.1759.45.3168.658.4246.253.0625.743.2505 1.198.1934.35-.0437.742-.1513 1.177-.3229.425-.1761.887-.4028 1.384-.6794s1.017-.5873 1.559-.9323c.131-.0829.256-.0839.375-.0031.119.0807.195.1912.227.3316.038.1314-.009.2389-.14.3217-.727.492-1.396.9109-2.006 1.2566-.601.3501-1.151.6181-1.649.8039-.503.1723-.961.2646-1.374.2771-.362.0069-.845-.037-1.185-.1723-.33-.1313-.664-.3239-1-.5777s-.68-.5431-1.031-.8685c-.339-.3311-.683-.6758-1.032-1.0333-.341-.3538-.691-.6955-1.052-1.0247-.129-.1222-.261-.2385-.393-.3521-.175.1434-.348.2717-.521.3825-.514.3311-1.013.5268-1.495.5864-.47.0538-.931-.0092-1.384-.1891-.34-.135-.613-.3148-.819-.5387-.21-.2145-.342-.4587-.398-.7321-.055-.2732-.027-.5513.086-.8343.15-.3775.385-.6666.705-.8673.334-.2063.712-.3186 1.134-.3366.436-.0236.88.055 1.333.235.423.1682.835.3913 1.236.6701.004-.0038.007-.0074.01-.0112l4.154-4.9231c.105-.1264.211-.2498.316-.3701-.279-.201-.546-.4145-.8-.6416-.471-.4383-.926-.9421-1.367-1.5106-.108-.1411-.145-.2814-.111-.4209.043-.1359.15-.2688.321-.3974.145-.1172.278-.1625.399-.1364.134.0205.255.1012.363.2424.361.4386.754.8516 1.179 1.2392.276.2434.573.4745.891.6936.283-.2802.565-.5381.846-.7736.672-.5635 1.325-.9979 1.96-1.303.639-.3145 1.262-.4933 1.869-.5362zm-12.367 9.1346c-.183-.0071-.347.0205-.492.0831-.136.0663-.23.1655-.282.2976-.049.1227-.047.2548.006.3961.067.1354.175.2332.326.2932.226.09.488.1068.784.0496.296-.0573.614-.1989.955-.424.053-.036.105-.0749.158-.1153-.285-.1807-.58-.3314-.884-.4519-.188-.075-.379-.1175-.571-.1284zm13.598-7.6946c-.415-.165-.854-.2139-1.318-.1469-.46.0576-.948.2244-1.462.5008-.51.2671-1.041.6411-1.593 1.1214-.133.1191-.268.2445-.405.3763.376.1953.781.3794 1.216.5523.482.1913.95.3067 1.404.3453.455.0385.874.0138 1.259-.0738.388-.097.719-.2555.992-.4748.286-.2251.499-.5124.638-.8617.074-.1886.096-.366.063-.5318-.028-.1752-.115-.3296-.258-.4631-.14-.143-.319-.2578-.536-.344z" fill="#680579" fill-rule="evenodd"/><path d="m150.804 302.003c.769-.825.715-1.429.715-2.033 0-2.086-2.034-3.732-4.779-3.732s-4.836 1.646-4.836 3.732h-1.648c0-2.964 3.024-5.379 6.484-5.379s6.431 2.415 6.431 5.379c0 1.044-.222 2.087-.933 2.801-5.888 6.098-17.59 14.553-17.59 24.766h-1.648c0-10.709 10.77-18.232 17.804-25.534zm5.769 3.24c1.266-1.318 1.537-3.351 1.537-5.273 0-5.712-5-10.323-11.374-10.323-6.373 0-11.427 4.611-11.427 10.323h-1.651c0-6.59 5.99-11.97 13.078-11.97 7.089 0 13.022 5.38 13.022 11.97 0 2.197-.329 4.505-1.759 5.988-3.628 3.79-9.615 8.455-13.35 13.342h15.549v1.646h-16.704c-.328.551-.657 1.101-.932 1.647h17.636v1.647h-18.351c-.218.55-.329 1.097-.44 1.647h18.791v1.646h-20.603c0-8.676 10.716-15.703 16.978-22.294zm-2.913-1.647c.879-.932 1.155-2.307 1.155-3.626 0-3.897-3.518-7.03-8.079-7.03s-8.131 3.133-8.131 7.03h-1.648c0-4.775 4.507-8.677 9.779-8.677 5.273 0 9.726 3.898 9.726 8.677 0 1.594-.275 3.294-1.372 4.448-5.716 5.987-17.143 13.892-17.143 23.119h-1.648c0-9.609 10.717-16.968 17.365-23.941z" fill="#fff"/><path d="m153.171 299.97c0-2.964-2.971-5.379-6.431-5.379s-6.484 2.415-6.484 5.379h1.648c0-2.086 2.091-3.732 4.836-3.732s4.779 1.646 4.779 3.732l-.003.457c-.021.463-.136.957-.712 1.576-7.034 7.302-17.804 14.825-17.804 25.534h1.648c0-10.213 11.702-18.668 17.59-24.766.622-.625.87-1.502.922-2.41zm1.63.497c-.065 1.159-.372 2.314-1.141 3.129h.004c-6.648 6.973-17.365 14.332-17.365 23.941h1.648c0-9.227 11.427-17.132 17.143-23.119.96-1.01 1.291-2.438 1.358-3.847l.014-.601c0-4.63-4.179-8.432-9.233-8.665l-.493-.012v-1.646c6.374 0 11.374 4.611 11.374 10.323 0 1.922-.271 3.955-1.537 5.273v-.004c-6.262 6.591-16.978 13.618-16.978 22.294h20.603v-1.646h-18.791c.111-.55.222-1.097.44-1.647h18.351v-1.647h-17.636c.275-.546.604-1.096.932-1.647h16.704v-1.646h-15.549c3.735-4.887 9.722-9.552 13.35-13.342 1.341-1.39 1.714-3.505 1.755-5.574l.004-.414c0-6.59-5.933-11.97-13.022-11.97v-3c8.49 0 16.022 6.479 16.022 14.971 0 2.281-.291 5.667-2.593 8.06l.001.001c-1.893 1.978-4.439 4.223-6.757 6.381-.674.628-1.338 1.258-1.982 1.887h11.77v14.233h-22.25v.004h-10.947v-3c0-6.42 3.241-11.664 6.994-16.007 1.889-2.184 3.986-4.229 5.994-6.137 1.996-1.897 3.864-3.625 5.532-5.345-.001-.024 0-.051 0-.077 0-.023-.004-.043-.021-.076-.02-.04-.075-.121-.199-.219-.256-.202-.772-.439-1.56-.439-.79 0-1.33.239-1.607.454-.135.105-.192.19-.213.229-.017.032-.016.043-.016.051v3h-14.247v-3c0-8.508 7.608-14.971 16.079-14.971v3c-7.088 0-13.078 5.38-13.078 11.97h1.651c0-5.712 5.054-10.323 11.427-10.323v1.646c-5.272 0-9.779 3.902-9.779 8.677h1.648c0-3.897 3.57-7.03 8.131-7.03s8.079 3.133 8.079 7.03z" fill="#dd04d2"/><path d="m181.543 288c8.132 0 14.727 9.059 14.727 20.208s-6.595 20.155-14.727 20.155-14.669-9.006-14.669-20.155 6.533-20.208 14.669-20.208zm0 38.712c7.253 0 13.079-8.238 13.079-18.504s-5.826-18.561-13.079-18.561c-7.252 0-13.021 8.291-13.021 18.561s5.769 18.504 13.021 18.504zm0-35.419c6.32 0 11.427 7.577 11.427 16.915s-5.111 16.857-11.427 16.857-11.374-7.523-11.374-16.857 5.054-16.915 11.374-16.915zm0 32.125c5.383 0 9.78-6.808 9.78-15.21s-4.397-15.268-9.78-15.268-9.726 6.862-9.726 15.268 4.339 15.21 9.726 15.21zm0-28.827c4.508 0 8.132 6.094 8.132 13.617s-3.628 13.564-8.132 13.564-8.078-6.041-8.078-13.564 3.571-13.617 8.078-13.617zm-.057 25.534c3.571 0 6.484-5.326 6.484-11.917s-2.913-11.97-6.484-11.97-6.431 5.379-6.431 11.97 2.856 11.917 6.431 11.917z" fill="#fff"/><path d="m163.874 308.208c0-6.135 1.793-11.82 4.854-16.045 3.06-4.224 7.549-7.163 12.815-7.163v3c-8.136 0-14.669 9.059-14.669 20.208s6.537 20.155 14.669 20.155 14.727-9.006 14.727-20.155-6.595-20.208-14.727-20.208v-3c5.261 0 9.763 2.936 12.838 7.156 3.077 4.224 4.888 9.91 4.888 16.052s-1.812 11.817-4.891 16.029c-3.079 4.21-7.581 7.125-12.835 7.125-5.257 0-9.746-2.919-12.81-7.132s-4.859-9.886-4.859-16.022zm4.648 0c0-10.27 5.769-18.561 13.021-18.561v1.646c-6.32 0-11.374 7.581-11.374 16.915l.015.869c.303 8.928 5.241 15.988 11.359 15.988s11.107-7.056 11.413-15.987l.014-.87c0-9.192-4.949-16.677-11.131-16.909l-.296-.006v-1.646c7.253 0 13.079 8.295 13.079 18.561s-5.826 18.504-13.079 18.504c-7.252 0-13.021-8.234-13.021-18.504zm21.153 0c0-7.523-3.624-13.617-8.132-13.617-4.507 0-8.078 6.094-8.078 13.617s3.574 13.564 8.078 13.564 8.132-6.041 8.132-13.564zm-4.706 0c0-2.893-.645-5.376-1.541-7.028-.961-1.775-1.785-1.942-1.942-1.943-.147 0-.96.155-1.91 1.93-.885 1.653-1.521 4.139-1.521 7.041s.635 5.372 1.516 7.008c.942 1.749 1.752 1.909 1.915 1.909.171 0 .992-.172 1.946-1.923.892-1.636 1.537-4.102 1.537-6.994zm3.001 0c0 6.591-2.913 11.917-6.484 11.917-3.463 0-6.252-4.998-6.423-11.303l-.008-.614c0-6.591 2.86-11.97 6.431-11.97s6.484 5.379 6.484 11.97zm3.34.783c-.263 8.038-4.552 14.427-9.767 14.427-5.218 0-9.454-6.386-9.713-14.427l-.013-.783c0-8.406 4.343-15.268 9.726-15.268l.252.005c5.267.21 9.528 6.992 9.528 15.263z" fill="#dd04d2"/><path d="m220.863 302.003c.768-.825.715-1.429.715-2.033 0-2.086-2.034-3.732-4.779-3.732s-4.836 1.646-4.836 3.732h-1.648c0-2.964 3.024-5.379 6.484-5.379s6.43 2.415 6.43 5.379c0 1.044-.221 2.087-.933 2.801-5.88 6.094-17.582 14.553-17.582 24.766h-1.648c0-10.709 10.77-18.232 17.804-25.534zm5.769 3.24c1.265-1.318 1.537-3.351 1.537-5.273 0-5.712-5.001-10.323-11.374-10.323s-11.427 4.611-11.427 10.323h-1.648c0-6.59 5.991-11.97 13.079-11.97s13.021 5.38 13.021 11.97c0 2.197-.328 4.505-1.758 5.988-3.628 3.79-9.615 8.455-13.351 13.342h15.549v1.646h-16.703c-.329.551-.662 1.101-.933 1.647h17.636v1.647h-18.351c-.218.55-.329 1.097-.44 1.647h18.791v1.646h-20.607c0-8.676 10.717-15.703 16.979-22.294zm-2.913-1.647c.879-.932 1.154-2.307 1.154-3.626 0-3.897-3.517-7.03-8.078-7.03s-8.132 3.129-8.132 7.03h-1.648c0-4.775 4.508-8.677 9.78-8.677s9.726 3.898 9.726 8.677c0 1.594-.275 3.294-1.373 4.448-5.715 5.987-17.142 13.892-17.142 23.119h-1.648c0-9.609 10.716-16.968 17.364-23.941z" fill="#fff"/><path d="m229.82 299.97c0-6.59-5.933-11.97-13.021-11.97s-13.079 5.38-13.079 11.97h1.648c0-5.712 5.054-10.323 11.427-10.323s11.374 4.611 11.374 10.323c0 1.922-.272 3.955-1.537 5.273v-.004c-6.262 6.591-16.979 13.618-16.979 22.294h20.607v-1.646h-18.791c.111-.55.222-1.097.44-1.647h18.351v-1.647h-17.636c.271-.546.604-1.096.933-1.647h16.703v-1.646h-15.549c3.736-4.887 9.723-9.552 13.351-13.342 1.34-1.39 1.713-3.505 1.754-5.574zm-13.021-5.379c-3.46 0-6.484 2.415-6.484 5.379h1.648c0-2.086 2.091-3.732 4.836-3.732s4.779 1.646 4.779 3.732c0 .604.053 1.208-.715 2.033h.007c-7.034 7.302-17.804 14.825-17.804 25.534h1.648c0-10.213 11.702-18.672 17.582-24.766.712-.714.933-1.757.933-2.801 0-2.964-2.97-5.379-6.43-5.379zm-.004-3.298c-5.272 0-9.78 3.902-9.78 8.677h1.648c0-3.901 3.571-7.03 8.132-7.03s8.078 3.133 8.078 7.03c0 1.319-.275 2.694-1.154 3.626h.003c-6.648 6.973-17.364 14.332-17.364 23.941h1.648c0-9.227 11.427-17.132 17.142-23.119 1.098-1.154 1.373-2.854 1.373-4.448 0-4.63-4.18-8.432-9.234-8.665zm16.025 8.678c0 2.281-.29 5.667-2.592 8.06-1.893 1.978-4.439 4.224-6.757 6.382-.674.628-1.338 1.258-1.982 1.887h11.771v14.233h-22.254v.004h-10.94v-3c0-6.42 3.241-11.664 6.994-16.007 1.889-2.184 3.986-4.229 5.994-6.137 1.976-1.878 3.827-3.59 5.482-5.293l.042-.046c0-.026 0-.055 0-.083 0-.023-.003-.043-.021-.076-.02-.04-.074-.121-.199-.219-.255-.202-.772-.439-1.559-.439-.79 0-1.331.239-1.608.454-.134.105-.191.19-.212.229-.017.032-.016.043-.016.051v3h-14.244v-3c0-8.508 7.608-14.971 16.08-14.971 8.489 0 16.021 6.479 16.021 14.971z" fill="#dd04d2"/><path d="m258.876 288.824h2.034l-8.021 13.235c7.253.604 13.079 6.258 13.079 13.124 0 7.248-6.537 13.178-14.287 13.178-7.749 0-14.287-5.93-14.287-13.178 0-2.579.933-4.833 2.199-6.973l11.32-19.382h2.034l-11.925 20.154c-1.097 1.922-1.976 3.897-1.976 6.205 0 6.369 5.605 11.531 12.639 11.531 7.035 0 12.639-5.162 12.639-11.531s-5.604-11.367-12.364-11.531l-.99 1.647h.715c5.991 0 10.988 4.447 10.988 9.884s-5.054 9.884-10.988 9.884c-5.933 0-10.991-4.447-10.991-9.884 0-1.922.715-3.626 1.647-5.215l12.578-21.148h2.034l-13.296 21.908c-.991 1.593-1.319 3.022-1.319 4.447 0 4.559 4.121 8.238 9.339 8.238 5.219 0 9.34-3.679 9.34-8.238 0-4.558-4.285-8.237-9.34-8.237-.604 0-1.208.053-1.812.164l-1.208 1.975c.933-.328 1.923-.492 3.024-.492 4.175 0 7.692 2.964 7.692 6.59s-3.57 6.591-7.692 6.591c-4.121 0-7.692-2.965-7.692-6.591 0-1.318.551-2.472 1.208-3.568zm-12.199 23.555c-.658.768-1.044 1.811-1.044 2.8 0 2.747 2.638 4.944 6.044 4.944 3.407 0 6.045-2.197 6.045-4.944s-2.803-4.94-6.045-4.94c-1.923 0-3.681.55-5 2.144z" fill="#fff"/><path d="m266.236 285.824-8.607 14.203c6.464 2.261 11.339 8.062 11.34 15.156 0 9.143-8.13 16.178-17.288 16.178s-17.287-7.035-17.287-16.178c0-3.338 1.218-6.136 2.616-8.5l12.181-20.855h4.021l.002-.004zm-11.317 3-12.578 21.148c-.932 1.589-1.647 3.293-1.647 5.215 0 5.437 5.058 9.884 10.991 9.884 5.934 0 10.988-4.447 10.988-9.884s-4.997-9.884-10.988-9.884h-.715l.99-1.647c6.76.164 12.364 5.162 12.364 11.531s-5.604 11.531-12.639 11.531c-7.034 0-12.639-5.162-12.639-11.531 0-2.308.879-4.283 1.976-6.205l11.925-20.154h-2.034l-11.32 19.382c-1.266 2.14-2.199 4.394-2.199 6.973 0 7.248 6.538 13.178 14.287 13.178 7.75 0 14.287-5.93 14.287-13.178 0-6.866-5.826-12.52-13.079-13.124l8.021-13.235h-2.034l-13.679 22.787c-.657 1.096-1.208 2.25-1.208 3.568 0 3.626 3.571 6.591 7.692 6.591 3.993 0 7.469-2.782 7.682-6.253l.01-.338c0-3.626-3.517-6.59-7.692-6.59-1.101 0-2.091.164-3.024.492l1.208-1.975c.604-.111 1.208-.164 1.812-.164 5.055 0 9.34 3.679 9.34 8.237 0 4.559-4.121 8.238-9.34 8.238-5.218 0-9.339-3.679-9.339-8.238 0-1.425.328-2.854 1.319-4.447l13.296-21.908zm-.198 26.355c0-.293-.143-.724-.689-1.165-.552-.445-1.392-.775-2.355-.775-1.313 0-2.099.344-2.689 1.056l-.077.093c-.171.23-.277.547-.277.791 0 .355.158.781.65 1.186.503.414 1.325.759 2.393.759 1.069 0 1.891-.345 2.394-.759.492-.405.65-.831.65-1.186zm3.001 0c0 2.747-2.638 4.944-6.045 4.944-3.406 0-6.044-2.197-6.044-4.944 0-.989.386-2.032 1.044-2.8v.004c1.319-1.594 3.077-2.144 5-2.144 3.242 0 6.045 2.193 6.045 4.94z" fill="#dd04d2"/><path d="m13.3477 229.449h-2.3173v42.889h-2.31726v-42.889h-2.3173v42.889h-2.3226v-45.206h23.80176c4.1722 0 7.5702 3.398 7.5702 7.57s-3.398 7.495-7.5702 7.495h-12.21v2.317h12.21c5.4841 0 9.8929-4.328 9.8929-9.812s-4.4034-9.893-9.8929-9.893h-23.80176v-2.317h23.80176c6.7207 0 12.2101 5.484 12.2101 12.21s-5.484 12.13-12.2101 12.13h-12.21v2.317h12.21c8.038 0 14.5274-6.414 14.5274-14.452s-6.4948-14.517-14.5274-14.517h-23.80176v-2.317h23.80176c9.2746 0 16.8447 7.57 16.8447 16.845 0 9.274-7.5701 16.769-16.8447 16.769h-12.21v20.861h-2.3173zm2.3173 0v10.431h12.21c2.9356 0 5.2529-2.242 5.2529-5.178 0-2.935-2.3173-5.253-5.2529-5.253z" fill="#fff"/><path d="m35.445 234.701c0-4.172-3.398-7.57-7.5702-7.57h-23.8018v45.206h2.3226v-42.889h2.3173v42.889h2.3173v-42.889h2.3173v42.889h2.3173v-20.861h12.21c9.2746 0 16.8447-7.495 16.8447-16.769-.0001-9.202-7.4524-16.727-16.6277-16.844l-.217-.001.0001-3.073c10.9716 0 19.9174 8.946 19.9175 19.918 0 10.989-8.9638 19.842-19.9175 19.842h-9.1373v20.861h-17.7376v-60.621h26.8749l-.0001 3.073h-23.8018v2.317h23.8018c8.0326 0 14.5274 6.479 14.5274 14.517s-6.4894 14.452-14.5274 14.452h-12.21v-2.317h12.21c6.7261 0 12.2101-5.404 12.2101-12.13 0-6.621-5.3192-12.038-11.8958-12.206l-.3143-.004h-23.8018v2.317h23.8018c5.4895 0 9.8929 4.409 9.8929 9.893l-.0032.256c-.1348 5.363-4.4913 9.556-9.8897 9.556h-12.21v-2.317h12.21c4.107 0 7.464-3.22 7.5678-7.3zm-5.3902 0c-.0001-1.238-.9415-2.18-2.1799-2.18h-9.1373v4.285h9.1373c1.2969 0 2.1799-.924 2.1799-2.105zm3.0711.137c-.0708 2.868-2.3613 5.041-5.2511 5.041h-12.21v-10.431h12.21c2.9356 0 5.2529 2.318 5.2529 5.253z" fill="#dd04d2"/><path d="m47.7924 234.707c-.0001-10.801-8.6685-19.638-19.4047-19.911l-.5128-.007.0001-1c11.5238 0 20.9169 9.394 20.917 20.918-.0003 11.548-9.4173 20.842-20.917 20.842h-8.1377v20.861h-19.7373v-62.621h27.875l-.0001 1h-26.8749v60.621h17.7376v-20.861h9.1373l.5118-.006c10.5497-.266 19.1299-8.743 19.3994-19.323zm-18.7377-.006c-.0001-.686-.4937-1.179-1.1797-1.18h-8.1377v2.285h8.1377l-.0001 1h-9.1373v-4.285h9.1373c1.2384 0 2.1798.942 2.1799 2.18 0 1.181-.883 2.105-2.1799 2.105l.0001-1c.755 0 1.1797-.487 1.1797-1.105zm6.3879.195c-.0006.026-.0032.053-.0041.079.0032-.091.0065-.182.0065-.274zm9.1433-2.313c.0682.537.1101 1.082.126 1.633-.0119-.413-.0387-.822-.0801-1.227zm-.2041-1.237c.0493.241.0912.485.1299.73-.0401-.254-.0843-.506-.1357-.756zm-16.29-13.483c.0352.001.0704.002.1055.002-.1072-.002-.2148-.003-.3225-.003z" fill="#dd04d2"/><path d="m69.753 252.171-20.8663-34.308h2.6291l20.5545 33.77v20.71h-2.3173zm4.6343-1.237-20.0918-33.071h2.7796l19.6242 32.377v22.098h-2.317v-21.404zm5.947-3.479 18.086-29.592h2.6287l-19.7047 32.377v22.098h-2.317v-22.872l-19.1671-31.603h2.5484l12.5167 20.71 12.597-20.71h2.549l-13.834 22.796 1.392 2.318 15.227-25.114h2.779l-16.568 27.417z" fill="#fff"/><path d="m64.1417 214.789 10.7914 17.856 10.862-17.856h20.7219l-22.0999 36.312v24.309h-9.274v.005h-8.4632v-22.384l-23.259-38.242zm-4.2817 3.073 19.1671 31.603v22.872h2.317v-22.098l19.7049-32.377h-2.6289l-18.086 29.592-1.311-2.239 16.612-27.353h-2.779l-15.227 25.114-1.392-2.318 13.834-22.796h-2.549l-12.597 20.71-12.5167-20.71zm-5.5647 0 20.0918 33.071h-.005v21.404h2.317v-22.098l-19.6242-32.377zm17.7748 54.48v-20.71l-20.5545-33.77h-2.6291l20.8663 34.308v20.172z" fill="#dd04d2"/><path d="m84.4171 275.41v-24.309l22.0999-36.312h-20.7219l-10.862 17.856-10.7914-17.856h-20.7208l23.259 38.242v22.384h8.4632v-.005zm1.001 1h-9.275v.005h-10.4634v-23.104l-24.0371-39.522h23.0634l10.2291 16.927 10.297-16.927h23.0639l-22.8779 37.59z" fill="#dd04d2"/><path d="m150.836 264.529c-5.178 5.484-12.517 8.963-20.711 8.963-15.688 0-28.361-12.673-28.361-28.362 0-15.688 12.678-28.431 28.367-28.431 7.339 0 14.219 2.97 19.321 7.529l-2.009 1.278c-4.634-4.097-10.661-6.489-17.307-6.489-14.452 0-26.038 11.667-26.038 26.119s11.591 26.038 26.038 26.038c7.495 0 14.216-3.091 19.012-8.113l1.699 1.468zm-3.785-2.704c-4.328 4.328-10.275 7.032-16.92 7.032-13.135 0-23.721-10.586-23.721-23.721s10.586-23.802 23.721-23.802c5.871 0 11.28 2.161 15.452 5.715l-1.93 1.468c-3.71-3.016-8.425-4.866-13.522-4.866-11.823 0-21.404 9.656-21.404 21.485 0 11.828 9.581 21.404 21.404 21.404 5.796 0 11.159-2.341 15.019-6.051zm-3.898-2.719c-3.398 3.167-7.92 5.117-13.022 5.117-10.587 0-19.087-8.501-19.087-19.087 0-10.587 8.5-19.162 19.087-19.162 4.403 0 8.5 1.468 11.748 3.941l-1.931 1.543c-2.779-2.011-6.183-3.167-9.892-3.167-9.275 0-16.77 7.57-16.77 16.845 0 9.274 7.495 16.769 16.77 16.769 4.247 0 8.188-1.548 11.129-4.172z" fill="#fff"/><path d="m108.727 245.139c0-11.829 9.581-21.485 21.404-21.485l.238.002c5.006.056 9.632 1.895 13.284 4.864l1.93-1.468c-4.172-3.554-9.581-5.715-15.452-5.715-13.135 0-23.721 10.667-23.721 23.802l.001.307c.164 12.992 10.688 23.414 23.72 23.414 6.645 0 12.592-2.704 16.92-7.032l-1.901-1.336c-3.86 3.71-9.223 6.051-15.019 6.051-11.731 0-21.254-9.427-21.402-21.127zm21.404-28.437c-15.689 0-28.367 12.743-28.367 28.431 0 15.689 12.673 28.362 28.361 28.362 8.194 0 15.533-3.479 20.711-8.963h.011l-1.699-1.468c-4.796 5.022-11.517 8.113-19.012 8.113-14.447 0-26.038-11.586-26.038-26.038s11.586-26.119 26.038-26.119c6.646 0 12.673 2.392 17.307 6.489l2.009-1.278c-5.102-4.559-11.982-7.529-19.321-7.529zm-19.085 28.685c.131 10.47 8.581 18.839 19.085 18.839 5.102 0 9.624-1.95 13.022-5.117l-1.968-1.373c-2.941 2.624-6.882 4.172-11.129 4.172-9.203 0-16.653-7.378-16.768-16.552l-.002-.217c0-9.275 7.495-16.845 16.77-16.845 3.709 0 7.113 1.156 9.892 3.167l1.931-1.543c-3.248-2.473-7.345-3.941-11.748-3.941-10.587 0-19.087 8.575-19.087 19.162zm5.313-.248c0 7.577 6.119 13.696 13.697 13.696 3.499 0 6.71-1.275 9.083-3.392l1.813-1.617 13.724 11.122-2.555 2.657c-5.659 5.507-13.401 8.962-21.996 8.962-17.385 0-31.4336-14.048-31.4336-31.433 0-17.377 14.0446-31.505 31.4396-31.505 8.165 0 15.758 3.297 21.369 8.311l2.716 2.445-3.982 2.991-5.219 3.969-4.974 3.976-1.894-1.37c-2.26-1.635-5.034-2.584-8.091-2.584-7.56 0-13.697 6.177-13.697 13.772z" fill="#dd04d2"/><path d="m97.6914 245.133c0-17.926 14.4896-32.503 32.4396-32.504l.789.01c8.132.205 15.651 3.555 21.246 8.555l.003.003 3.619 3.258-4.95 3.716.001.001-5.2 3.953.001.001-5.569 4.451-2.51-1.816c-2.09-1.512-4.66-2.394-7.505-2.394-7.002 0-12.697 5.724-12.697 12.772 0 7.025 5.672 12.696 12.697 12.696v1l-.355-.004c-7.295-.185-13.154-6.043-13.338-13.338l-.004-.354c0-7.595 6.137-13.772 13.697-13.772 3.057 0 5.831.949 8.091 2.584l1.894 1.37 4.974-3.976 5.219-3.969 3.982-2.991-2.716-2.445c-5.611-5.014-13.204-8.311-21.369-8.311-17.395 0-31.4396 14.128-31.4396 31.505 0 17.114 13.6126 30.994 30.6216 31.423l.812.01c8.326 0 15.852-3.243 21.459-8.452l.537-.51 2.555-2.657-13.724-11.122-1.813 1.617-.455.387c-2.321 1.884-5.348 3.005-8.628 3.005v-1c3.255 0 6.229-1.186 8.418-3.138l2.447-2.183 15.231 12.342-3.31 3.442-.024.024c-5.835 5.679-13.824 9.246-22.692 9.246-17.658 0-31.9796-14.047-32.4236-31.596zm24.3046 22.303c.352.128.708.249 1.068.36l-.499-.16c-.191-.064-.38-.131-.569-.2zm7.63-5.533.43.005-.434-.005c-.024-.001-.048-.002-.071-.003.025.001.05.002.075.003zm-1.274-.08c.213.021.427.037.642.051-.22-.014-.438-.03-.655-.052zm-11.734-3.171c.09.09.182.178.273.266-.064-.061-.129-.122-.193-.185zm1.934-1.303c.079.075.158.148.239.221-.005-.005-.011-.009-.016-.014zm-12.137-11.736c-.001-.056-.003-.111-.004-.167l-.001-.307c0 .158.002.316.005.474zm4.634-.12c-.001-.036-.003-.071-.003-.106l-.002-.248c0 .118.003.236.005.354z" fill="#dd04d2"/><path d="m184.318 216.074c15.689 0 28.437 12.748 28.437 28.436 0 15.689-12.748 28.362-28.437 28.362-15.688 0-28.361-12.673-28.361-28.362 0-15.688 12.673-28.436 28.361-28.436zm0 54.475c14.452 0 26.119-11.592 26.119-26.039 0-14.446-11.667-26.119-26.119-26.119s-26.038 11.667-26.038 26.119c0 14.453 11.592 26.039 26.038 26.039zm0-49.84c13.135 0 23.802 10.661 23.802 23.801 0 13.141-10.661 23.722-23.802 23.722-13.14 0-23.721-10.587-23.721-23.722 0-13.134 10.586-23.801 23.721-23.801zm0 45.205c11.823 0 21.485-9.581 21.485-21.404s-9.662-21.484-21.485-21.484-21.404 9.656-21.404 21.484c0 11.829 9.581 21.404 21.404 21.404zm0-40.566c10.587 0 19.162 8.576 19.162 19.162 0 10.587-8.575 19.087-19.162 19.087-10.586 0-19.086-8.5-19.086-19.087 0-10.586 8.5-19.162 19.086-19.162zm-.075 35.932c9.275 0 16.845-7.495 16.845-16.77 0-9.274-7.57-16.844-16.845-16.844-9.274 0-16.769 7.57-16.769 16.844 0 9.275 7.495 16.77 16.769 16.77z" fill="#fff"/><path d="m152.884 244.51c0-17.376 14.038-31.51 31.434-31.51v3.073c-15.688 0-28.361 12.748-28.361 28.436l.003.368c.195 15.518 12.792 27.994 28.358 27.994s28.238-12.476 28.435-27.994l.002-.368c0-15.566-12.55-28.237-28.07-28.434l-.367-.002v-3.073c17.386 0 31.51 14.124 31.51 31.51 0 17.396-14.134 31.433-31.51 31.433-17.385 0-31.434-14.048-31.434-31.433zm5.396-.001c0-14.452 11.586-26.119 26.038-26.119v2.318c-13.135 0-23.721 10.667-23.721 23.801l.002.308c.164 12.992 10.682 23.414 23.719 23.414 13.038 0 23.635-10.417 23.8-23.414l.002-.308c0-13.037-10.501-23.635-23.494-23.8l-.308-.001v-2.318l.339.002c14.295.181 25.78 11.784 25.78 26.117l-.002.338c-.18 14.29-11.778 25.701-26.117 25.701-14.334 0-25.857-11.406-26.036-25.7zm45.2 0c0-10.586-8.575-19.162-19.162-19.162-10.586 0-19.086 8.576-19.086 19.162l.001.248c.132 10.471 8.582 18.839 19.085 18.839 10.504 0 19.028-8.368 19.161-18.839zm-5.465.001c0-7.578-6.195-13.772-13.772-13.772-7.559 0-13.697 6.176-13.697 13.772.001 7.577 6.12 13.696 13.697 13.696 7.595 0 13.772-6.137 13.772-13.696zm3.071.216c-.117 9.175-7.641 16.553-16.843 16.553s-16.652-7.378-16.768-16.553l-.001-.217c0-9.274 7.495-16.844 16.769-16.844 9.275 0 16.845 7.57 16.845 16.844zm4.715.06c-.149 11.696-9.752 21.127-21.483 21.127-11.73 0-21.254-9.426-21.402-21.127l-.002-.277c0-11.828 9.581-21.484 21.404-21.484l.277.001c11.697.15 21.208 9.753 21.208 21.483z" fill="#dd04d2"/><path d="m215.828 244.51c0-17.386-14.124-31.51-31.51-31.51-17.396 0-31.434 14.134-31.434 31.51l.01.812c.423 16.739 13.873 30.189 30.612 30.612l.812.009c17.104 0 31.068-13.602 31.5-30.621zm-33.506 25.964c.289.021.58.036.872.048-.297-.012-.593-.027-.888-.049zm-2.795-2.724c.155.032.311.06.468.089-.145-.027-.289-.052-.432-.081zm3.287-1.891c.497.035.998.054 1.504.054l-.552-.007c-.319-.008-.637-.025-.952-.047zm4.401-2.478c-.458.069-.923.121-1.391.157.476-.037.948-.09 1.414-.161zm-4.676-2.188c.213.022.428.038.643.051-.22-.014-.438-.03-.655-.052zm14.476-16.683c0-7.025-5.747-12.773-12.772-12.773-7.002.001-12.697 5.724-12.697 12.773 0 7.025 5.672 12.696 12.697 12.696v1l-.354-.005c-7.295-.184-13.154-6.042-13.338-13.338l-.005-.353c0-7.596 6.138-13.772 13.697-13.772 7.577 0 13.772 6.194 13.772 13.772l-.005.353c-.189 7.396-6.291 13.343-13.767 13.343v-1c7.048 0 12.772-5.695 12.772-12.696zm-41.052.547c-.001-.06-.003-.121-.003-.18l-.003-.368c0 .183.003.366.006.548zm56.79-.18c-.001.059-.004.12-.006.18.004-.182.008-.365.008-.548zm-52.151.09c-.001-.05-.002-.1-.003-.15l-.002-.308c0 .153.002.306.005.458zm47.516-.15c0 .05-.002.1-.003.15.002-.152.005-.305.005-.458zm-4.639-.06c-.001.036-.002.071-.003.106.002-.117.004-.235.004-.354zm6.883-2.26c.032.424.053.85.065 1.279-.011-.423-.033-.845-.064-1.263zm2.311-.156c.004.052.006.104.01.156-.004-.058-.007-.116-.012-.174zm-5.153-3.165c.066.287.124.577.18.869-.058-.305-.12-.608-.19-.909zm-22.894-18.467c.055.001.111.003.166.004-.157-.003-.315-.005-.474-.005zm.059-4.634c.06.001.12.003.18.004-.182-.003-.364-.006-.547-.006zm32.143 28.435c-.001 17.952-14.586 32.433-32.509 32.433-17.658 0-31.981-14.046-32.424-31.595l-.011-.838c0-17.924 14.482-32.51 32.435-32.51l.838.011c17.551.445 31.671 14.841 31.671 32.499z" fill="#dd04d2"/><path d="m222.98 217.234h2.317v54.475h-2.317zm4.635 0h2.317v54.475h-2.317zm6.951 12.592v41.883h-2.317v-54.475h2.86l27.176 49.696.099-.011v-4.484l-24.414-45.201h2.548l21.866 40.415v-40.415h2.318v54.475h-2.318l-27.756-49.49h-.062v3.128l25.421 46.362h-2.705zm32.458-12.592h2.318v54.475h-2.318zm4.635 0h2.317v54.475h-2.317z" fill="#fff"/><path d="m225.297 217.233h-2.317v54.475h2.317zm2.318 54.475h2.317v-54.475h-2.317zm4.634 0h2.317v-41.883l22.716 41.883h2.705l-25.421-46.362v-3.128h.062l27.756 49.49h2.318v-54.475h-2.318v40.415l-21.866-40.415h-2.548l24.414 45.201v4.484l-.099.011-27.176-49.696h-2.86zm34.775 0h2.318v-54.475h-2.318zm4.635 0h2.317v-54.475h-2.317zm5.39 3.073h-21.596l-17.814-32.845v32.845h-17.732v-60.621h22.442l16.963 31.351v-31.351h17.737z" fill="#dd04d2"/><path d="m277.049 214.16h-17.737v31.351l-16.963-31.351h-22.442v60.621h17.732v-32.845l17.814 32.845h21.596zm1.001 61.621h-23.192l-16.219-29.904v29.904h-19.732v-62.621h24.038l15.366 28.401v-28.401h19.739z" fill="#dd04d2"/><path d="m347.266 217.133h2.272v31.825c0 12.58-10.155 22.735-22.735 22.735s-22.73-10.155-22.73-22.73v-31.83h2.272v31.825c0 11.294 9.169 20.458 20.458 20.458s20.463-9.169 20.463-20.458zm-38.648 0h2.272v31.825c0 8.79 7.124 15.913 15.913 15.913s15.913-7.123 15.913-15.913v-31.825h2.272v31.825c0 10.002-8.183 18.185-18.185 18.185s-18.185-8.178-18.185-18.18zm29.553 0h2.272v31.825c0 7.503-6.137 13.64-13.64 13.64s-13.64-6.137-13.64-13.64v-31.825h2.272v31.825c0 6.29 5.078 11.368 11.368 11.368s11.368-5.078 11.368-11.368z" fill="#fff"/><path d="m315.435 248.961v-31.826h-2.272v31.826c0 7.503 6.137 13.639 13.64 13.639 7.386 0 13.448-5.947 13.636-13.289l.004-.35v-31.826h-2.272v31.826l-.004.293c-.155 6.154-5.172 11.074-11.364 11.074s-11.209-4.92-11.364-11.074zm27.281 0c0 8.79-7.124 15.913-15.913 15.913s-15.913-7.123-15.913-15.913v-31.826h-2.272v31.83c0 10.002 8.183 18.181 18.185 18.181 9.924 0 18.057-8.057 18.184-17.952l.001-.233v-31.826h-2.272zm4.55 0-.002.263c-.142 11.167-9.261 20.194-20.461 20.194-11.289 0-20.458-9.163-20.458-20.457v-31.826h-2.272v31.83c0 12.575 10.15 22.73 22.73 22.73 12.482 0 22.577-9.997 22.734-22.441l.001-.293v-31.826h-2.272zm5.346 0c0 14.278-11.532 25.807-25.809 25.807-14.278 0-25.803-11.531-25.803-25.803v-34.903h17.508v34.899c0 4.593 3.702 8.294 8.295 8.294s8.295-3.701 8.295-8.294v-34.899h17.514z" fill="#dd04d2"/><path d="m318.508 248.961v-34.899h-17.508v34.903c0 14.272 11.525 25.803 25.803 25.803 14.054 0 25.448-11.172 25.801-25.14l.008-.667v-34.899h-17.514v34.899l-.011.427c-.222 4.393-3.835 7.867-8.284 7.867v-1c4.04 0 7.295-3.253 7.295-7.294v-35.899h19.513v35.899c0 14.83-11.979 26.807-26.808 26.807-14.599 0-26.428-11.606-26.794-26.109l-.009-.694v-35.903h19.509v35.899c0 4.041 3.253 7.294 7.294 7.294v1l-.428-.01c-4.251-.214-7.641-3.606-7.855-7.857zm21.896 1.034c-.017.233-.042.464-.071.694.014-.113.027-.226.039-.339zm9.133-.741c-.001.036-.003.072-.004.108.003-.134.005-.267.005-.401zm-4.55-.06c-.001.039-.002.078-.003.117.003-.117.004-.233.004-.35z" fill="#dd04d2"/><path d="m360.045 263.132c3.485 3.485 8.868 6.216 14.927 6.216 8.942 0 16.824-5.757 16.824-14.32 0-5.684-3.485-11.442-9.242-13.187l-9.475-2.499c-3.032-.759-4.772-3.791-4.772-6.744 0-4.545 3.939-7.424 8.637-7.424 3.031 0 6.063 1.287 7.729 3.106l-1.821 1.469c-.986-1.139-3.483-2.302-5.988-2.302-3.711 0-6.29 2.199-6.29 5.378 0 2.046 1.287 4.018 3.259 4.397l9.548 2.726c6.818 1.666 10.683 8.489 10.683 15.154 0 9.928-8.869 16.519-18.871 16.519-7.123 0-13.487-2.879-16.972-6.971l1.819-1.518zm14.853-2.879c4.471 0 7.729-2.046 7.729-5.23 0-2.046-1.286-4.018-3.258-4.472l-9.475-2.726c-6.817-1.666-10.682-8.409-10.682-15.079 0-10.081 8.41-16.672 17.732-16.672 6.063 0 11.367 2.578 14.547 6.137l-1.746 1.519c-3.105-3.259-7.423-5.378-12.807-5.378-8.183 0-15.459 5.836-15.459 14.473 0 5.758 3.411 11.441 9.169 13.108l9.549 2.499c3.032.833 4.698 3.865 4.698 6.817 0 4.471-4.398 7.35-9.776 7.35-4.098 0-7.785-1.506-9.937-3.657l1.675-1.669c1.44 1.287 4.856 2.98 8.041 2.98zm0 4.545c6.591 0 12.274-3.712 12.274-9.475 0-3.865-2.351-8.03-6.216-9.095l-9.47-2.499c-4.924-1.287-7.729-6.291-7.729-11.215 0-7.123 6.137-11.895 13.107-11.895 4.625 0 8.716 2.046 10.989 4.545l-1.667 1.439c-1.972-2.045-5.304-3.712-9.095-3.712-5.837 0-10.988 3.791-10.988 9.623 0 3.791 2.273 7.956 6.217 9.016l9.469 2.499c5.004 1.366 7.656 6.364 7.656 11.368 0 7.123-6.744 11.668-14.473 11.668-5.384 0-10.668-2.539-13.246-5.265l1.811-1.547c2.425 2.652 6.811 4.54 11.361 4.54z" fill="#fff"/><path d="m376.943 213c6.907 0 13.056 2.928 16.839 7.163l2.075 2.322-13.273 10.877c-.795-.836-1.422-1.388-2.504-2.012-.202-.128-.476-.269-.817-.398-.689-.261-1.533-.433-2.398-.433-1.262 0-2.086.371-2.541.76-.42.358-.677.846-.677 1.545 0 .397.13.775.318 1.039 1.344 1.883 7.996 2.486 10.209 3.115 8.539 2.122 12.963 10.503 12.963 18.123 0 12.127-10.794 19.592-21.944 19.592-7.868 0-15.149-3.164-19.312-8.051l-2.012-2.363 13.317-10.734 1.719 1.436c.392.35 1.278.929 2.479 1.418 1.183.483 2.431.78 3.514.78 1.812 0 2.972-.248 3.845-.91 1.013-.91 1.013-2.167-.063-2.724l-9.585-2.753c-8.521-2.122-12.956-10.406-12.956-18.047 0-12.106 10.132-19.745 20.804-19.745zm.001 12.173c-4.698 0-8.637 2.879-8.637 7.424 0 2.953 1.74 5.985 4.772 6.744l9.475 2.499c5.757 1.745 9.242 7.503 9.242 13.187 0 8.563-7.882 14.32-16.824 14.32-6.059 0-11.442-2.731-14.927-6.216h-.005l-1.819 1.518c3.485 4.092 9.849 6.971 16.972 6.971 10.002 0 18.871-6.591 18.871-16.519 0-6.665-3.865-13.488-10.683-15.154l-9.548-2.726c-1.972-.379-3.259-2.351-3.259-4.397 0-3.179 2.579-5.378 6.29-5.378 2.505 0 5.002 1.009 5.988 2.148l1.69-1.383c-1.666-1.819-4.567-3.038-7.598-3.038zm-.08-4.555c-6.97 0-13.107 4.772-13.107 11.895 0 4.924 2.805 9.928 7.729 11.215l9.47 2.499c3.865 1.065 6.216 5.23 6.216 9.095 0 5.763-5.683 9.475-12.274 9.475v-.005c-4.55 0-8.936-1.888-11.361-4.54l-1.811 1.547c2.578 2.726 7.862 5.265 13.246 5.265 7.729 0 14.473-4.545 14.473-11.668 0-5.004-2.652-10.002-7.656-11.368l-9.469-2.499c-3.944-1.06-6.217-5.225-6.217-9.016 0-5.832 5.151-9.623 10.988-9.623 3.791 0 7.123 1.667 9.095 3.712l1.667-1.439c-2.273-2.499-6.364-4.545-10.989-4.545zm.08-4.545c-9.322 0-17.732 6.591-17.732 16.672 0 6.67 3.865 13.413 10.682 15.079l9.475 2.726c1.972.454 3.258 2.426 3.258 4.472 0 3.184-3.258 5.23-7.729 5.23-3.185 0-6.601-1.693-8.041-2.98l-1.675 1.669c2.046 1.966 5.92 3.657 9.937 3.657 5.378 0 9.776-2.879 9.776-7.35 0-2.952-1.666-5.984-4.698-6.817l-9.549-2.499c-5.758-1.667-9.169-7.35-9.169-13.108 0-8.637 7.276-14.473 15.459-14.473 5.384 0 9.702 2.119 12.807 5.378l1.746-1.519c-3.18-3.559-8.484-6.137-14.547-6.137z" fill="#dd04d2"/><path d="m355.139 232.745c0-12.769 10.699-20.745 21.805-20.745l.671.009c6.908.182 13.057 3.172 16.913 7.488l2.769 3.1-14.797 12.128-.641-.674c-.748-.787-1.301-1.271-2.278-1.835l-.019-.011-.017-.011c-.138-.087-.351-.198-.635-.306-.581-.22-1.306-.369-2.045-.369-1.067 0-1.647.311-1.892.52-.195.167-.326.377-.326.785 0 .194.069.367.133.457.156.219.582.523 1.4.843.776.303 1.744.562 2.779.79 1.032.228 2.093.417 3.055.593.922.168 1.792.33 2.401.5 9.114 2.265 13.722 11.162 13.722 19.094 0 12.849-11.429 20.591-22.944 20.591-8.11 0-15.689-3.256-20.072-8.402l-2.68-3.144 14.756-11.894 2.348 1.961.014.011.012.011c.285.255 1.065.78 2.19 1.239 1.102.449 2.22.705 3.137.705v1l-.414-.014c-.84-.054-1.758-.268-2.654-.594l-.446-.172c-1.201-.489-2.087-1.068-2.479-1.418l-1.719-1.436-13.317 10.734 2.012 2.363c4.163 4.887 11.444 8.051 19.312 8.051 10.976 0 21.606-7.234 21.935-19.027l.009-.565c0-7.62-4.424-16.001-12.963-18.123-2.143-.609-8.453-1.195-10.067-2.943l-.142-.172c-.164-.231-.285-.549-.312-.891l-.006-.148c0-.611.197-1.061.527-1.404l.15-.141c.455-.389 1.279-.76 2.541-.76l.323.007c.751.037 1.473.198 2.075.426.341.129.615.27.817.398.947.546 1.545 1.037 2.212 1.712l.292.3 13.273-10.877-2.075-2.322c-3.665-4.103-9.55-6.979-16.194-7.154l-.645-.009c-10.672 0-20.804 7.639-20.804 19.745l.013.718c.268 7.435 4.689 15.274 12.943 17.329l9.585 2.753c1.076.557 1.076 1.814.063 2.724-.873.662-2.033.91-3.845.91v-1c1.718 0 2.601-.24 3.206-.684.318-.298.393-.565.391-.704-.002-.092-.032-.207-.206-.317l-9.436-2.711-.423-.112c-8.81-2.427-13.291-11.071-13.291-18.906zm22.371-7.557c1.712.085 3.36.552 4.74 1.287-1.397-.726-3.055-1.199-4.74-1.287z" fill="#dd04d2"/><g filter="url(#a)"><path d="m293.062 244.031c0 2.226-1.805 4.031-4.031 4.031s-4.031-1.805-4.031-4.031 1.805-4.031 4.031-4.031 4.031 1.805 4.031 4.031z" fill="#fff"/><path d="m293.062 244.031c0-2.157-1.694-3.918-3.824-4.026l-.207-.005c-2.226 0-4.031 1.805-4.031 4.031l.005.207c.104 2.061 1.757 3.714 3.818 3.819l.208.005c2.156 0 3.918-1.694 4.026-3.824zm4 0c-.001 4.435-3.596 8.03-8.031 8.031-4.435 0-8.031-3.596-8.031-8.031s3.596-8.031 8.031-8.031 8.031 3.596 8.031 8.031z" fill="#dd04d2"/></g></g></svg>